<svg width="1280" height="640" viewBox="0 0 1280 640" fill="none" xmlns="http://www.w3.org/2000/svg">
<rect width="1280" height="640" fill="#0063D2"/>
<path d="M130.447 359.178L135.316 380.184L141.152 359.178H144.949L150.785 380.184L155.654 359.178H159.486L152.701 385H149.027L143.068 363.59L137.074 385H133.4L126.65 359.178H130.447ZM162.316 359.09H165.48V368.723C166.23 367.773 166.904 367.105 167.502 366.719C168.521 366.051 169.793 365.717 171.316 365.717C174.047 365.717 175.898 366.672 176.871 368.582C177.398 369.625 177.662 371.072 177.662 372.924V385H174.41V373.135C174.41 371.752 174.234 370.738 173.883 370.094C173.309 369.062 172.23 368.547 170.648 368.547C169.336 368.547 168.146 368.998 167.08 369.9C166.014 370.803 165.48 372.508 165.48 375.016V385H162.316V359.09ZM184.781 379.99C184.781 380.904 185.115 381.625 185.783 382.152C186.451 382.68 187.242 382.943 188.156 382.943C189.27 382.943 190.348 382.686 191.391 382.17C193.148 381.314 194.027 379.914 194.027 377.969V375.42C193.641 375.666 193.143 375.871 192.533 376.035C191.924 376.199 191.326 376.316 190.74 376.387L188.824 376.633C187.676 376.785 186.814 377.025 186.24 377.354C185.268 377.904 184.781 378.783 184.781 379.99ZM192.445 373.592C193.172 373.498 193.658 373.193 193.904 372.678C194.045 372.396 194.115 371.992 194.115 371.465C194.115 370.387 193.729 369.607 192.955 369.127C192.193 368.635 191.098 368.389 189.668 368.389C188.016 368.389 186.844 368.834 186.152 369.725C185.766 370.217 185.514 370.949 185.396 371.922H182.443C182.502 369.602 183.252 367.99 184.693 367.088C186.146 366.174 187.828 365.717 189.738 365.717C191.953 365.717 193.752 366.139 195.135 366.982C196.506 367.826 197.191 369.139 197.191 370.92V381.766C197.191 382.094 197.256 382.357 197.385 382.557C197.525 382.756 197.812 382.855 198.246 382.855C198.387 382.855 198.545 382.85 198.721 382.838C198.896 382.814 199.084 382.785 199.283 382.75V385.088C198.791 385.229 198.416 385.316 198.158 385.352C197.9 385.387 197.549 385.404 197.104 385.404C196.014 385.404 195.223 385.018 194.73 384.244C194.473 383.834 194.291 383.254 194.186 382.504C193.541 383.348 192.615 384.08 191.408 384.701C190.201 385.322 188.871 385.633 187.418 385.633C185.672 385.633 184.242 385.105 183.129 384.051C182.027 382.984 181.477 381.654 181.477 380.061C181.477 378.314 182.021 376.961 183.111 376C184.201 375.039 185.631 374.447 187.4 374.225L192.445 373.592ZM203.027 360.918H206.227V366.174H209.232V368.758H206.227V381.045C206.227 381.701 206.449 382.141 206.895 382.363C207.141 382.492 207.551 382.557 208.125 382.557C208.277 382.557 208.441 382.557 208.617 382.557C208.793 382.545 208.998 382.527 209.232 382.504V385C208.869 385.105 208.488 385.182 208.09 385.229C207.703 385.275 207.281 385.299 206.824 385.299C205.348 385.299 204.346 384.924 203.818 384.174C203.291 383.412 203.027 382.428 203.027 381.221V368.758H200.479V366.174H203.027V360.918ZM216.035 359.178L215.455 369.514H213.416L212.836 359.178H216.035ZM221.186 379.094C221.279 380.148 221.543 380.957 221.977 381.52C222.773 382.539 224.156 383.049 226.125 383.049C227.297 383.049 228.328 382.797 229.219 382.293C230.109 381.777 230.555 380.986 230.555 379.92C230.555 379.111 230.197 378.496 229.482 378.074C229.025 377.816 228.123 377.518 226.775 377.178L224.262 376.545C222.656 376.146 221.473 375.701 220.711 375.209C219.352 374.354 218.672 373.17 218.672 371.658C218.672 369.877 219.311 368.436 220.588 367.334C221.877 366.232 223.605 365.682 225.773 365.682C228.609 365.682 230.654 366.514 231.908 368.178C232.693 369.232 233.074 370.369 233.051 371.588H230.062C230.004 370.873 229.752 370.223 229.307 369.637C228.58 368.805 227.32 368.389 225.527 368.389C224.332 368.389 223.424 368.617 222.803 369.074C222.193 369.531 221.889 370.135 221.889 370.885C221.889 371.705 222.293 372.361 223.102 372.854C223.57 373.146 224.262 373.404 225.176 373.627L227.268 374.137C229.541 374.688 231.064 375.221 231.838 375.736C233.068 376.545 233.684 377.816 233.684 379.551C233.684 381.227 233.045 382.674 231.768 383.893C230.502 385.111 228.568 385.721 225.967 385.721C223.166 385.721 221.18 385.088 220.008 383.822C218.848 382.545 218.227 380.969 218.145 379.094H221.186ZM247.746 359.178H251.877L264.92 380.096V359.178H268.242V385H264.322L251.086 364.1V385H247.746V359.178ZM281.18 365.752C282.516 365.752 283.811 366.068 285.064 366.701C286.318 367.322 287.273 368.131 287.93 369.127C288.562 370.076 288.984 371.184 289.195 372.449C289.383 373.316 289.477 374.699 289.477 376.598H275.678C275.736 378.508 276.188 380.043 277.031 381.203C277.875 382.352 279.182 382.926 280.951 382.926C282.604 382.926 283.922 382.381 284.906 381.291C285.469 380.658 285.867 379.926 286.102 379.094H289.213C289.131 379.785 288.855 380.559 288.387 381.414C287.93 382.258 287.414 382.949 286.84 383.488C285.879 384.426 284.689 385.059 283.271 385.387C282.51 385.574 281.648 385.668 280.688 385.668C278.344 385.668 276.357 384.818 274.729 383.119C273.1 381.408 272.285 379.018 272.285 375.947C272.285 372.924 273.105 370.469 274.746 368.582C276.387 366.695 278.531 365.752 281.18 365.752ZM286.225 374.084C286.096 372.713 285.797 371.617 285.328 370.797C284.461 369.273 283.014 368.512 280.986 368.512C279.533 368.512 278.314 369.039 277.33 370.094C276.346 371.137 275.824 372.467 275.766 374.084H286.225ZM294.838 366.174L298.459 381.01L302.133 366.174H305.684L309.375 380.922L313.225 366.174H316.389L310.922 385H307.635L303.803 370.428L300.094 385H296.807L291.375 366.174H294.838ZM329.414 366.262H332.631V385H329.414V366.262ZM329.414 359.178H332.631V362.764H329.414V359.178ZM337.43 366.174H340.436V368.846C341.326 367.744 342.27 366.953 343.266 366.473C344.262 365.992 345.369 365.752 346.588 365.752C349.26 365.752 351.064 366.684 352.002 368.547C352.518 369.566 352.775 371.025 352.775 372.924V385H349.559V373.135C349.559 371.986 349.389 371.061 349.049 370.357C348.486 369.186 347.467 368.6 345.99 368.6C345.24 368.6 344.625 368.676 344.145 368.828C343.277 369.086 342.516 369.602 341.859 370.375C341.332 370.996 340.986 371.641 340.822 372.309C340.67 372.965 340.594 373.908 340.594 375.139V385H337.43V366.174Z" fill="white"/>
<path d="M154.438 440.533L147.469 420.252L140.062 440.533H154.438ZM144.219 413.44H151.25L167.906 459.346H161.094L156.438 445.596H138.281L133.312 459.346H126.938L144.219 413.44ZM172.969 425.877H178.312V431.658C178.75 430.533 179.823 429.169 181.531 427.565C183.24 425.94 185.208 425.127 187.438 425.127C187.542 425.127 187.719 425.137 187.969 425.158C188.219 425.179 188.646 425.221 189.25 425.283V431.221C188.917 431.158 188.604 431.117 188.312 431.096C188.042 431.075 187.74 431.065 187.406 431.065C184.573 431.065 182.396 431.981 180.875 433.815C179.354 435.627 178.594 437.721 178.594 440.096V459.346H172.969V425.877ZM207.031 424.908C210.802 424.908 213.865 425.825 216.219 427.658C218.594 429.492 220.021 432.648 220.5 437.127H215.031C214.698 435.065 213.938 433.356 212.75 432.002C211.562 430.627 209.656 429.94 207.031 429.94C203.448 429.94 200.885 431.69 199.344 435.19C198.344 437.46 197.844 440.262 197.844 443.596C197.844 446.95 198.552 449.773 199.969 452.065C201.385 454.356 203.615 455.502 206.656 455.502C208.99 455.502 210.833 454.794 212.188 453.377C213.562 451.94 214.51 449.981 215.031 447.502H220.5C219.875 451.94 218.312 455.19 215.812 457.252C213.312 459.294 210.115 460.315 206.219 460.315C201.844 460.315 198.354 458.721 195.75 455.533C193.146 452.325 191.844 448.325 191.844 443.533C191.844 437.658 193.271 433.085 196.125 429.815C198.979 426.544 202.615 424.908 207.031 424.908ZM226.125 413.283H231.75V430.408C233.083 428.721 234.281 427.533 235.344 426.846C237.156 425.658 239.417 425.065 242.125 425.065C246.979 425.065 250.271 426.762 252 430.158C252.938 432.012 253.406 434.585 253.406 437.877V459.346H247.625V438.252C247.625 435.794 247.312 433.992 246.688 432.846C245.667 431.012 243.75 430.096 240.938 430.096C238.604 430.096 236.49 430.898 234.594 432.502C232.698 434.106 231.75 437.137 231.75 441.596V459.346H226.125V413.283ZM261.75 426.033H267.469V459.346H261.75V426.033ZM261.75 413.44H267.469V419.815H261.75V413.44ZM277.125 416.533H282.812V425.877H288.156V430.471H282.812V452.315C282.812 453.481 283.208 454.262 284 454.658C284.438 454.887 285.167 455.002 286.188 455.002C286.458 455.002 286.75 455.002 287.062 455.002C287.375 454.981 287.74 454.95 288.156 454.908V459.346C287.51 459.533 286.833 459.669 286.125 459.752C285.438 459.835 284.688 459.877 283.875 459.877C281.25 459.877 279.469 459.21 278.531 457.877C277.594 456.523 277.125 454.773 277.125 452.627V430.471H272.594V425.877H277.125V416.533ZM307.75 425.127C310.125 425.127 312.427 425.69 314.656 426.815C316.885 427.919 318.583 429.356 319.75 431.127C320.875 432.815 321.625 434.783 322 437.033C322.333 438.575 322.5 441.033 322.5 444.408H297.969C298.073 447.804 298.875 450.533 300.375 452.596C301.875 454.637 304.198 455.658 307.344 455.658C310.281 455.658 312.625 454.69 314.375 452.752C315.375 451.627 316.083 450.325 316.5 448.846H322.031C321.885 450.075 321.396 451.45 320.562 452.971C319.75 454.471 318.833 455.7 317.812 456.658C316.104 458.325 313.99 459.45 311.469 460.033C310.115 460.367 308.583 460.533 306.875 460.533C302.708 460.533 299.177 459.023 296.281 456.002C293.385 452.96 291.938 448.71 291.938 443.252C291.938 437.877 293.396 433.512 296.312 430.158C299.229 426.804 303.042 425.127 307.75 425.127ZM316.719 439.94C316.49 437.502 315.958 435.554 315.125 434.096C313.583 431.387 311.01 430.033 307.406 430.033C304.823 430.033 302.656 430.971 300.906 432.846C299.156 434.7 298.229 437.065 298.125 439.94H316.719ZM342.344 424.908C346.115 424.908 349.177 425.825 351.531 427.658C353.906 429.492 355.333 432.648 355.812 437.127H350.344C350.01 435.065 349.25 433.356 348.062 432.002C346.875 430.627 344.969 429.94 342.344 429.94C338.76 429.94 336.198 431.69 334.656 435.19C333.656 437.46 333.156 440.262 333.156 443.596C333.156 446.95 333.865 449.773 335.281 452.065C336.698 454.356 338.927 455.502 341.969 455.502C344.302 455.502 346.146 454.794 347.5 453.377C348.875 451.94 349.823 449.981 350.344 447.502H355.812C355.188 451.94 353.625 455.19 351.125 457.252C348.625 459.294 345.427 460.315 341.531 460.315C337.156 460.315 333.667 458.721 331.062 455.533C328.458 452.325 327.156 448.325 327.156 443.533C327.156 437.658 328.583 433.085 331.438 429.815C334.292 426.544 337.927 424.908 342.344 424.908ZM362.562 416.533H368.25V425.877H373.594V430.471H368.25V452.315C368.25 453.481 368.646 454.262 369.438 454.658C369.875 454.887 370.604 455.002 371.625 455.002C371.896 455.002 372.188 455.002 372.5 455.002C372.812 454.981 373.177 454.95 373.594 454.908V459.346C372.948 459.533 372.271 459.669 371.562 459.752C370.875 459.835 370.125 459.877 369.312 459.877C366.688 459.877 364.906 459.21 363.969 457.877C363.031 456.523 362.562 454.773 362.562 452.627V430.471H358.031V425.877H362.562V416.533ZM384.875 425.877V448.096C384.875 449.804 385.146 451.2 385.688 452.283C386.688 454.283 388.552 455.283 391.281 455.283C395.198 455.283 397.865 453.533 399.281 450.033C400.052 448.158 400.438 445.585 400.438 442.315V425.877H406.062V459.346H400.75L400.812 454.408C400.083 455.679 399.177 456.752 398.094 457.627C395.948 459.377 393.344 460.252 390.281 460.252C385.51 460.252 382.26 458.658 380.531 455.471C379.594 453.762 379.125 451.481 379.125 448.627V425.877H384.875ZM415.031 425.877H420.375V431.658C420.812 430.533 421.885 429.169 423.594 427.565C425.302 425.94 427.271 425.127 429.5 425.127C429.604 425.127 429.781 425.137 430.031 425.158C430.281 425.179 430.708 425.221 431.312 425.283V431.221C430.979 431.158 430.667 431.117 430.375 431.096C430.104 431.075 429.802 431.065 429.469 431.065C426.635 431.065 424.458 431.981 422.938 433.815C421.417 435.627 420.656 437.721 420.656 440.096V459.346H415.031V425.877ZM450.125 425.127C452.5 425.127 454.802 425.69 457.031 426.815C459.26 427.919 460.958 429.356 462.125 431.127C463.25 432.815 464 434.783 464.375 437.033C464.708 438.575 464.875 441.033 464.875 444.408H440.344C440.448 447.804 441.25 450.533 442.75 452.596C444.25 454.637 446.573 455.658 449.719 455.658C452.656 455.658 455 454.69 456.75 452.752C457.75 451.627 458.458 450.325 458.875 448.846H464.406C464.26 450.075 463.771 451.45 462.938 452.971C462.125 454.471 461.208 455.7 460.188 456.658C458.479 458.325 456.365 459.45 453.844 460.033C452.49 460.367 450.958 460.533 449.25 460.533C445.083 460.533 441.552 459.023 438.656 456.002C435.76 452.96 434.312 448.71 434.312 443.252C434.312 437.877 435.771 433.512 438.688 430.158C441.604 426.804 445.417 425.127 450.125 425.127ZM459.094 439.94C458.865 437.502 458.333 435.554 457.5 434.096C455.958 431.387 453.385 430.033 449.781 430.033C447.198 430.033 445.031 430.971 443.281 432.846C441.531 434.7 440.604 437.065 440.5 439.94H459.094ZM509.719 412.19C515.531 412.19 520.042 413.721 523.25 416.783C526.458 419.846 528.24 423.325 528.594 427.221H522.531C521.844 424.262 520.469 421.919 518.406 420.19C516.365 418.46 513.49 417.596 509.781 417.596C505.26 417.596 501.604 419.19 498.812 422.377C496.042 425.544 494.656 430.408 494.656 436.971C494.656 442.346 495.906 446.71 498.406 450.065C500.927 453.398 504.677 455.065 509.656 455.065C514.24 455.065 517.729 453.304 520.125 449.783C521.396 447.929 522.344 445.492 522.969 442.471H529.031C528.49 447.304 526.698 451.356 523.656 454.627C520.01 458.565 515.094 460.533 508.906 460.533C503.573 460.533 499.094 458.919 495.469 455.69C490.698 451.419 488.312 444.825 488.312 435.908C488.312 429.137 490.104 423.585 493.688 419.252C497.562 414.544 502.906 412.19 509.719 412.19ZM549.156 455.721C552.885 455.721 555.438 454.315 556.812 451.502C558.208 448.669 558.906 445.523 558.906 442.065C558.906 438.94 558.406 436.398 557.406 434.44C555.823 431.356 553.094 429.815 549.219 429.815C545.781 429.815 543.281 431.127 541.719 433.752C540.156 436.377 539.375 439.544 539.375 443.252C539.375 446.815 540.156 449.783 541.719 452.158C543.281 454.533 545.76 455.721 549.156 455.721ZM549.375 424.908C553.688 424.908 557.333 426.346 560.312 429.221C563.292 432.096 564.781 436.325 564.781 441.908C564.781 447.304 563.469 451.762 560.844 455.283C558.219 458.804 554.146 460.565 548.625 460.565C544.021 460.565 540.365 459.012 537.656 455.908C534.948 452.783 533.594 448.596 533.594 443.346C533.594 437.721 535.021 433.242 537.875 429.908C540.729 426.575 544.562 424.908 549.375 424.908ZM571.5 425.877H577.062V430.627C578.396 428.981 579.604 427.783 580.688 427.033C582.542 425.762 584.646 425.127 587 425.127C589.667 425.127 591.812 425.783 593.438 427.096C594.354 427.846 595.188 428.95 595.938 430.408C597.188 428.617 598.656 427.294 600.344 426.44C602.031 425.565 603.927 425.127 606.031 425.127C610.531 425.127 613.594 426.752 615.219 430.002C616.094 431.752 616.531 434.106 616.531 437.065V459.346H610.688V436.096C610.688 433.867 610.125 432.335 609 431.502C607.896 430.669 606.542 430.252 604.938 430.252C602.729 430.252 600.823 430.992 599.219 432.471C597.635 433.95 596.844 436.419 596.844 439.877V459.346H591.125V437.502C591.125 435.231 590.854 433.575 590.312 432.533C589.458 430.971 587.865 430.19 585.531 430.19C583.406 430.19 581.469 431.012 579.719 432.658C577.99 434.304 577.125 437.283 577.125 441.596V459.346H571.5V425.877ZM638.938 455.565C641.562 455.565 643.74 454.471 645.469 452.283C647.219 450.075 648.094 446.783 648.094 442.408C648.094 439.742 647.708 437.45 646.938 435.533C645.479 431.846 642.812 430.002 638.938 430.002C635.042 430.002 632.375 431.95 630.938 435.846C630.167 437.929 629.781 440.575 629.781 443.783C629.781 446.367 630.167 448.565 630.938 450.377C632.396 453.835 635.062 455.565 638.938 455.565ZM624.375 426.033H629.844V430.471C630.969 428.95 632.198 427.773 633.531 426.94C635.427 425.69 637.656 425.065 640.219 425.065C644.01 425.065 647.229 426.523 649.875 429.44C652.521 432.335 653.844 436.481 653.844 441.877C653.844 449.169 651.938 454.377 648.125 457.502C645.708 459.481 642.896 460.471 639.688 460.471C637.167 460.471 635.052 459.919 633.344 458.815C632.344 458.19 631.229 457.117 630 455.596V472.69H624.375V426.033ZM673.719 455.721C677.448 455.721 680 454.315 681.375 451.502C682.771 448.669 683.469 445.523 683.469 442.065C683.469 438.94 682.969 436.398 681.969 434.44C680.385 431.356 677.656 429.815 673.781 429.815C670.344 429.815 667.844 431.127 666.281 433.752C664.719 436.377 663.938 439.544 663.938 443.252C663.938 446.815 664.719 449.783 666.281 452.158C667.844 454.533 670.323 455.721 673.719 455.721ZM673.938 424.908C678.25 424.908 681.896 426.346 684.875 429.221C687.854 432.096 689.344 436.325 689.344 441.908C689.344 447.304 688.031 451.762 685.406 455.283C682.781 458.804 678.708 460.565 673.188 460.565C668.583 460.565 664.927 459.012 662.219 455.908C659.51 452.783 658.156 448.596 658.156 443.346C658.156 437.721 659.583 433.242 662.438 429.908C665.292 426.575 669.125 424.908 673.938 424.908ZM696.062 425.877H701.406V430.627C702.99 428.669 704.667 427.262 706.438 426.408C708.208 425.554 710.177 425.127 712.344 425.127C717.094 425.127 720.302 426.783 721.969 430.096C722.885 431.908 723.344 434.502 723.344 437.877V459.346H717.625V438.252C717.625 436.21 717.323 434.565 716.719 433.315C715.719 431.231 713.906 430.19 711.281 430.19C709.948 430.19 708.854 430.325 708 430.596C706.458 431.054 705.104 431.971 703.938 433.346C703 434.45 702.385 435.596 702.094 436.783C701.823 437.95 701.688 439.627 701.688 441.815V459.346H696.062V425.877ZM745.625 425.127C748 425.127 750.302 425.69 752.531 426.815C754.76 427.919 756.458 429.356 757.625 431.127C758.75 432.815 759.5 434.783 759.875 437.033C760.208 438.575 760.375 441.033 760.375 444.408H735.844C735.948 447.804 736.75 450.533 738.25 452.596C739.75 454.637 742.073 455.658 745.219 455.658C748.156 455.658 750.5 454.69 752.25 452.752C753.25 451.627 753.958 450.325 754.375 448.846H759.906C759.76 450.075 759.271 451.45 758.438 452.971C757.625 454.471 756.708 455.7 755.688 456.658C753.979 458.325 751.865 459.45 749.344 460.033C747.99 460.367 746.458 460.533 744.75 460.533C740.583 460.533 737.052 459.023 734.156 456.002C731.26 452.96 729.812 448.71 729.812 443.252C729.812 437.877 731.271 433.512 734.188 430.158C737.104 426.804 740.917 425.127 745.625 425.127ZM754.594 439.94C754.365 437.502 753.833 435.554 753 434.096C751.458 431.387 748.885 430.033 745.281 430.033C742.698 430.033 740.531 430.971 738.781 432.846C737.031 434.7 736.104 437.065 736 439.94H754.594ZM767.312 425.877H772.656V430.627C774.24 428.669 775.917 427.262 777.688 426.408C779.458 425.554 781.427 425.127 783.594 425.127C788.344 425.127 791.552 426.783 793.219 430.096C794.135 431.908 794.594 434.502 794.594 437.877V459.346H788.875V438.252C788.875 436.21 788.573 434.565 787.969 433.315C786.969 431.231 785.156 430.19 782.531 430.19C781.198 430.19 780.104 430.325 779.25 430.596C777.708 431.054 776.354 431.971 775.188 433.346C774.25 434.45 773.635 435.596 773.344 436.783C773.073 437.95 772.938 439.627 772.938 441.815V459.346H767.312V425.877ZM804.062 416.533H809.75V425.877H815.094V430.471H809.75V452.315C809.75 453.481 810.146 454.262 810.938 454.658C811.375 454.887 812.104 455.002 813.125 455.002C813.396 455.002 813.688 455.002 814 455.002C814.312 454.981 814.677 454.95 815.094 454.908V459.346C814.448 459.533 813.771 459.669 813.062 459.752C812.375 459.835 811.625 459.877 810.812 459.877C808.188 459.877 806.406 459.21 805.469 457.877C804.531 456.523 804.062 454.773 804.062 452.627V430.471H799.531V425.877H804.062V416.533ZM824.094 448.846C824.26 450.721 824.729 452.158 825.5 453.158C826.917 454.971 829.375 455.877 832.875 455.877C834.958 455.877 836.792 455.429 838.375 454.533C839.958 453.617 840.75 452.21 840.75 450.315C840.75 448.877 840.115 447.783 838.844 447.033C838.031 446.575 836.427 446.044 834.031 445.44L829.562 444.315C826.708 443.606 824.604 442.815 823.25 441.94C820.833 440.419 819.625 438.315 819.625 435.627C819.625 432.46 820.76 429.898 823.031 427.94C825.323 425.981 828.396 425.002 832.25 425.002C837.292 425.002 840.927 426.481 843.156 429.44C844.552 431.315 845.229 433.335 845.188 435.502H839.875C839.771 434.231 839.323 433.075 838.531 432.033C837.24 430.554 835 429.815 831.812 429.815C829.688 429.815 828.073 430.221 826.969 431.033C825.885 431.846 825.344 432.919 825.344 434.252C825.344 435.71 826.062 436.877 827.5 437.752C828.333 438.273 829.562 438.731 831.188 439.127L834.906 440.033C838.948 441.012 841.656 441.96 843.031 442.877C845.219 444.315 846.312 446.575 846.312 449.658C846.312 452.637 845.177 455.21 842.906 457.377C840.656 459.544 837.219 460.627 832.594 460.627C827.615 460.627 824.083 459.502 822 457.252C819.938 454.981 818.833 452.179 818.688 448.846H824.094Z" fill="white"/>
<path d="M109.23 87.7802H79V145.795H109.23V87.7802Z" fill="white"/>
<path d="M161.466 147.574C178.53 147.574 192.363 133.741 192.363 116.677C192.363 99.613 178.53 85.7799 161.466 85.7799C144.402 85.7799 130.569 99.613 130.569 116.677C130.569 133.741 144.402 147.574 161.466 147.574Z" fill="white"/>
<path d="M132.013 77L113.786 156.353" stroke="white" stroke-width="6"/>
<path d="M889 224L1162.12 394.634H889V224Z" stroke="white" stroke-width="8" stroke-linecap="round" stroke-linejoin="round"/>
<path d="M889.455 309.497L995.184 394.796L889.455 394.414V309.497Z" stroke="white" stroke-width="8" stroke-linecap="round" stroke-linejoin="round"/>
<path opacity="0.74" d="M889.305 394.6H994.491L1097.81 477.716H889.305V394.6Z" fill="white" stroke="white" stroke-width="8" stroke-linecap="round" stroke-linejoin="round"/>
<path d="M1012 541.919C1011.98 539.854 1012.35 537.805 1013.09 535.875C1013.77 534.064 1014.8 532.404 1016.12 530.987C1017.44 529.589 1019.03 528.476 1020.79 527.719C1022.67 526.914 1024.7 526.51 1026.75 526.533C1028.27 526.514 1029.78 526.758 1031.22 527.256C1032.65 527.795 1033.97 528.599 1035.11 529.627V527.112H1042.45V556.727H1035.11V554.211C1033.97 555.239 1032.65 556.044 1031.22 556.582C1029.78 557.08 1028.27 557.325 1026.75 557.305C1024.7 557.328 1022.67 556.924 1020.79 556.119C1019.03 555.361 1017.44 554.248 1016.12 552.849C1014.8 551.432 1013.77 549.772 1013.08 547.961C1012.35 546.032 1011.98 543.983 1012 541.919V541.919ZM1027.7 550.393C1028.31 550.39 1028.92 550.327 1029.52 550.205C1030.19 550.07 1030.83 549.857 1031.45 549.569C1032.12 549.249 1032.76 548.846 1033.34 548.369C1034 547.824 1034.59 547.203 1035.1 546.518V537.318C1034.59 536.637 1034 536.021 1033.34 535.484C1032.76 535.013 1032.12 534.611 1031.45 534.284C1030.84 533.987 1030.19 533.768 1029.53 533.633C1028.93 533.513 1028.32 533.451 1027.7 533.449C1026.61 533.44 1025.52 533.657 1024.5 534.085C1023.53 534.496 1022.65 535.102 1021.92 535.864C1021.18 536.64 1020.59 537.551 1020.2 538.549C1019.37 540.719 1019.37 543.118 1020.2 545.287C1020.59 546.287 1021.18 547.2 1021.92 547.977C1022.65 548.739 1023.53 549.344 1024.51 549.756C1025.52 550.184 1026.61 550.4 1027.71 550.392L1027.7 550.393ZM1060.82 533.849C1057.34 533.874 1054.32 536.3 1054.32 539.9V556.727H1046.97V540.097C1047.09 536.507 1048.58 533.101 1051.14 530.578C1053.69 528.056 1057.12 526.608 1060.71 526.533H1060.92C1064.51 526.608 1067.93 528.055 1070.49 530.578C1073.05 533.101 1074.54 536.507 1074.66 540.097V556.727H1067.32V539.895C1067.32 536.295 1064.29 533.87 1060.82 533.844L1060.82 533.849ZM1078.14 541.919C1078.13 539.854 1078.5 537.805 1079.23 535.875C1079.92 534.064 1080.95 532.404 1082.27 530.987C1083.58 529.589 1085.17 528.476 1086.94 527.719C1088.82 526.914 1090.85 526.51 1092.9 526.533C1094.42 526.514 1095.94 526.759 1097.38 527.256C1098.8 527.786 1100.12 528.581 1101.24 529.599V518.233H1108.59V556.727H1101.24V554.24C1100.12 555.273 1098.8 556.074 1097.37 556.597C1095.93 557.084 1094.41 557.324 1092.89 557.305C1090.84 557.328 1088.81 556.924 1086.93 556.119C1085.16 555.361 1083.58 554.248 1082.26 552.849C1080.94 551.432 1079.91 549.772 1079.23 547.961C1078.49 546.032 1078.13 543.983 1078.14 541.919V541.919ZM1093.84 550.393C1094.46 550.39 1095.07 550.327 1095.67 550.205C1096.33 550.07 1096.98 549.857 1097.59 549.569C1098.27 549.249 1098.9 548.846 1099.48 548.369C1100.14 547.824 1100.73 547.202 1101.24 546.518V537.318C1100.73 536.636 1100.14 536.02 1099.48 535.482C1098.9 535.012 1098.26 534.609 1097.59 534.282C1096.98 533.985 1096.33 533.766 1095.66 533.631C1095.06 533.512 1094.46 533.451 1093.84 533.449C1092.75 533.44 1091.66 533.657 1090.64 534.085C1089.67 534.496 1088.79 535.102 1088.06 535.864C1087.31 536.641 1086.73 537.554 1086.34 538.554C1085.51 540.724 1085.51 543.122 1086.34 545.292C1086.73 546.292 1087.31 547.205 1088.06 547.982C1088.79 548.743 1089.67 549.347 1090.64 549.757C1091.66 550.185 1092.75 550.402 1093.84 550.393V550.393ZM1142.99 550.393C1144.06 550.399 1145.12 550.188 1146.1 549.771C1147.06 549.367 1147.93 548.771 1148.65 548.021C1149.38 547.249 1149.96 546.342 1150.35 545.349C1150.78 544.257 1150.99 543.094 1150.98 541.922C1150.99 540.758 1150.77 539.603 1150.34 538.522C1149.94 537.527 1149.35 536.619 1148.61 535.847C1147.88 535.1 1147.02 534.501 1146.06 534.083C1145.09 533.659 1144.05 533.442 1142.99 533.447C1141.93 533.441 1140.87 533.657 1139.89 534.083C1138.93 534.497 1138.07 535.097 1137.34 535.849C1136.61 536.624 1136.02 537.531 1135.62 538.524C1135.19 539.605 1134.97 540.76 1134.99 541.924C1134.97 543.096 1135.18 544.259 1135.61 545.351C1136 546.345 1136.58 547.253 1137.32 548.026C1138.04 548.776 1138.9 549.372 1139.86 549.776C1140.85 550.192 1141.92 550.402 1142.99 550.393V550.393ZM1142.99 557.305C1140.92 557.318 1138.87 556.925 1136.95 556.148C1133.21 554.654 1130.22 551.736 1128.63 548.036C1127.8 546.104 1127.39 544.021 1127.41 541.919C1127.39 539.85 1127.81 537.801 1128.63 535.904C1129.85 533.11 1131.86 530.734 1134.41 529.069C1136.96 527.404 1139.95 526.522 1142.99 526.533C1145.07 526.52 1147.12 526.928 1149.04 527.733C1152.76 529.275 1155.73 532.206 1157.32 535.903C1158.15 537.8 1158.57 539.849 1158.55 541.918C1158.57 543.966 1158.17 545.996 1157.38 547.886C1156.6 549.777 1155.43 551.488 1153.97 552.918C1152.54 554.304 1150.87 555.401 1149.02 556.149C1147.11 556.927 1145.06 557.32 1142.99 557.305V557.305ZM1165.52 524.793C1164.94 524.796 1164.36 524.677 1163.83 524.444C1162.78 523.989 1161.94 523.151 1161.49 522.101C1161.25 521.569 1161.14 520.994 1161.14 520.413C1161.14 519.828 1161.26 519.25 1161.49 518.713C1161.71 518.187 1162.03 517.709 1162.44 517.304C1162.84 516.901 1163.31 516.577 1163.83 516.349C1164.36 516.116 1164.94 515.997 1165.52 516C1166.1 515.998 1166.68 516.117 1167.22 516.349C1168.28 516.798 1169.13 517.644 1169.58 518.706C1169.81 519.243 1169.93 519.821 1169.92 520.406C1169.93 520.987 1169.81 521.562 1169.58 522.094C1169.35 522.614 1169.03 523.088 1168.63 523.489C1168.22 523.892 1167.74 524.215 1167.22 524.438C1166.68 524.67 1166.1 524.789 1165.52 524.787L1165.52 524.793ZM1161.84 527.112H1169.19V556.727H1161.84V527.112ZM1172.57 541.919C1172.55 539.854 1172.92 537.805 1173.65 535.875C1174.34 534.064 1175.37 532.404 1176.69 530.987C1178.01 529.589 1179.6 528.476 1181.36 527.719C1183.24 526.914 1185.27 526.51 1187.32 526.533C1188.84 526.514 1190.36 526.759 1191.8 527.256C1193.23 527.785 1194.54 528.58 1195.68 529.599V518.233H1203.02V556.727H1195.68V554.24C1194.55 555.273 1193.24 556.074 1191.8 556.597C1190.36 557.084 1188.84 557.324 1187.32 557.305C1185.27 557.328 1183.24 556.924 1181.36 556.119C1179.6 555.362 1178.01 554.25 1176.69 552.851C1175.37 551.434 1174.34 549.774 1173.65 547.963C1172.92 546.033 1172.55 543.984 1172.57 541.919V541.919ZM1188.27 550.393C1188.88 550.39 1189.49 550.327 1190.09 550.205C1190.75 550.07 1191.4 549.857 1192.01 549.569C1192.69 549.25 1193.33 548.846 1193.91 548.369C1194.57 547.824 1195.16 547.203 1195.67 546.518V537.318C1195.16 536.636 1194.57 536.019 1193.91 535.482C1193.32 535.011 1192.69 534.609 1192.01 534.282C1191.4 533.985 1190.76 533.766 1190.09 533.631C1189.49 533.51 1188.88 533.447 1188.27 533.443C1187.17 533.434 1186.08 533.651 1185.07 534.079C1184.09 534.49 1183.21 535.096 1182.48 535.858C1181.74 536.635 1181.15 537.548 1180.76 538.548C1179.93 540.718 1179.93 543.117 1180.76 545.286C1181.15 546.286 1181.74 547.199 1182.48 547.976C1183.21 548.738 1184.09 549.343 1185.07 549.755C1186.08 550.183 1187.17 550.399 1188.27 550.391V550.393ZM1126.71 533.755C1121.78 533.755 1119.61 536.295 1119.61 539.895V556.727H1112.27V540.097C1112.31 533.163 1116.31 526.345 1126.71 526.345" fill="white"/>
</svg>
