<svg xmlns="http://www.w3.org/2000/svg" width="1280" height="640" fill="none" viewBox="0 0 1280 640"><rect width="1280" height="640" fill="#3DDC84"/><circle cx="907.581" cy="319.581" r="181.581" fill="#fff"/><path fill="#3DDC84" d="M824.07 278.84C820.089 278.84 816.711 280.228 813.934 283.005C811.158 285.781 809.769 289.113 809.769 293.002V352.707C809.769 356.693 811.157 360.068 813.934 362.845C816.711 365.622 820.089 367.01 824.07 367.01C828.048 367.01 831.405 365.622 834.138 362.845C836.866 360.069 838.234 356.693 838.234 352.707V293.002C838.234 289.113 836.846 285.781 834.069 283.005C831.292 280.228 827.958 278.84 824.07 278.84Z"/><path fill="#3DDC84" d="M939.04 225.242L948.898 207.056C949.546 205.852 949.315 204.929 948.206 204.279C947.001 203.72 946.076 204.003 945.429 205.11L935.433 223.442C926.637 219.553 917.333 217.605 907.523 217.605C897.71 217.605 888.406 219.554 879.613 223.442L869.616 205.11C868.966 204.003 868.041 203.722 866.839 204.279C865.727 204.932 865.497 205.852 866.147 207.056L876.006 225.242C866.009 230.34 858.047 237.441 852.123 246.558C846.199 255.681 843.236 265.649 843.236 276.482H971.67C971.67 265.652 968.706 255.683 962.783 246.558C956.858 237.441 948.942 230.34 939.04 225.242ZM882.042 251.695C880.976 252.764 879.702 253.295 878.222 253.295C876.739 253.295 875.492 252.764 874.474 251.695C873.456 250.631 872.947 249.363 872.947 247.878C872.947 246.398 873.456 245.127 874.474 244.061C875.492 242.997 876.742 242.465 878.222 242.465C879.702 242.465 880.976 242.997 882.042 244.061C883.105 245.129 883.64 246.398 883.64 247.878C883.637 249.36 883.103 250.631 882.042 251.695ZM940.566 251.695C939.546 252.764 938.296 253.295 936.818 253.295C935.335 253.295 934.062 252.764 932.998 251.695C931.932 250.631 931.4 249.363 931.4 247.878C931.4 246.398 931.932 245.127 932.998 244.061C934.062 242.997 935.335 242.465 936.818 242.465C938.298 242.465 939.546 242.997 940.566 244.061C941.584 245.129 942.092 246.398 942.092 247.878C942.092 249.36 941.584 250.631 940.566 251.695Z"/><path fill="#3DDC84" d="M843.787 373.952C843.787 378.214 845.267 381.822 848.228 384.782C851.191 387.743 854.799 389.223 859.058 389.223H869.334L869.475 420.746C869.475 424.726 870.863 428.107 873.64 430.884C876.416 433.66 879.75 435.049 883.636 435.049C887.615 435.049 890.995 433.66 893.772 430.884C896.549 428.107 897.937 424.727 897.937 420.746V389.226H917.098V420.746C917.098 424.726 918.485 428.107 921.262 430.884C924.039 433.66 927.416 435.049 931.397 435.049C935.376 435.049 938.756 433.66 941.533 430.884C944.31 428.107 945.697 424.727 945.697 420.746V389.226H956.112C960.276 389.226 963.838 387.746 966.804 384.785C969.764 381.824 971.245 378.216 971.245 373.955V281.476H843.787V373.952Z"/><path fill="#3DDC84" d="M990.97 278.84C987.081 278.84 983.75 280.208 980.973 282.936C978.196 285.669 976.808 289.026 976.808 293.002V352.707C976.808 356.693 978.196 360.068 980.973 362.845C983.75 365.622 987.084 367.01 990.97 367.01C994.949 367.01 998.328 365.622 1001.11 362.845C1003.88 360.068 1005.27 356.693 1005.27 352.707V293.002C1005.27 289.026 1003.88 285.669 1001.11 282.936C998.328 280.208 994.949 278.84 990.97 278.84Z"/><circle cx="371.581" cy="319.581" r="181.581" fill="#fff"/><path fill="#D33833" d="M457.748 314.282C457.748 363.21 418.912 402.704 371.3 402.704C323.469 402.704 284.852 362.991 284.852 314.282C284.852 265.353 323.688 225.64 371.3 225.64C419.131 225.64 457.748 265.353 457.748 314.282Z"/><path fill="#EF3D3A" d="M288.144 336.223C288.144 336.223 281.781 243.851 366.912 241.218L360.988 231.345L314.912 246.923L301.747 262.062L290.118 284.223L283.536 309.894L285.511 327.008"/><path fill="#231F20" d="M312.059 253.725C296.92 269.303 287.485 290.805 287.485 314.501C287.485 338.198 296.92 359.7 312.059 375.278C327.199 390.856 348.262 400.291 371.3 400.291C394.558 400.291 415.401 390.637 430.541 375.278C445.68 359.7 455.115 338.198 455.115 314.501C455.115 290.805 445.68 269.303 430.541 253.725C415.401 238.147 394.338 228.712 371.3 228.712C348.043 228.712 327.199 238.366 312.059 253.725ZM308.11 379.008C291.873 362.552 282 339.734 282 314.501C282 289.269 291.873 266.45 308.11 249.995C324.346 233.539 346.507 223.227 371.3 223.227C395.874 223.227 418.254 233.539 434.49 249.995C450.727 266.45 460.6 289.269 460.6 314.501C460.6 339.734 450.727 362.552 434.49 379.008C418.254 395.464 396.093 405.776 371.3 405.776C346.507 405.776 324.346 395.464 308.11 379.008Z"/><path fill="#F0D6B7" d="M407.722 314.721L394.557 316.695L376.785 318.67L365.157 318.889L353.967 318.67L345.41 316.037L337.73 307.7L331.806 291.024L330.49 287.294L322.591 284.661L317.983 277.201L314.692 266.231L318.422 256.577L326.979 253.725L333.781 257.016L337.072 264.256L341.021 263.598L342.338 261.843L341.021 254.383L340.802 244.729L342.777 231.564L342.557 224.104L348.701 214.45L359.232 206.771L377.663 198.872L398.068 201.944L415.84 214.889L424.178 228.054L429.444 237.488L430.76 261.185L426.811 281.809L419.57 299.801L412.549 309.455"/><path fill="#335061" d="M396.532 371.767L349.359 373.742V381.641L353.308 409.287L351.334 411.7L318.422 400.51L316.009 396.561L312.717 359.261L305.038 336.881L303.502 331.396L329.831 313.404L338.169 310.113L345.41 318.889L351.553 324.594L358.794 326.788L362.085 327.885L366.034 344.999L369.106 348.729L376.785 346.096L371.3 356.189L400.043 369.793L396.532 371.767Z"/><path fill="#6D6B6D" d="M318.422 256.577L326.979 253.725L333.781 257.016L337.072 264.256L341.021 263.598L342.118 259.649L340.144 251.969L342.118 233.978L340.363 224.104L346.287 217.083L359.232 206.771L355.502 201.944L337.511 210.72L329.831 216.864L325.663 226.079L319.08 234.855L317.106 245.387L318.422 256.577Z"/><path fill="#DCD9D8" d="M331.806 225.64C331.806 225.64 336.853 213.353 356.6 207.429C376.346 201.505 357.697 203.041 357.697 203.041L336.194 211.378L327.857 219.716L324.127 226.298L331.806 225.64Z"/><path fill="#DCD9D8" d="M321.933 254.383C321.933 254.383 314.912 231.345 341.46 228.054L340.363 224.104L322.152 228.492L316.886 245.606L318.203 256.796L321.933 254.383Z"/><path fill="#F7E4CD" d="M332.464 285.1L336.853 280.932C336.853 280.932 338.827 281.151 339.047 283.564C339.486 285.978 340.363 306.603 354.625 317.792C355.941 318.89 344.093 316.037 344.093 316.037L333.561 299.581"/><path fill="#F7E4CD" d="M393.241 278.737C393.241 278.737 394.119 268.644 396.752 269.522C399.385 270.4 399.385 273.033 399.385 273.033C399.385 273.033 392.802 277.201 393.241 278.737Z"/><path fill="#F7E4CD" d="M420.448 242.096C420.448 242.096 414.963 243.193 414.524 248.02C414.085 252.847 420.448 249.117 421.545 248.678"/><path fill="#F7E4CD" d="M380.735 242.535C380.735 242.535 373.494 243.632 373.494 248.239C373.494 252.847 381.832 252.628 384.026 250.653"/><path fill="#F7E4CD" d="M335.756 263.817C335.756 263.817 323.249 256.138 321.933 263.379C320.616 270.619 317.545 275.885 323.907 283.564L319.519 282.248L315.57 271.936L314.253 262.062L321.933 254.163L330.49 254.822L335.536 258.771L335.756 263.817Z"/><path fill="#F7E4CD" d="M341.68 243.193C341.68 243.193 347.384 214.231 375.688 208.526C398.946 203.918 411.233 209.623 415.84 214.889C415.84 214.889 394.996 190.096 375.249 197.775C355.502 205.454 341.021 219.277 341.241 228.054C341.899 243.193 341.68 243.193 341.68 243.193Z"/><path fill="#F7E4CD" d="M418.254 218.18C418.254 218.18 408.6 217.741 408.38 226.518C408.38 226.518 408.38 227.834 409.039 229.151C409.039 229.151 416.718 220.594 421.326 225.201"/><path fill="#F7E4CD" d="M376.346 229.809C376.346 229.809 374.591 216.644 363.401 224.324C356.161 229.37 356.819 236.172 358.135 237.488C359.452 238.805 359.013 241.438 360.11 239.682C361.207 237.927 360.768 232.003 364.498 230.248C368.009 228.712 374.152 226.737 376.346 229.809Z"/><path fill="#49728B" d="M345.41 318.89L314.473 332.712C314.473 332.712 327.418 383.835 320.836 399.632L316.228 397.877L315.789 378.35L307.232 341.489L303.502 331.176L335.756 309.455L345.41 318.89Z"/><path fill="#49728B" d="M348.481 347.193L352.87 352.459V372.206H347.604C347.604 372.206 346.945 358.383 346.945 356.628C346.945 354.873 347.604 348.949 347.604 348.949"/><path fill="#49728B" d="M348.701 375.278L333.781 375.936L338.169 379.008L348.701 380.544"/><path fill="#335061" d="M399.385 371.987L411.672 371.767L414.524 402.046L402.017 403.801L399.385 371.987Z"/><path fill="#335061" d="M402.676 371.987L421.106 370.89C421.106 370.89 428.786 351.801 428.786 350.704C428.786 349.607 435.368 323.058 435.368 323.058L420.448 307.48L417.376 304.847L409.477 312.746V343.463L402.676 371.987Z"/><path fill="#49728B" d="M411.013 369.793L399.385 372.206L401.14 381.422C405.528 383.396 412.769 378.13 412.769 378.13"/><path fill="#49728B" d="M411.233 312.088L434.49 329.202L435.148 321.303L417.596 305.067L411.233 312.088Z"/><path fill="#fff" d="M360.11 436.932L353.308 409.287L349.798 388.881L349.359 373.742L380.296 371.987H399.385L397.629 406.654L400.701 433.422L400.262 438.249L375.249 440.223L360.11 436.932Z"/><path fill="#DCD9D8" d="M395.216 371.767C395.216 371.767 393.46 405.995 398.507 430.35C398.507 430.35 388.633 436.713 374.152 438.249L401.798 437.152L405.089 435.177L401.14 381.202L400.043 369.573"/><path fill="#fff" d="M415.182 399.413L428.127 395.903L452.482 394.586L455.992 383.177L449.41 363.869L441.95 362.772L431.418 366.063L421.106 371.109L415.84 370.012L411.671 371.767"/><path fill="#DCD9D8" d="M414.963 392.831C414.963 392.831 423.52 388.881 424.836 389.101L421.106 370.89L425.494 369.135C425.494 369.135 428.566 386.249 428.566 388.223C428.566 388.223 446.997 389.32 448.752 389.32C448.752 389.32 452.701 381.641 451.824 373.742L455.554 384.274L455.992 390.198L450.726 398.097L444.802 399.413L434.929 398.974L431.638 394.586L420.009 396.341L416.279 397.658"/><path fill="#fff" d="M402.018 369.354L394.777 350.923L387.098 339.953C387.098 339.953 388.853 335.345 391.047 335.345C393.461 335.345 398.726 335.345 398.726 335.345L405.967 337.978L405.309 350.265L402.018 369.354Z"/><path fill="#DCD9D8" d="M403.334 363.21C403.334 363.21 394.119 345.438 394.119 342.805C394.119 342.805 395.874 338.856 398.068 339.734C400.482 340.831 405.309 343.463 405.309 343.463V337.101L394.119 334.687L386.439 335.784L399.384 366.063L402.017 366.502"/><path fill="#fff" d="M362.962 319.548L353.967 318.67L345.41 316.037V318.89L349.578 323.497L362.743 329.421"/><path fill="#DCD9D8" d="M348.262 320.645C348.262 320.645 358.574 325.033 361.865 323.936L362.085 327.885L352.87 325.911L347.165 321.961L348.262 320.645Z"/><path fill="#D33833" d="M415.182 336.662C409.697 336.442 404.431 335.784 400.043 334.687C400.262 332.932 399.823 331.176 400.262 329.86C401.579 328.982 403.553 328.982 405.528 328.763C403.992 327.885 401.579 327.666 399.823 328.105C399.823 326.788 399.165 326.13 398.946 325.033C402.017 323.936 409.477 316.476 413.646 318.89C415.621 319.987 416.498 326.569 416.718 329.86C416.498 332.493 416.279 335.126 415.182 336.662Z"/><path fill="#D33833" d="M415.182 336.662V335.784C409.697 335.565 404.65 334.906 400.262 333.809L400.043 334.468L400.92 334.687C400.92 334.248 400.92 333.809 400.92 333.371C400.92 332.493 400.92 331.835 400.92 331.176C400.92 330.738 400.92 330.299 401.14 330.079L400.482 329.86L400.92 330.518C401.359 330.299 402.017 330.079 402.895 329.86C403.773 329.641 404.65 329.641 405.747 329.641L408.38 329.421L405.967 328.324C404.65 327.666 403.334 327.446 401.798 327.446C401.14 327.446 400.482 327.446 399.823 327.666L400.043 328.544H400.92C400.92 327.885 400.701 327.227 400.482 326.569C400.262 326.13 400.043 325.691 399.823 325.252L399.165 325.472L399.384 326.13C400.262 325.911 401.14 325.252 402.017 324.594C403.553 323.497 405.309 322.4 407.064 321.303C408.819 320.206 410.574 319.548 411.891 319.548C412.549 319.548 412.988 319.767 413.427 319.987C413.646 319.987 413.646 320.206 413.866 320.425C414.085 320.864 414.524 321.522 414.743 322.4C415.621 324.814 415.84 328.324 416.06 330.518C416.06 330.738 416.06 331.176 416.06 331.396C416.06 332.493 416.06 333.59 415.84 334.468C415.621 335.345 415.401 336.223 414.963 336.662H415.182V335.784V336.662L415.84 337.101C416.499 336.442 416.718 335.345 416.937 334.248C417.157 333.151 417.376 332.054 417.376 330.738C417.376 330.299 417.376 330.079 417.376 329.641C417.376 327.885 416.937 325.472 416.499 323.278C416.279 322.181 415.84 321.084 415.621 320.206C415.401 319.767 415.182 319.328 414.963 318.889C414.743 318.451 414.304 318.231 414.085 318.012C413.427 317.573 412.549 317.354 411.671 317.354C410.355 317.354 409.258 317.792 407.942 318.231C405.967 319.109 404.212 320.425 402.456 321.522C401.579 322.181 400.92 322.619 400.262 323.058C399.604 323.497 398.946 323.716 398.507 323.936L397.849 324.155L398.068 324.814C398.287 325.472 398.507 325.911 398.726 326.349C398.946 326.788 398.946 327.227 398.946 327.666V328.544L399.823 328.324C400.262 328.105 400.92 328.105 401.579 328.105C402.895 328.105 404.212 328.324 405.089 328.982L405.528 328.324V327.446C404.65 327.446 403.553 327.666 402.676 327.666C401.798 327.885 400.701 328.105 400.043 328.544L399.823 328.763V328.982C399.604 329.421 399.604 330.079 399.604 330.518C399.604 331.396 399.604 332.054 399.604 332.712C399.604 333.151 399.604 333.371 399.604 333.809L399.384 334.468L400.043 334.687C404.65 336.003 409.697 336.662 415.401 336.881H415.84L416.06 336.662H415.182Z"/><path fill="#D33833" d="M388.414 327.447C388.414 327.885 388.414 328.324 388.414 328.763C386.659 329.86 383.806 329.86 381.832 330.957C384.684 331.177 386.878 331.835 388.853 332.712C388.853 333.809 388.853 334.906 388.633 336.004C385.342 338.198 382.49 341.489 378.76 343.463C377.005 344.341 370.642 346.974 368.886 346.535C367.789 346.316 367.789 344.999 367.351 343.683C366.473 341.05 364.279 336.662 364.059 332.712C363.84 327.666 363.401 319.109 368.886 319.987C373.275 320.864 378.541 322.839 381.832 324.814C384.026 325.691 385.123 327.227 388.414 327.447Z"/><path fill="#D33833" d="M388.414 327.446H387.536C387.536 327.885 387.536 328.324 387.536 328.763H388.414L387.975 328.105C387.317 328.544 386.22 328.763 385.123 329.202C384.026 329.421 382.709 329.641 381.612 330.299L378.979 331.615L382.051 331.835C384.684 332.054 386.878 332.493 388.633 333.59L389.072 332.932H388.195C388.195 334.029 388.195 335.126 387.975 336.223H388.853L388.414 335.565C386.659 336.662 385.123 337.978 383.587 339.514C382.051 340.831 380.296 342.147 378.541 343.025C377.882 343.463 376.127 344.122 374.152 344.78C373.275 344.999 372.397 345.438 371.519 345.658C370.642 345.877 369.984 346.096 369.545 346.096C369.325 346.096 369.325 346.096 369.106 346.096C368.886 346.096 368.886 346.096 368.886 345.877C368.667 345.658 368.667 345.438 368.448 344.999C368.228 344.56 368.228 344.122 368.009 343.683C367.57 342.366 366.692 340.611 366.034 338.636C365.376 336.662 364.937 334.687 364.718 332.932C364.718 331.615 364.498 330.299 364.498 328.763C364.498 326.788 364.718 324.594 365.157 323.058C365.376 322.4 365.815 321.742 366.254 321.522C366.692 321.084 367.131 321.084 367.789 321.084C368.009 321.084 368.228 321.084 368.448 321.084C372.836 321.961 377.882 323.936 381.173 325.691C382.051 326.13 382.929 326.788 384.026 327.446C385.123 328.105 386.22 328.544 387.975 328.544L388.414 327.446H387.536H388.414V326.569C386.878 326.349 386 326.13 385.123 325.691C384.245 325.252 383.368 324.594 382.271 323.936C378.76 321.961 373.494 319.987 368.886 319.109C368.448 319.109 368.228 319.109 367.789 319.109C366.692 319.109 365.815 319.548 365.157 319.987C364.059 320.864 363.621 322.181 363.401 323.717C363.182 325.252 362.962 326.788 362.962 328.544C362.962 330.079 362.962 331.396 363.182 332.712C363.182 334.906 363.84 337.101 364.498 338.856C365.156 340.831 366.034 342.586 366.473 343.902C366.692 344.56 366.692 345.219 367.131 345.658C367.351 345.877 367.351 346.316 367.789 346.535C368.009 346.755 368.448 346.974 368.886 347.193C369.106 347.193 369.325 347.193 369.545 347.193C370.203 347.193 371.081 346.974 371.958 346.755C373.275 346.316 374.811 345.877 376.127 345.438C377.443 344.999 378.541 344.341 379.199 344.122C381.173 343.025 382.929 341.708 384.465 340.392C386 339.075 387.536 337.759 389.072 336.662L389.292 336.442V336.003C389.292 334.906 389.292 333.809 389.511 332.712V332.274L389.072 332.054C387.098 330.957 384.684 330.299 381.832 330.299V331.176L382.271 331.835C383.148 331.396 384.245 331.176 385.342 330.957C386.439 330.738 387.756 330.299 388.853 329.641L389.292 329.421V328.982C389.292 328.544 389.292 328.105 389.292 327.666V327.008H388.633L388.414 327.446Z"/><path fill="#D33833" d="M391.486 333.59C391.047 330.738 390.389 330.079 390.608 327.666C398.068 322.62 399.604 336.004 391.486 333.59Z"/><path fill="#D33833" d="M391.486 333.59L392.363 333.371C392.144 332.054 391.925 331.396 391.705 330.518C391.486 329.86 391.486 329.202 391.486 328.544C391.486 328.324 391.486 327.885 391.486 327.666H390.608L391.047 328.324C392.144 327.666 393.022 327.446 393.68 327.446C394.119 327.446 394.338 327.446 394.777 327.666C395.216 327.885 395.435 328.324 395.874 328.763C396.093 329.202 396.313 329.86 396.313 330.299C396.313 331.176 396.093 331.835 395.655 332.274C395.216 332.712 394.557 333.151 393.68 333.151C393.241 333.151 392.583 333.151 392.144 332.932L391.486 333.59L392.363 333.371L391.486 333.59L391.266 334.248C391.925 334.468 392.802 334.687 393.46 334.687C394.777 334.687 396.093 334.029 396.752 333.151C397.41 332.274 397.849 331.176 397.849 330.079C397.849 328.982 397.629 327.885 396.971 327.008C396.532 326.569 396.313 326.13 395.655 325.911C395.216 325.691 394.557 325.472 393.899 325.472C392.802 325.472 391.705 325.911 390.389 326.788L390.169 327.008V327.446C390.169 327.885 390.169 328.105 390.169 328.544C390.169 329.421 390.389 330.299 390.389 330.957C390.608 331.615 390.827 332.493 391.047 333.59V334.029L391.486 334.248V333.59Z"/><path fill="#EF3D3A" d="M402.237 335.784C402.237 335.784 399.823 332.493 401.579 331.396C403.334 330.299 404.87 331.396 405.967 329.641C407.064 327.885 405.967 327.008 406.406 325.033C406.845 323.058 408.38 322.619 410.136 322.4C411.891 321.961 416.499 321.303 417.157 323.058L415.182 317.134L411.233 315.818L398.726 323.058L398.068 326.788V334.029"/><path fill="#EF3D3A" d="M367.789 346.755C367.351 341.708 366.912 336.442 366.473 331.396C365.815 323.717 368.228 325.033 375.03 325.033C376.127 325.033 381.393 326.349 381.612 327.008C383.368 330.738 378.541 329.86 383.587 332.712C387.975 335.126 395.435 331.396 393.68 326.13C392.802 325.033 388.633 325.691 387.098 325.033C384.465 323.717 382.051 322.4 379.418 321.084C376.127 319.328 368.667 316.915 365.156 319.328C356.38 325.252 365.815 340.392 368.886 346.755"/><path fill="#231F20" d="M376.346 229.809C367.351 227.615 362.962 233.539 360.11 239.682C357.697 239.024 358.574 235.733 359.232 234.197C360.768 229.809 367.351 223.885 372.616 224.762C375.03 224.982 378.102 226.957 376.346 229.809Z"/><path fill="#231F20" d="M420.229 240.121C420.448 240.121 420.448 240.121 420.667 240.121C422.642 244.29 424.397 248.898 427.03 252.628C425.275 256.577 414.085 260.088 414.305 253.066C416.718 251.969 420.887 252.847 423.081 251.531C421.764 247.801 419.79 244.948 420.229 240.121Z"/><path fill="#231F20" d="M380.954 240.121C382.929 243.632 383.587 247.362 386.22 249.995C387.536 251.092 389.95 252.628 388.633 255.919C388.414 256.796 386.22 258.552 385.123 258.771C380.735 260.088 370.861 258.99 374.152 253.725C377.663 253.944 382.49 255.919 385.123 253.505C383.148 250.433 379.638 244.071 380.954 240.121Z"/><path fill="#231F20" d="M418.473 276.104C412.11 280.273 404.87 284.661 394.338 283.784C392.144 281.809 391.266 277.421 393.46 274.569C394.558 276.543 393.899 280.054 396.971 280.712C402.895 281.809 409.916 276.982 414.304 275.446C416.937 270.839 414.085 269.303 411.672 266.45C406.845 260.526 400.043 253.066 400.262 244.29C402.237 242.754 402.456 246.484 402.676 247.142C405.309 253.066 411.672 260.965 416.499 266.012C417.596 267.328 419.57 268.425 419.79 269.303C420.448 271.497 418.254 274.569 418.473 276.104Z"/><path fill="#231F20" d="M333.561 271.716C331.587 270.619 331.148 265.573 328.734 265.353C325.443 265.134 325.882 271.936 325.882 275.885C323.469 273.691 323.03 267.328 324.785 263.818C322.81 262.94 321.933 264.915 320.836 265.573C322.372 255.48 335.756 260.965 333.561 271.716Z"/><path fill="#231F20" d="M422.642 280.273C419.57 285.978 415.401 292.341 406.625 292.56C406.406 290.805 406.406 287.953 406.625 286.856C413.427 285.978 417.596 282.687 422.642 280.273Z"/><path fill="#231F20" d="M380.515 284.003C386.22 286.856 396.532 287.294 403.992 287.075C404.431 288.83 404.431 290.805 404.431 292.78C394.558 293.438 382.929 290.805 380.515 284.003Z"/><path fill="#231F20" d="M379.418 289.488C383.368 299.143 396.752 298.046 407.942 297.826C407.503 299.143 406.406 300.678 405.089 301.117C401.579 302.653 391.486 303.75 386.439 301.117C383.368 299.362 381.174 295.632 379.418 293.438C378.541 292.341 374.372 289.488 379.418 289.488Z"/><path fill="#81B0C4" d="M418.034 343.244C413.427 351.143 409.039 359.042 403.773 366.063C405.967 359.48 407.064 348.291 407.283 339.734C412.11 337.539 416.06 340.172 418.034 343.244Z"/><path fill="#231F20" d="M442.608 371.329C437.562 372.426 433.832 377.253 429.005 377.033C431.638 373.084 436.465 371.548 442.608 371.329Z"/><path fill="#231F20" d="M444.802 379.447C440.634 379.886 435.807 380.544 431.638 380.105C433.613 377.033 441.292 378.13 444.802 379.447Z"/><path fill="#231F20" d="M446.338 386.248C441.731 386.248 435.807 386.248 431.418 385.81C434.051 382.957 443.267 384.932 446.338 386.248Z"/><path fill="#DCD9D8" d="M409.258 405.118C409.916 411.042 412.33 416.966 411.891 423.329C409.258 424.207 407.722 424.865 404.431 424.865C404.212 419.379 403.553 411.042 403.773 405.776C405.309 405.995 407.942 404.679 409.258 405.118Z"/><path fill="#F0D6B7" d="M401.798 318.67C399.385 320.206 397.41 322.181 395.216 323.717C390.169 323.936 387.536 323.278 383.806 320.425C383.806 320.206 384.245 320.206 384.245 319.987C389.511 322.4 396.313 319.109 401.798 318.67Z"/><path fill="#81B0C4" d="M373.713 355.092C375.249 348.729 380.954 345.438 386.22 341.928C391.705 348.729 394.996 357.506 398.507 366.063C389.95 363.43 381.173 359.261 373.713 355.092Z"/><path fill="#231F20" d="M403.773 405.995C403.553 411.261 404.212 419.599 404.431 425.084C407.942 425.084 409.477 424.426 411.891 423.548C412.11 417.185 409.916 411.261 409.258 405.337C407.942 404.679 405.309 405.995 403.773 405.995ZM349.798 376.375C351.992 397.438 355.283 414.991 361.427 433.641C374.811 437.81 391.047 438.029 403.114 434.299C400.92 423.768 401.798 411.042 400.701 399.852C399.823 391.514 400.262 382.957 398.946 374.4C384.245 371.329 363.84 373.742 349.798 376.375ZM402.237 374.4C402.017 383.396 402.676 392.392 403.334 401.388C406.844 400.949 409.039 400.51 412.33 399.852C411.233 391.075 411.452 381.421 409.258 373.742C406.844 373.742 404.65 373.742 402.237 374.4ZM419.79 373.084C418.254 372.645 416.279 373.084 414.743 373.084C415.401 380.324 417.376 388.443 417.815 396.341C420.228 396.341 421.545 395.244 423.739 394.805C423.739 388.004 422.861 378.569 419.79 373.084ZM446.338 397.438C451.385 396.122 454.676 389.978 453.359 383.396C452.482 379.008 450.727 370.89 448.752 368.037C447.435 366.063 443.705 363.21 440.853 365.185C436.026 368.257 427.688 369.134 424.178 372.864C425.933 378.789 426.372 386.687 427.25 394.147C433.174 394.586 440.634 392.392 445.68 394.586C442.17 395.683 437.781 395.683 434.71 397.438C436.684 398.535 442.608 398.316 446.338 397.438ZM398.507 366.063C394.996 357.506 391.705 348.729 386.22 341.928C380.954 345.438 375.249 348.729 373.714 355.092C381.173 359.261 389.95 363.43 398.507 366.063ZM407.283 339.733C406.844 348.29 405.967 359.48 403.773 366.063C409.258 359.261 413.646 351.143 418.034 343.244C416.06 340.172 412.11 337.539 407.283 339.733ZM397.19 336.003C395.216 335.784 393.46 338.417 390.828 337.32C390.169 337.978 389.73 338.636 389.072 339.295C394.996 346.316 397.629 356.409 402.237 364.746C404.65 356.847 404.431 348.071 404.87 339.295C401.359 339.514 399.604 336.442 397.19 336.003ZM390.608 327.446C390.389 329.86 391.047 330.738 391.486 333.371C399.604 336.004 398.068 322.619 390.608 327.446ZM381.832 324.594C378.321 322.619 373.275 320.645 368.886 319.767C363.401 318.67 363.84 327.227 364.059 332.493C364.279 336.442 366.254 340.83 367.351 343.463C367.789 344.78 367.789 346.096 368.886 346.316C370.861 346.755 377.005 344.341 378.76 343.244C382.49 341.269 385.562 337.978 388.633 335.784C388.633 334.687 388.633 333.59 388.853 332.493C386.878 331.615 384.684 330.957 381.832 330.738C383.806 329.86 386.659 329.86 388.414 328.544C388.414 328.105 388.414 327.666 388.414 327.227C385.123 327.227 384.026 325.691 381.832 324.594ZM348.92 318.67C346.068 321.522 356.819 325.472 360.329 325.691C360.329 323.936 361.427 322.181 361.207 320.864C357.258 320.206 351.772 320.645 348.92 318.67ZM384.245 319.987C384.245 320.206 383.806 320.206 383.806 320.425C387.536 323.278 390.169 323.936 395.216 323.717C397.41 322.181 399.385 320.206 401.798 318.67C396.313 319.109 389.511 322.4 384.245 319.987ZM416.499 329.86C416.279 326.569 415.401 319.987 413.427 318.889C409.258 316.476 401.798 323.716 398.726 325.033C399.165 325.911 399.604 326.788 399.604 328.105C401.359 327.666 403.773 327.885 405.309 328.763C403.553 328.982 401.359 328.982 400.043 329.86C399.604 331.176 400.262 332.932 399.823 334.687C404.212 336.003 409.258 336.662 414.963 336.662C416.279 335.126 416.499 332.493 416.499 329.86ZM344.313 321.522C343.435 320.864 337.291 312.965 336.414 313.404C325.443 317.792 315.131 325.252 305.916 332.274C314.692 350.923 318.203 373.961 318.861 396.122C328.954 400.73 337.73 407.531 351.334 408.189C349.798 397 348.262 387.126 347.384 376.594C343.874 375.059 339.047 376.594 335.975 376.156C335.975 372.206 340.802 374.4 341.241 371.987C341.46 370.012 338.608 369.793 339.485 366.721C341.899 367.599 343.215 369.573 346.068 370.451C348.481 365.185 346.068 355.75 346.287 351.143C346.287 350.265 346.726 346.535 348.481 347.193C350.237 347.852 348.481 357.286 348.481 361.455C348.701 365.404 348.043 369.134 349.578 371.548C362.743 369.793 376.127 368.696 390.169 368.257C387.098 366.94 383.368 365.624 379.199 363.43C377.005 362.113 369.984 359.7 369.325 357.506C368.228 354.215 371.958 352.459 372.616 349.607C366.034 353.118 364.718 346.096 363.182 341.05C361.865 336.442 360.988 333.151 360.549 330.518C355.283 327.666 349.14 325.033 344.313 321.522ZM410.574 314.282C419.79 309.894 421.326 330.957 417.815 337.539C418.473 339.514 420.228 340.392 421.106 342.147C416.06 351.362 410.355 359.919 405.089 368.915C409.039 366.502 414.524 368.476 419.131 366.721C420.887 366.063 421.984 362.333 423.3 359.261C426.811 350.923 430.321 340.392 432.077 332.274C432.515 330.518 433.393 326.569 433.174 324.814C432.735 321.961 428.786 319.767 426.811 318.012C423.081 314.721 420.887 311.868 416.937 308.577C415.401 310.771 411.891 312.307 410.574 314.282ZM323.249 233.1C318.861 237.927 319.739 246.923 320.397 253.286C328.296 248.239 338.827 253.725 338.608 262.062C342.338 262.062 339.924 257.455 339.266 254.383C337.072 244.729 342.996 234.197 339.485 225.421C332.903 225.86 327.418 228.712 323.249 233.1ZM354.405 205.235C344.532 208.087 331.806 215.108 327.857 224.104C330.928 223.665 333.123 222.13 336.194 221.91C337.291 221.91 338.827 222.349 340.144 222.13C342.777 221.471 345.19 215.547 347.165 213.134C349.14 210.94 351.553 210.062 353.089 208.087C354.186 207.648 355.722 207.648 355.722 206.113C355.502 205.454 355.064 205.235 354.405 205.235ZM405.747 207.868C395.435 202.163 378.102 197.775 367.351 203.26C358.574 207.648 346.726 214.889 342.557 224.104C346.287 232.881 341.46 240.999 341.021 249.995C340.802 254.822 343.215 258.99 343.435 264.256C342.118 266.45 338.169 266.67 335.536 266.45C334.658 261.843 332.903 256.577 328.296 256.138C321.494 255.48 316.667 260.965 316.447 266.67C316.009 273.472 321.713 284.881 329.612 284.003C332.684 283.784 333.342 280.712 336.853 280.712C338.608 284.223 334 285.539 333.561 287.953C333.342 288.611 334 291.244 334.22 292.56C335.756 298.484 338.827 306.164 342.118 310.771C346.068 316.476 353.967 317.354 362.524 318.012C364.059 314.721 369.545 314.94 373.275 315.818C368.886 314.062 364.937 309.894 361.427 306.164C357.477 301.995 353.747 297.387 353.528 291.683C360.768 301.775 366.912 310.771 380.076 315.159C390.169 318.451 401.798 313.624 409.697 308.138C412.988 305.944 414.743 302.214 417.157 298.923C425.714 286.636 429.663 269.083 428.785 252.189C428.347 245.168 428.347 238.146 426.153 233.539C423.739 228.712 415.401 224.324 410.574 228.712C409.697 223.885 414.524 221.032 420.448 222.788C416.06 217.741 411.672 211.159 405.747 207.868ZM424.836 365.843C432.735 361.894 447.874 355.092 452.701 365.843C454.457 369.793 456.651 376.375 457.748 380.544C459.064 386.248 456.212 398.316 450.288 400.291C445.022 402.046 438.878 401.827 432.735 400.73C432.077 400.071 431.199 398.974 430.541 397.877C426.153 397.658 421.764 398.097 418.254 400.071C418.693 403.362 416.279 404.021 414.304 404.679C412.769 410.822 417.376 418.941 416.279 424.645C415.401 428.595 410.574 429.253 406.844 430.131C406.625 432.325 407.064 434.299 407.283 436.055C406.406 439.126 402.676 440.882 399.165 441.32C387.536 442.637 369.764 443.295 358.574 439.346C355.502 431.666 353.089 422.451 350.456 413.675C339.485 414.772 330.709 409.067 322.371 405.118C319.519 403.801 315.57 403.143 314.473 400.73C313.376 398.535 313.814 394.147 313.595 390.198C312.937 379.886 312.279 370.012 309.646 359.48C308.329 354.873 306.355 350.704 304.819 346.096C303.502 341.928 301.089 336.662 300.43 332.493C299.553 326.349 305.477 325.911 309.207 323.278C314.912 319.109 319.519 316.695 325.882 312.965C327.637 311.868 333.342 309.016 334 307.7C335.317 305.067 331.806 301.556 330.929 299.362C329.393 296.071 328.734 293.438 328.515 290.366C323.249 289.489 319.3 286.417 316.886 282.906C312.937 276.982 310.085 266.231 313.595 258.113C313.814 257.455 315.131 256.138 315.35 255.261C315.789 253.286 314.692 250.653 314.473 248.678C314.034 237.927 316.228 228.712 323.469 225.64C326.321 214.011 336.853 210.062 346.726 204.357C350.456 202.163 354.405 200.847 358.574 199.311C373.714 193.826 396.752 194.923 409.258 204.357C414.524 208.307 423.081 216.864 425.933 223.007C433.832 239.244 433.393 266.231 427.688 285.759C427.03 288.391 425.933 292.341 424.397 295.413C423.3 297.607 420.009 301.995 420.448 303.97C420.887 305.944 427.908 311.43 429.444 312.965C432.296 315.598 437.343 319.109 437.781 322.4C438.22 325.911 436.245 330.738 435.148 334.248C432.077 344.999 428.786 355.531 424.836 365.843Z"/><path fill="#F7E4CD" d="M371.519 286.417C371.958 285.759 374.372 284.881 377.663 286.636C377.663 286.636 373.714 287.294 373.933 293.877L372.178 293.438C372.397 293.657 370.642 287.514 371.519 286.417Z"/><path fill="#1D1919" d="M400.482 343.244C400.482 344.341 399.604 344.999 398.726 344.999C397.629 344.999 396.971 344.122 396.971 343.244C396.971 342.366 397.849 341.489 398.726 341.489C399.604 341.489 400.482 342.147 400.482 343.244Z"/><path fill="#1D1919" d="M402.237 351.582C402.237 352.679 401.359 353.337 400.482 353.337C399.385 353.337 398.726 352.459 398.726 351.582C398.726 350.704 399.604 349.826 400.482 349.826C401.359 349.826 402.237 350.704 402.237 351.582Z"/></svg>