<svg xmlns="http://www.w3.org/2000/svg" width="1200" height="388" fill="none" viewBox="0 0 1200 388"><path fill="#EEE" d="M1200 387H0V-5.22534e-06H1200V387Z"/><mask id="mask0" width="1200" height="387" x="0" y="0" mask-type="alpha" maskUnits="userSpaceOnUse"><path fill="#4FCEB9" d="M1200 387H0V0.000115971H1200V387Z"/></mask><g mask="url(#mask0)"><path fill="#FFB321" d="M879.845 90.5189C940.231 -17.8842 1081.53 -59.179 1195.44 -1.71394C1309.36 55.7511 1352.75 190.214 1292.36 298.618C1231.97 407.024 1090.68 448.317 976.765 390.851C862.853 333.386 819.46 198.923 879.845 90.5189"/><path fill="#383838" d="M855.237 -6.7646C798.199 95.5696 839.334 222.955 946.933 277.201C999.057 303.48 1058.82 308.879 1115.21 292.408C1171.6 275.938 1217.88 239.567 1245.51 189.995C1302.55 87.6608 1261.42 -39.7243 1153.82 -93.9702C1101.69 -120.248 1041.94 -125.65 985.536 -109.179C929.142 -92.7078 882.867 -56.3361 855.237 -6.7646ZM1050.09 308.112C1013.44 308.114 977.113 299.597 943.809 282.806C832.961 226.922 790.583 95.6875 849.343 -9.7363C877.808 -60.8051 925.48 -98.2755 983.577 -115.244C1041.67 -132.213 1103.24 -126.648 1156.94 -99.5761C1267.79 -43.6921 1310.17 87.5415 1251.41 192.965C1222.94 244.034 1175.27 281.506 1117.17 298.474C1095.11 304.917 1072.53 308.111 1050.09 308.112"/></g><path fill="#383838" d="M1125.76 196.076C1127.48 196.076 1128.87 197.465 1128.87 199.173C1128.87 200.883 1127.48 202.272 1125.76 202.272C1124.05 202.272 1122.67 200.883 1122.67 199.173C1122.67 197.465 1124.05 196.076 1125.76 196.076ZM1093.91 196.076C1095.61 196.076 1097 197.465 1097 199.173C1097 200.883 1095.61 202.272 1093.91 202.272C1092.19 202.272 1090.81 200.883 1090.81 199.173C1090.81 197.465 1092.19 196.076 1093.91 196.076ZM1062.04 196.076C1063.75 196.076 1065.14 197.465 1065.14 199.173C1065.14 200.883 1063.75 202.272 1062.04 202.272C1060.33 202.272 1058.95 200.883 1058.95 199.173C1058.95 197.465 1060.33 196.076 1062.04 196.076ZM1030.18 196.076C1031.89 196.076 1033.28 197.465 1033.28 199.173C1033.28 200.883 1031.89 202.272 1030.18 202.272C1028.46 202.272 1027.08 200.883 1027.08 199.173C1027.08 197.465 1028.46 196.076 1030.18 196.076ZM998.317 196.076C1000.03 196.076 1001.42 197.465 1001.42 199.173C1001.42 200.883 1000.03 202.272 998.317 202.272C996.6 202.272 995.22 200.883 995.22 199.173C995.22 197.465 996.6 196.076 998.317 196.076ZM966.455 196.076C968.163 196.076 969.552 197.465 969.552 199.173C969.552 200.883 968.163 202.272 966.455 202.272C964.737 202.272 963.348 200.883 963.348 199.173C963.348 197.465 964.737 196.076 966.455 196.076ZM934.591 196.076C936.3 196.076 937.68 197.465 937.68 199.173C937.68 200.883 936.3 202.272 934.591 202.272C932.873 202.272 931.493 200.883 931.493 199.173C931.493 197.465 932.873 196.076 934.591 196.076ZM902.728 196.076C904.436 196.076 905.825 197.465 905.825 199.173C905.825 200.883 904.436 202.272 902.728 202.272C901.011 202.272 899.621 200.883 899.621 199.173C899.621 197.465 901.011 196.076 902.728 196.076V196.076ZM870.864 196.076C872.573 196.076 873.955 197.465 873.955 199.173C873.955 200.883 872.573 202.272 870.864 202.272C869.147 202.272 867.767 200.883 867.767 199.173C867.767 197.465 869.147 196.076 870.864 196.076ZM839.001 196.076C840.709 196.076 842.099 197.465 842.099 199.173C842.099 200.883 840.709 202.272 839.001 202.272C837.285 202.272 835.904 200.883 835.904 199.173C835.904 197.465 837.285 196.076 839.001 196.076ZM807.139 196.076C808.847 196.076 810.237 197.465 810.237 199.173C810.237 200.883 808.847 202.272 807.139 202.272C805.421 202.272 804.04 200.883 804.04 199.173C804.04 197.465 805.421 196.076 807.139 196.076ZM775.276 196.076C776.983 196.076 778.373 197.465 778.373 199.173C778.373 200.883 776.983 202.272 775.276 202.272C773.559 202.272 772.177 200.883 772.177 199.173C772.177 197.465 773.559 196.076 775.276 196.076ZM743.413 196.076C745.121 196.076 746.511 197.465 746.511 199.173C746.511 200.883 745.121 202.272 743.413 202.272C741.695 202.272 740.315 200.883 740.315 199.173C740.315 197.465 741.695 196.076 743.413 196.076ZM711.54 196.076C713.257 196.076 714.647 197.465 714.647 199.173C714.647 200.883 713.257 202.272 711.54 202.272C709.832 202.272 708.452 200.883 708.452 199.173C708.452 197.465 709.832 196.076 711.54 196.076ZM679.687 196.076C681.395 196.076 682.784 197.465 682.784 199.173C682.784 200.883 681.395 202.272 679.687 202.272C677.969 202.272 676.588 200.883 676.588 199.173C676.588 197.465 677.969 196.076 679.687 196.076ZM647.813 196.076C649.531 196.076 650.92 197.465 650.92 199.173C650.92 200.883 649.531 202.272 647.813 202.272C646.105 202.272 644.725 200.883 644.725 199.173C644.725 197.465 646.105 196.076 647.813 196.076Z"/><path fill="#383838" d="M1125.77 260.299C1127.48 260.299 1128.87 261.688 1128.87 263.396C1128.87 265.112 1127.48 266.495 1125.77 266.495C1124.05 266.495 1122.67 265.112 1122.67 263.396C1122.67 261.688 1124.05 260.299 1125.77 260.299ZM1093.9 260.299C1095.61 260.299 1097 261.688 1097 263.396C1097 265.112 1095.61 266.495 1093.9 266.495C1092.19 266.495 1090.81 265.112 1090.81 263.396C1090.81 261.688 1092.19 260.299 1093.9 260.299ZM1062.04 260.299C1063.75 260.299 1065.14 261.688 1065.14 263.396C1065.14 265.112 1063.75 266.495 1062.04 266.495C1060.33 266.495 1058.95 265.112 1058.95 263.396C1058.95 261.688 1060.33 260.299 1062.04 260.299ZM1030.18 260.299C1031.89 260.299 1033.28 261.688 1033.28 263.396C1033.28 265.112 1031.89 266.495 1030.18 266.495C1028.46 266.495 1027.08 265.112 1027.08 263.396C1027.08 261.688 1028.46 260.299 1030.18 260.299ZM998.317 260.299C1000.03 260.299 1001.41 261.688 1001.41 263.396C1001.41 265.112 1000.03 266.495 998.317 266.495C996.6 266.495 995.22 265.112 995.22 263.396C995.22 261.688 996.6 260.299 998.317 260.299ZM966.455 260.299C968.163 260.299 969.552 261.688 969.552 263.396C969.552 265.112 968.163 266.495 966.455 266.495C964.737 266.495 963.348 265.112 963.348 263.396C963.348 261.688 964.737 260.299 966.455 260.299ZM934.591 260.299C936.3 260.299 937.689 261.688 937.689 263.396C937.689 265.112 936.3 266.495 934.591 266.495C932.873 266.495 931.493 265.112 931.493 263.396C931.493 261.688 932.873 260.299 934.591 260.299ZM902.728 260.299C904.436 260.299 905.825 261.688 905.825 263.396C905.825 265.112 904.436 266.495 902.728 266.495C901.011 266.495 899.631 265.112 899.631 263.396C899.631 261.688 901.011 260.299 902.728 260.299V260.299ZM870.856 260.299C872.573 260.299 873.963 261.688 873.963 263.396C873.963 265.112 872.573 266.495 870.856 266.495C869.147 266.495 867.767 265.112 867.767 263.396C867.767 261.688 869.147 260.299 870.856 260.299ZM839.001 260.299C840.709 260.299 842.099 261.688 842.099 263.396C842.099 265.112 840.709 266.495 839.001 266.495C837.285 266.495 835.904 265.112 835.904 263.396C835.904 261.688 837.285 260.299 839.001 260.299ZM807.139 260.299C808.847 260.299 810.237 261.688 810.237 263.396C810.237 265.112 808.847 266.495 807.139 266.495C805.421 266.495 804.04 265.112 804.04 263.396C804.04 261.688 805.421 260.299 807.139 260.299ZM775.276 260.299C776.983 260.299 778.364 261.688 778.364 263.396C778.364 265.112 776.983 266.495 775.276 266.495C773.559 266.495 772.177 265.112 772.177 263.396C772.177 261.688 773.559 260.299 775.276 260.299ZM743.413 260.299C745.121 260.299 746.511 261.688 746.511 263.396C746.511 265.112 745.121 266.495 743.413 266.495C741.695 266.495 740.305 265.112 740.305 263.396C740.305 261.688 741.695 260.299 743.413 260.299ZM711.549 260.299C713.257 260.299 714.647 261.688 714.647 263.396C714.647 265.112 713.257 266.495 711.549 266.495C709.832 266.495 708.452 265.112 708.452 263.396C708.452 261.688 709.832 260.299 711.549 260.299ZM679.687 260.299C681.395 260.299 682.784 261.688 682.784 263.396C682.784 265.112 681.395 266.495 679.687 266.495C677.969 266.495 676.588 265.112 676.588 263.396C676.588 261.688 677.969 260.299 679.687 260.299ZM647.813 260.299C649.531 260.299 650.92 261.688 650.92 263.396C650.92 265.112 649.531 266.495 647.813 266.495C646.105 266.495 644.725 265.112 644.725 263.396C644.725 261.688 646.105 260.299 647.813 260.299Z"/><path fill="#383838" d="M1125.77 324.529C1127.48 324.529 1128.87 325.909 1128.87 327.627C1128.87 329.335 1127.48 330.724 1125.77 330.724C1124.05 330.724 1122.67 329.335 1122.67 327.627C1122.67 325.909 1124.05 324.529 1125.77 324.529ZM1093.91 324.529C1095.61 324.529 1097 325.909 1097 327.627C1097 329.335 1095.61 330.724 1093.91 330.724C1092.19 330.724 1090.81 329.335 1090.81 327.627C1090.81 325.909 1092.19 324.529 1093.91 324.529ZM1062.04 324.529C1063.75 324.529 1065.14 325.909 1065.14 327.627C1065.14 329.335 1063.75 330.724 1062.04 330.724C1060.33 330.724 1058.95 329.335 1058.95 327.627C1058.95 325.909 1060.33 324.529 1062.04 324.529ZM1030.18 324.529C1031.89 324.529 1033.28 325.909 1033.28 327.627C1033.28 329.335 1031.89 330.724 1030.18 330.724C1028.46 330.724 1027.08 329.335 1027.08 327.627C1027.08 325.909 1028.46 324.529 1030.18 324.529ZM998.317 324.529C1000.03 324.529 1001.42 325.909 1001.42 327.627C1001.42 329.335 1000.03 330.724 998.317 330.724C996.6 330.724 995.22 329.335 995.22 327.627C995.22 325.909 996.6 324.529 998.317 324.529ZM966.455 324.529C968.163 324.529 969.552 325.909 969.552 327.627C969.552 329.335 968.163 330.724 966.455 330.724C964.737 330.724 963.357 329.335 963.357 327.627C963.357 325.909 964.737 324.529 966.455 324.529ZM934.591 324.529C936.3 324.529 937.68 325.909 937.68 327.627C937.68 329.335 936.3 330.724 934.591 330.724C932.873 330.724 931.493 329.335 931.493 327.627C931.493 325.909 932.873 324.529 934.591 324.529ZM902.719 324.529C904.436 324.529 905.825 325.909 905.825 327.627C905.825 329.335 904.436 330.724 902.719 330.724C901.011 330.724 899.631 329.335 899.631 327.627C899.631 325.909 901.011 324.529 902.719 324.529ZM870.864 324.529C872.573 324.529 873.963 325.909 873.963 327.627C873.963 329.335 872.573 330.724 870.864 330.724C869.147 330.724 867.767 329.335 867.767 327.627C867.767 325.909 869.147 324.529 870.864 324.529ZM839.001 324.529C840.709 324.529 842.099 325.909 842.099 327.627C842.099 329.335 840.709 330.724 839.001 330.724C837.285 330.724 835.895 329.335 835.895 327.627C835.895 325.909 837.285 324.529 839.001 324.529ZM807.139 324.529C808.847 324.529 810.237 325.909 810.237 327.627C810.237 329.335 808.847 330.724 807.139 330.724C805.421 330.724 804.04 329.335 804.04 327.627C804.04 325.909 805.421 324.529 807.139 324.529ZM775.276 324.529C776.983 324.529 778.373 325.909 778.373 327.627C778.373 329.335 776.983 330.724 775.276 330.724C773.559 330.724 772.177 329.335 772.177 327.627C772.177 325.909 773.559 324.529 775.276 324.529ZM743.413 324.529C745.121 324.529 746.511 325.909 746.511 327.627C746.511 329.335 745.121 330.724 743.413 330.724C741.695 330.724 740.315 329.335 740.315 327.627C740.315 325.909 741.695 324.529 743.413 324.529ZM711.549 324.529C713.257 324.529 714.647 325.909 714.647 327.627C714.647 329.335 713.257 330.724 711.549 330.724C709.832 330.724 708.452 329.335 708.452 327.627C708.452 325.909 709.832 324.529 711.549 324.529ZM679.687 324.529C681.395 324.529 682.784 325.909 682.784 327.627C682.784 329.335 681.395 330.724 679.687 330.724C677.969 330.724 676.588 329.335 676.588 327.627C676.588 325.909 677.969 324.529 679.687 324.529ZM647.823 324.529C649.531 324.529 650.912 325.909 650.912 327.627C650.912 329.335 649.531 330.724 647.823 330.724C646.105 330.724 644.725 329.335 644.725 327.627C644.725 325.909 646.105 324.529 647.823 324.529Z"/><path fill="#2F80ED" d="M38 78.9679C38 60.3226 53.116 45.2066 71.7627 45.2066C90.408 45.2066 105.525 60.3226 105.525 78.9679C105.525 97.6146 90.408 112.731 71.7627 112.731C53.116 112.731 38 97.6146 38 78.9679Z"/><path fill="#383838" d="M84.5454 34.6733C66.6654 34.6733 52.1187 49.2187 52.1187 67.1C52.1187 84.9787 66.6654 99.5254 84.5454 99.5254C102.425 99.5254 116.971 84.9787 116.971 67.1C116.971 49.2187 102.425 34.6733 84.5454 34.6733ZM84.5454 102.199C65.1907 102.199 49.4467 86.452 49.4467 67.1C49.4467 47.7454 65.1907 32 84.5454 32C103.897 32 119.644 47.7454 119.644 67.1C119.644 86.452 103.897 102.199 84.5454 102.199Z"/><path fill="#FF6855" d="M488.832 367H38V387.125H488.832V367Z"/><path fill="#383838" d="M166.992 206.672C164.005 206.672 161.523 206.112 159.544 204.992C157.565 203.872 155.904 202.136 154.56 199.784L161.056 194.912C161.691 196.107 162.419 196.984 163.24 197.544C164.061 198.104 164.864 198.384 165.648 198.384C166.283 198.384 166.843 198.309 167.328 198.16C167.851 197.973 168.28 197.656 168.616 197.208C168.952 196.76 169.213 196.163 169.4 195.416C169.587 194.669 169.68 193.717 169.68 192.56V169.6H179.312V193.344C179.312 195.173 179.051 196.891 178.528 198.496C178.043 200.101 177.296 201.52 176.288 202.752C175.28 203.947 173.992 204.899 172.424 205.608C170.893 206.317 169.083 206.672 166.992 206.672ZM199.334 206.672C197.28 206.672 195.376 206.355 193.622 205.72C191.867 205.048 190.336 204.096 189.03 202.864C187.76 201.595 186.752 200.045 186.006 198.216C185.259 196.387 184.886 194.315 184.886 192C184.886 189.723 185.259 187.688 186.006 185.896C186.79 184.067 187.798 182.517 189.03 181.248C190.299 179.979 191.736 179.008 193.342 178.336C194.947 177.664 196.608 177.328 198.326 177.328C200.379 177.328 202.171 177.683 203.702 178.392C205.232 179.101 206.502 180.072 207.51 181.304C208.518 182.536 209.264 183.973 209.75 185.616C210.272 187.259 210.534 189.013 210.534 190.88C210.534 191.739 210.478 192.541 210.366 193.288C210.291 194.035 210.216 194.576 210.142 194.912H194.182C194.63 196.592 195.432 197.768 196.59 198.44C197.747 199.075 199.11 199.392 200.678 199.392C201.648 199.392 202.582 199.261 203.478 199C204.411 198.701 205.382 198.272 206.39 197.712L209.526 203.424C207.995 204.507 206.296 205.328 204.43 205.888C202.6 206.411 200.902 206.672 199.334 206.672ZM194.07 188.64H202.358C202.358 187.557 202.078 186.624 201.518 185.84C200.995 185.019 200.006 184.608 198.55 184.608C197.467 184.608 196.515 184.925 195.694 185.56C194.91 186.195 194.368 187.221 194.07 188.64ZM226.807 206.672C224.978 206.672 223.41 206.411 222.103 205.888C220.834 205.328 219.77 204.544 218.911 203.536C218.09 202.528 217.474 201.333 217.063 199.952C216.69 198.533 216.503 196.965 216.503 195.248V185.504H212.807V178.336L217.063 178L218.183 170.72H226.135V178H232.519V185.504H226.135V195.08C226.135 196.648 226.471 197.731 227.143 198.328C227.815 198.888 228.599 199.168 229.495 199.168C229.943 199.168 230.373 199.131 230.783 199.056C231.231 198.944 231.623 198.832 231.959 198.72L233.415 205.664C232.669 205.888 231.773 206.112 230.727 206.336C229.682 206.56 228.375 206.672 226.807 206.672ZM237.693 215.856V178H245.533L246.205 180.576H246.429C247.475 179.605 248.651 178.821 249.957 178.224C251.264 177.627 252.627 177.328 254.045 177.328C255.688 177.328 257.181 177.664 258.525 178.336C259.869 179.008 261.008 179.96 261.941 181.192C262.912 182.424 263.64 183.917 264.125 185.672C264.648 187.427 264.909 189.387 264.909 191.552C264.909 193.979 264.573 196.125 263.901 197.992C263.267 199.859 262.408 201.445 261.325 202.752C260.243 204.021 258.992 204.992 257.573 205.664C256.192 206.336 254.755 206.672 253.261 206.672C250.947 206.672 248.856 205.739 246.989 203.872L247.325 208.128V215.856H237.693ZM250.909 198.832C252.029 198.832 253 198.309 253.821 197.264C254.643 196.219 255.053 194.352 255.053 191.664C255.053 189.349 254.717 187.688 254.045 186.68C253.411 185.672 252.44 185.168 251.133 185.168C250.387 185.168 249.715 185.317 249.117 185.616C248.557 185.915 247.96 186.437 247.325 187.184V197.488C247.885 198.011 248.464 198.365 249.061 198.552C249.659 198.739 250.275 198.832 250.909 198.832ZM276.911 206.672C275.604 206.672 274.428 206.448 273.383 206C272.337 205.515 271.441 204.88 270.695 204.096C269.985 203.312 269.444 202.397 269.071 201.352C268.697 200.307 268.511 199.205 268.511 198.048C268.511 195.136 269.705 192.859 272.095 191.216C274.484 189.536 278.367 188.416 283.743 187.856C283.519 185.915 282.212 184.944 279.823 184.944C278.815 184.944 277.751 185.149 276.631 185.56C275.511 185.933 274.223 186.512 272.767 187.296L269.407 181.024C271.385 179.829 273.383 178.915 275.399 178.28C277.415 177.645 279.524 177.328 281.727 177.328C285.348 177.328 288.185 178.373 290.239 180.464C292.329 182.517 293.375 185.84 293.375 190.432V206H285.535L284.863 203.312H284.639C283.519 204.32 282.324 205.141 281.055 205.776C279.823 206.373 278.441 206.672 276.911 206.672ZM280.271 199.28C281.055 199.28 281.689 199.112 282.175 198.776C282.697 198.403 283.22 197.936 283.743 197.376V193.568C281.428 193.904 279.841 194.408 278.983 195.08C278.124 195.752 277.695 196.48 277.695 197.264C277.695 198.608 278.553 199.28 280.271 199.28ZM312.31 206.672C310.332 206.672 308.484 206.355 306.766 205.72C305.049 205.048 303.556 204.096 302.286 202.864C301.017 201.595 300.009 200.045 299.262 198.216C298.553 196.387 298.198 194.315 298.198 192C298.198 189.685 298.609 187.613 299.43 185.784C300.252 183.955 301.353 182.424 302.734 181.192C304.116 179.923 305.702 178.971 307.494 178.336C309.324 177.664 311.228 177.328 313.206 177.328C314.886 177.328 316.398 177.589 317.742 178.112C319.086 178.635 320.3 179.344 321.382 180.24L316.902 186.4C316.268 185.877 315.708 185.523 315.222 185.336C314.774 185.149 314.289 185.056 313.766 185.056C311.974 185.056 310.574 185.691 309.566 186.96C308.558 188.192 308.054 189.872 308.054 192C308.054 194.128 308.558 195.827 309.566 197.096C310.612 198.328 311.9 198.944 313.43 198.944C314.214 198.944 314.98 198.776 315.726 198.44C316.51 198.104 317.238 197.675 317.91 197.152L321.606 203.424C320.188 204.656 318.638 205.515 316.958 206C315.316 206.448 313.766 206.672 312.31 206.672ZM326.068 206V167.024H335.476V187.744H335.7L343.428 178H353.844L343.876 189.648L354.404 206H343.988L338.388 196.032L335.476 199.28V206H326.068ZM385.683 206.672C383.369 206.672 381.147 206.299 379.019 205.552C376.929 204.768 375.081 203.611 373.475 202.08C371.907 200.512 370.657 198.571 369.723 196.256C368.79 193.904 368.323 191.179 368.323 188.08C368.323 185.019 368.809 182.312 369.779 179.96C370.75 177.571 372.038 175.573 373.643 173.968C375.286 172.325 377.153 171.075 379.243 170.216C381.371 169.357 383.593 168.928 385.907 168.928C388.334 168.928 390.499 169.413 392.403 170.384C394.307 171.317 395.913 172.437 397.219 173.744L392.179 179.904C391.283 179.12 390.35 178.485 389.379 178C388.446 177.477 387.363 177.216 386.131 177.216C385.049 177.216 384.022 177.459 383.051 177.944C382.118 178.429 381.278 179.12 380.531 180.016C379.822 180.912 379.243 182.013 378.795 183.32C378.385 184.627 378.179 186.101 378.179 187.744C378.179 191.179 378.889 193.811 380.307 195.64C381.763 197.469 383.667 198.384 386.019 198.384C387.438 198.384 388.689 198.085 389.771 197.488C390.891 196.853 391.843 196.107 392.627 195.248L397.667 201.296C396.099 203.088 394.289 204.432 392.235 205.328C390.219 206.224 388.035 206.672 385.683 206.672ZM414.352 206.672C412.56 206.672 410.824 206.355 409.144 205.72C407.464 205.048 405.971 204.096 404.664 202.864C403.395 201.595 402.368 200.045 401.584 198.216C400.837 196.387 400.464 194.315 400.464 192C400.464 189.685 400.837 187.613 401.584 185.784C402.368 183.955 403.395 182.424 404.664 181.192C405.971 179.923 407.464 178.971 409.144 178.336C410.824 177.664 412.56 177.328 414.352 177.328C416.144 177.328 417.861 177.664 419.504 178.336C421.184 178.971 422.659 179.923 423.928 181.192C425.235 182.424 426.28 183.955 427.064 185.784C427.848 187.613 428.24 189.685 428.24 192C428.24 194.315 427.848 196.387 427.064 198.216C426.28 200.045 425.235 201.595 423.928 202.864C422.659 204.096 421.184 205.048 419.504 205.72C417.861 206.355 416.144 206.672 414.352 206.672ZM414.352 198.944C415.808 198.944 416.835 198.328 417.432 197.096C418.067 195.827 418.384 194.128 418.384 192C418.384 189.872 418.067 188.192 417.432 186.96C416.835 185.691 415.808 185.056 414.352 185.056C412.896 185.056 411.851 185.691 411.216 186.96C410.619 188.192 410.32 189.872 410.32 192C410.32 194.128 410.619 195.827 411.216 197.096C411.851 198.328 412.896 198.944 414.352 198.944ZM433.256 206V178H441.096L441.768 181.416H441.992C443.112 180.333 444.306 179.381 445.576 178.56C446.882 177.739 448.488 177.328 450.392 177.328C452.296 177.328 453.864 177.72 455.096 178.504C456.365 179.251 457.373 180.352 458.12 181.808C459.277 180.613 460.528 179.568 461.872 178.672C463.216 177.776 464.84 177.328 466.744 177.328C469.805 177.328 472.045 178.373 473.464 180.464C474.882 182.517 475.592 185.28 475.592 188.752V206H465.96V189.984C465.96 188.192 465.736 186.997 465.288 186.4C464.84 185.803 464.13 185.504 463.16 185.504C461.965 185.504 460.658 186.213 459.24 187.632V206H449.608V189.984C449.608 188.192 449.384 186.997 448.936 186.4C448.488 185.803 447.778 185.504 446.808 185.504C445.613 185.504 444.306 186.213 442.888 187.632V206H433.256ZM481.873 215.856V178H489.713L490.385 180.576H490.609C491.654 179.605 492.83 178.821 494.137 178.224C495.444 177.627 496.806 177.328 498.225 177.328C499.868 177.328 501.361 177.664 502.705 178.336C504.049 179.008 505.188 179.96 506.121 181.192C507.092 182.424 507.82 183.917 508.305 185.672C508.828 187.427 509.089 189.387 509.089 191.552C509.089 193.979 508.753 196.125 508.081 197.992C507.446 199.859 506.588 201.445 505.505 202.752C504.422 204.021 503.172 204.992 501.753 205.664C500.372 206.336 498.934 206.672 497.441 206.672C495.126 206.672 493.036 205.739 491.169 203.872L491.505 208.128V215.856H481.873ZM495.089 198.832C496.209 198.832 497.18 198.309 498.001 197.264C498.822 196.219 499.233 194.352 499.233 191.664C499.233 189.349 498.897 187.688 498.225 186.68C497.59 185.672 496.62 185.168 495.313 185.168C494.566 185.168 493.894 185.317 493.297 185.616C492.737 185.915 492.14 186.437 491.505 187.184V197.488C492.065 198.011 492.644 198.365 493.241 198.552C493.838 198.739 494.454 198.832 495.089 198.832ZM526.789 206.672C524.997 206.672 523.261 206.355 521.581 205.72C519.901 205.048 518.408 204.096 517.101 202.864C515.832 201.595 514.805 200.045 514.021 198.216C513.275 196.387 512.901 194.315 512.901 192C512.901 189.685 513.275 187.613 514.021 185.784C514.805 183.955 515.832 182.424 517.101 181.192C518.408 179.923 519.901 178.971 521.581 178.336C523.261 177.664 524.997 177.328 526.789 177.328C528.581 177.328 530.299 177.664 531.941 178.336C533.621 178.971 535.096 179.923 536.365 181.192C537.672 182.424 538.717 183.955 539.501 185.784C540.285 187.613 540.677 189.685 540.677 192C540.677 194.315 540.285 196.387 539.501 198.216C538.717 200.045 537.672 201.595 536.365 202.864C535.096 204.096 533.621 205.048 531.941 205.72C530.299 206.355 528.581 206.672 526.789 206.672ZM526.789 198.944C528.245 198.944 529.272 198.328 529.869 197.096C530.504 195.827 530.821 194.128 530.821 192C530.821 189.872 530.504 188.192 529.869 186.96C529.272 185.691 528.245 185.056 526.789 185.056C525.333 185.056 524.288 185.691 523.653 186.96C523.056 188.192 522.757 189.872 522.757 192C522.757 194.128 523.056 195.827 523.653 197.096C524.288 198.328 525.333 198.944 526.789 198.944ZM553.989 206.672C552.197 206.672 550.293 206.317 548.277 205.608C546.299 204.899 544.581 203.947 543.125 202.752L547.381 196.816C549.92 198.683 552.197 199.616 554.213 199.616C555.221 199.616 555.931 199.485 556.341 199.224C556.789 198.925 557.013 198.496 557.013 197.936C557.013 197.563 556.864 197.245 556.565 196.984C556.267 196.685 555.856 196.424 555.333 196.2C554.848 195.939 554.288 195.696 553.653 195.472C553.019 195.248 552.347 194.987 551.637 194.688C550.816 194.352 549.976 193.96 549.117 193.512C548.296 193.027 547.549 192.448 546.877 191.776C546.205 191.104 545.645 190.339 545.197 189.48C544.787 188.584 544.581 187.557 544.581 186.4C544.581 185.019 544.843 183.768 545.365 182.648C545.925 181.528 546.691 180.576 547.661 179.792C548.632 179.008 549.789 178.411 551.133 178C552.515 177.552 554.027 177.328 555.669 177.328C557.984 177.328 559.963 177.72 561.605 178.504C563.285 179.251 564.741 180.091 565.973 181.024L561.717 186.736C560.709 185.989 559.72 185.411 558.749 185C557.779 184.589 556.864 184.384 556.005 184.384C554.363 184.384 553.541 184.907 553.541 185.952C553.541 186.325 553.672 186.643 553.933 186.904C554.232 187.165 554.624 187.408 555.109 187.632C555.595 187.856 556.155 188.08 556.789 188.304C557.424 188.491 558.096 188.715 558.805 188.976C559.627 189.275 560.467 189.648 561.325 190.096C562.184 190.544 562.949 191.104 563.621 191.776C564.331 192.411 564.891 193.195 565.301 194.128C565.749 195.024 565.973 196.107 565.973 197.376C565.973 198.683 565.712 199.915 565.189 201.072C564.667 202.192 563.901 203.181 562.893 204.04C561.885 204.861 560.635 205.515 559.141 206C557.648 206.448 555.931 206.672 553.989 206.672ZM583.678 206.672C581.624 206.672 579.72 206.355 577.966 205.72C576.211 205.048 574.68 204.096 573.374 202.864C572.104 201.595 571.096 200.045 570.35 198.216C569.603 196.387 569.23 194.315 569.23 192C569.23 189.723 569.603 187.688 570.35 185.896C571.134 184.067 572.142 182.517 573.374 181.248C574.643 179.979 576.08 179.008 577.686 178.336C579.291 177.664 580.952 177.328 582.67 177.328C584.723 177.328 586.515 177.683 588.046 178.392C589.576 179.101 590.846 180.072 591.854 181.304C592.862 182.536 593.608 183.973 594.094 185.616C594.616 187.259 594.878 189.013 594.878 190.88C594.878 191.739 594.822 192.541 594.71 193.288C594.635 194.035 594.56 194.576 594.486 194.912H578.526C578.974 196.592 579.776 197.768 580.934 198.44C582.091 199.075 583.454 199.392 585.022 199.392C585.992 199.392 586.926 199.261 587.822 199C588.755 198.701 589.726 198.272 590.734 197.712L593.87 203.424C592.339 204.507 590.64 205.328 588.774 205.888C586.944 206.411 585.246 206.672 583.678 206.672ZM578.414 188.64H586.702C586.702 187.557 586.422 186.624 585.862 185.84C585.339 185.019 584.35 184.608 582.894 184.608C581.811 184.608 580.859 184.925 580.038 185.56C579.254 186.195 578.712 187.221 578.414 188.64Z"/><path fill="#383838" d="M156.88 251V230.008H163.44C164.507 230.008 165.488 230.115 166.384 230.328C167.301 230.52 168.08 230.851 168.72 231.32C169.381 231.789 169.893 232.397 170.256 233.144C170.619 233.891 170.8 234.808 170.8 235.896C170.8 237.539 170.373 238.851 169.52 239.832C168.667 240.813 167.515 241.485 166.064 241.848L171.408 251H168.4L163.344 242.136H159.536V251H156.88ZM159.536 239.96H163.056C164.699 239.96 165.957 239.629 166.832 238.968C167.707 238.285 168.144 237.261 168.144 235.896C168.144 234.509 167.707 233.539 166.832 232.984C165.957 232.429 164.699 232.152 163.056 232.152H159.536V239.96ZM180.578 251.384C179.618 251.384 178.701 251.203 177.826 250.84C176.973 250.477 176.216 249.955 175.554 249.272C174.893 248.568 174.36 247.715 173.954 246.712C173.57 245.688 173.378 244.536 173.378 243.256C173.378 241.955 173.57 240.803 173.954 239.8C174.36 238.776 174.893 237.912 175.554 237.208C176.216 236.504 176.973 235.971 177.826 235.608C178.701 235.245 179.618 235.064 180.578 235.064C181.538 235.064 182.445 235.245 183.298 235.608C184.173 235.971 184.941 236.504 185.602 237.208C186.264 237.912 186.786 238.776 187.17 239.8C187.576 240.803 187.778 241.955 187.778 243.256C187.778 244.536 187.576 245.688 187.17 246.712C186.786 247.715 186.264 248.568 185.602 249.272C184.941 249.955 184.173 250.477 183.298 250.84C182.445 251.203 181.538 251.384 180.578 251.384ZM180.578 249.208C181.24 249.208 181.848 249.069 182.402 248.792C182.957 248.493 183.426 248.088 183.81 247.576C184.216 247.043 184.525 246.413 184.738 245.688C184.952 244.963 185.058 244.152 185.058 243.256C185.058 242.36 184.952 241.549 184.738 240.824C184.525 240.077 184.216 239.437 183.81 238.904C183.426 238.371 182.957 237.965 182.402 237.688C181.848 237.389 181.24 237.24 180.578 237.24C179.917 237.24 179.309 237.389 178.754 237.688C178.2 237.965 177.72 238.371 177.314 238.904C176.93 239.437 176.632 240.077 176.418 240.824C176.205 241.549 176.098 242.36 176.098 243.256C176.098 244.152 176.205 244.963 176.418 245.688C176.632 246.413 176.93 247.043 177.314 247.576C177.72 248.088 178.2 248.493 178.754 248.792C179.309 249.069 179.917 249.208 180.578 249.208ZM194.213 251L189.893 235.448H192.581L194.885 244.44C195.056 245.187 195.216 245.912 195.365 246.616C195.514 247.32 195.664 248.035 195.813 248.76H195.941C196.112 248.035 196.282 247.32 196.453 246.616C196.624 245.891 196.805 245.165 196.997 244.44L199.397 235.448H201.957L204.389 244.44C204.581 245.187 204.762 245.912 204.933 246.616C205.125 247.32 205.306 248.035 205.477 248.76H205.605C205.776 248.035 205.936 247.32 206.085 246.616C206.234 245.912 206.394 245.187 206.565 244.44L208.837 235.448H211.333L207.173 251H203.973L201.733 242.648C201.541 241.901 201.36 241.165 201.189 240.44C201.04 239.715 200.869 238.957 200.677 238.168H200.549C200.378 238.957 200.208 239.725 200.037 240.472C199.866 241.197 199.674 241.933 199.461 242.68L197.285 251H194.213ZM225.924 251.384C224.964 251.384 224.089 251.245 223.3 250.968C222.532 250.669 221.86 250.264 221.284 249.752C220.729 249.24 220.292 248.632 219.972 247.928C219.673 247.203 219.524 246.413 219.524 245.56C219.524 244.856 219.631 244.216 219.844 243.64C220.079 243.064 220.388 242.531 220.772 242.04C221.156 241.549 221.593 241.101 222.084 240.696C222.596 240.269 223.119 239.875 223.652 239.512C223.225 238.637 222.884 237.795 222.628 236.984C222.393 236.152 222.276 235.352 222.276 234.584C222.276 233.88 222.393 233.229 222.628 232.632C222.863 232.035 223.193 231.512 223.62 231.064C224.047 230.616 224.559 230.264 225.156 230.008C225.753 229.752 226.415 229.624 227.14 229.624C228.441 229.624 229.455 230.008 230.18 230.776C230.905 231.544 231.268 232.547 231.268 233.784C231.268 234.467 231.129 235.096 230.852 235.672C230.575 236.248 230.212 236.792 229.764 237.304C229.316 237.795 228.804 238.264 228.228 238.712C227.673 239.139 227.108 239.565 226.532 239.992C227.215 241.08 228.015 242.125 228.932 243.128C229.871 244.131 230.841 245.048 231.844 245.88C232.484 245.005 233.049 244.056 233.54 243.032C234.052 242.008 234.468 240.888 234.788 239.672H237.252C236.825 241.059 236.313 242.381 235.716 243.64C235.119 244.899 234.404 246.083 233.572 247.192C234.297 247.683 234.991 248.099 235.652 248.44C236.313 248.781 236.932 249.037 237.508 249.208L236.804 251.384C236.057 251.171 235.279 250.872 234.468 250.488C233.657 250.083 232.825 249.581 231.972 248.984C231.161 249.709 230.255 250.296 229.252 250.744C228.271 251.171 227.161 251.384 225.924 251.384ZM224.548 234.552C224.548 235.128 224.633 235.725 224.804 236.344C224.996 236.963 225.241 237.592 225.54 238.232C226.009 237.912 226.457 237.592 226.884 237.272C227.332 236.931 227.716 236.589 228.036 236.248C228.377 235.885 228.644 235.512 228.836 235.128C229.028 234.723 229.124 234.285 229.124 233.816C229.124 233.197 228.964 232.664 228.644 232.216C228.345 231.747 227.844 231.512 227.14 231.512C226.351 231.512 225.721 231.8 225.252 232.376C224.783 232.952 224.548 233.677 224.548 234.552ZM226.212 249.272C226.937 249.272 227.631 249.123 228.292 248.824C228.953 248.525 229.593 248.109 230.212 247.576C229.188 246.68 228.196 245.709 227.236 244.664C226.297 243.597 225.455 242.488 224.708 241.336C223.961 241.933 223.332 242.563 222.82 243.224C222.329 243.864 222.084 244.589 222.084 245.4C222.084 245.976 222.191 246.509 222.404 247C222.617 247.469 222.905 247.875 223.268 248.216C223.652 248.557 224.089 248.824 224.58 249.016C225.092 249.187 225.636 249.272 226.212 249.272ZM255.222 251.384C253.9 251.384 252.684 251.139 251.574 250.648C250.465 250.157 249.494 249.453 248.662 248.536C247.852 247.597 247.212 246.456 246.742 245.112C246.294 243.747 246.07 242.211 246.07 240.504C246.07 238.819 246.305 237.304 246.774 235.96C247.244 234.616 247.894 233.475 248.726 232.536C249.558 231.597 250.54 230.883 251.67 230.392C252.801 229.88 254.038 229.624 255.382 229.624C256.662 229.624 257.782 229.891 258.742 230.424C259.724 230.936 260.524 231.533 261.142 232.216L259.702 233.944C259.148 233.347 258.518 232.867 257.814 232.504C257.11 232.141 256.31 231.96 255.414 231.96C254.412 231.96 253.505 232.163 252.694 232.568C251.884 232.952 251.19 233.517 250.614 234.264C250.038 234.989 249.59 235.875 249.27 236.92C248.972 237.965 248.822 239.139 248.822 240.44C248.822 241.763 248.972 242.957 249.27 244.024C249.59 245.069 250.028 245.965 250.582 246.712C251.137 247.459 251.809 248.035 252.598 248.44C253.409 248.845 254.316 249.048 255.318 249.048C256.342 249.048 257.238 248.845 258.006 248.44C258.774 248.013 259.5 247.427 260.182 246.68L261.654 248.344C260.822 249.304 259.884 250.051 258.838 250.584C257.793 251.117 256.588 251.384 255.222 251.384ZM271.36 251.384C270.4 251.384 269.482 251.203 268.608 250.84C267.754 250.477 266.997 249.955 266.336 249.272C265.674 248.568 265.141 247.715 264.736 246.712C264.352 245.688 264.16 244.536 264.16 243.256C264.16 241.955 264.352 240.803 264.736 239.8C265.141 238.776 265.674 237.912 266.336 237.208C266.997 236.504 267.754 235.971 268.608 235.608C269.482 235.245 270.4 235.064 271.36 235.064C272.32 235.064 273.226 235.245 274.08 235.608C274.954 235.971 275.722 236.504 276.384 237.208C277.045 237.912 277.568 238.776 277.952 239.8C278.357 240.803 278.56 241.955 278.56 243.256C278.56 244.536 278.357 245.688 277.952 246.712C277.568 247.715 277.045 248.568 276.384 249.272C275.722 249.955 274.954 250.477 274.08 250.84C273.226 251.203 272.32 251.384 271.36 251.384ZM271.36 249.208C272.021 249.208 272.629 249.069 273.184 248.792C273.738 248.493 274.208 248.088 274.592 247.576C274.997 247.043 275.306 246.413 275.52 245.688C275.733 244.963 275.84 244.152 275.84 243.256C275.84 242.36 275.733 241.549 275.52 240.824C275.306 240.077 274.997 239.437 274.592 238.904C274.208 238.371 273.738 237.965 273.184 237.688C272.629 237.389 272.021 237.24 271.36 237.24C270.698 237.24 270.09 237.389 269.536 237.688C268.981 237.965 268.501 238.371 268.096 238.904C267.712 239.437 267.413 240.077 267.2 240.824C266.986 241.549 266.88 242.36 266.88 243.256C266.88 244.152 266.986 244.963 267.2 245.688C267.413 246.413 267.712 247.043 268.096 247.576C268.501 248.088 268.981 248.493 269.536 248.792C270.09 249.069 270.698 249.208 271.36 249.208ZM285.439 251.384C284.437 251.384 283.722 251.085 283.295 250.488C282.869 249.891 282.655 249.016 282.655 247.864V228.216H285.279V248.056C285.279 248.483 285.354 248.781 285.503 248.952C285.653 249.123 285.823 249.208 286.015 249.208C286.101 249.208 286.175 249.208 286.239 249.208C286.325 249.208 286.442 249.187 286.591 249.144L286.943 251.128C286.773 251.213 286.57 251.277 286.335 251.32C286.101 251.363 285.802 251.384 285.439 251.384ZM295.356 251.384C293.692 251.384 292.476 250.872 291.708 249.848C290.961 248.824 290.588 247.309 290.588 245.304V235.448H293.244V244.952C293.244 246.424 293.468 247.491 293.916 248.152C294.385 248.792 295.132 249.112 296.156 249.112C296.966 249.112 297.681 248.909 298.3 248.504C298.918 248.077 299.601 247.405 300.348 246.488V235.448H302.972V251H300.796L300.572 248.568H300.476C299.75 249.421 298.982 250.104 298.172 250.616C297.382 251.128 296.444 251.384 295.356 251.384ZM308.218 251V235.448H310.394L310.618 237.688H310.714C311.396 236.941 312.132 236.323 312.922 235.832C313.732 235.32 314.607 235.064 315.546 235.064C316.74 235.064 317.668 235.331 318.33 235.864C319.012 236.376 319.514 237.101 319.834 238.04C320.644 237.144 321.455 236.429 322.266 235.896C323.098 235.341 323.994 235.064 324.954 235.064C326.554 235.064 327.738 235.576 328.506 236.6C329.295 237.624 329.69 239.139 329.69 241.144V251H327.066V241.496C327.066 240.024 326.831 238.968 326.362 238.328C325.892 237.667 325.167 237.336 324.186 237.336C323.012 237.336 321.711 238.136 320.282 239.736V251H317.658V241.496C317.658 240.024 317.423 238.968 316.954 238.328C316.484 237.667 315.748 237.336 314.746 237.336C313.572 237.336 312.271 238.136 310.842 239.736V251H308.218ZM334.749 251V235.448H336.925L337.149 237.688H337.245C337.992 236.941 338.77 236.323 339.581 235.832C340.413 235.32 341.373 235.064 342.461 235.064C344.104 235.064 345.298 235.576 346.045 236.6C346.813 237.624 347.197 239.139 347.197 241.144V251H344.573V241.496C344.573 240.024 344.338 238.968 343.869 238.328C343.4 237.667 342.653 237.336 341.629 237.336C340.818 237.336 340.104 237.539 339.485 237.944C338.866 238.349 338.162 238.947 337.373 239.736V251H334.749Z"/></svg>