<svg xmlns="http://www.w3.org/2000/svg" width="1280" height="640" fill="none" viewBox="0 0 1280 640"><rect width="1280" height="640" fill="#D6F0E3"/><path stroke="#1C282C" stroke-width="10" d="M325.291 333.935C322.49 332.935 322.49 332.936 322.489 332.938L322.488 332.941L322.485 332.949L322.478 332.969C322.473 332.984 322.466 333.004 322.458 333.028C322.442 333.075 322.421 333.138 322.396 333.216C322.345 333.373 322.278 333.592 322.201 333.864C322.048 334.409 321.856 335.175 321.686 336.106C321.347 337.953 321.078 340.53 321.412 343.344C321.748 346.171 322.703 349.311 324.875 352.158C327.058 355.02 330.33 357.399 334.982 358.909C342.217 361.396 348.696 359.723 353.438 356.714C355.795 355.219 357.75 353.381 359.21 351.516C360.64 349.691 361.723 347.67 362.116 345.767L362.648 343.186L360.144 342.352C350.43 339.12 341.95 336.311 335.898 334.31C332.872 333.31 330.453 332.511 328.791 331.962C327.959 331.688 327.318 331.477 326.883 331.334L326.39 331.171L326.264 331.129L326.232 331.119L326.224 331.116L326.223 331.116H326.222C326.222 331.116 326.222 331.116 325.291 333.935ZM325.291 333.935L322.49 332.935L323.468 330.209L326.222 331.116L325.291 333.935ZM400.361 282.232L402.646 284.132C402.653 284.123 402.855 283.872 403.793 283.854C404.743 283.838 406.072 284.085 407.695 284.67C410.923 285.835 414.64 288.091 417.557 290.699L417.674 290.804L417.801 290.895C424.398 295.648 431.469 304.476 433.922 311.648C437.392 322.046 437.566 335.288 431.701 348.755L431.696 348.765L431.692 348.776C426.729 360.411 420.51 369.829 411.613 376.89C402.724 383.945 390.935 388.827 374.534 391.005L374.523 391.007L374.512 391.008C370.083 391.63 366.44 392.846 363.586 394.987C360.679 397.166 358.856 400.104 357.729 403.666C356.625 407.157 356.165 411.328 355.989 416.125C355.812 420.92 355.917 426.561 356.036 433.053L356.037 433.094V433.095L356.037 433.122V433.123C356.113 437.259 356.196 441.766 356.222 446.683H333.989C333.678 446.219 333.29 445.65 332.832 444.993C331.519 443.115 329.624 440.52 327.28 437.634C322.628 431.905 316.071 424.858 308.697 420.096C301.363 415.36 292.56 412.492 283.969 416.518C275.89 420.305 269.001 429.76 263.733 446.683H244.602C243.21 438.656 240.561 432.252 237.045 427.66C233.146 422.568 228.082 419.614 222.59 419.505C217.106 419.397 211.832 422.138 207.519 427.136C203.575 431.707 200.335 438.255 198.224 446.683H171.704C171.635 446.173 171.558 445.588 171.477 444.933C171.139 442.196 170.723 438.247 170.419 433.433C169.81 423.794 169.652 410.742 171.432 397.022C174.908 370.215 185.614 341.858 213.645 330.34C214.298 331.796 215.209 333.779 216.326 336.09C218.701 341.007 222.029 347.459 225.807 353.51C230.298 360.699 238.641 367.095 249.561 366.189C260.391 365.289 272.684 357.278 285.377 338.193L280.703 334.567C280.694 334.559 280.694 334.559 280.694 334.559L280.694 334.56L280.692 334.561L280.678 334.576C280.665 334.591 280.644 334.614 280.615 334.645C280.558 334.707 280.469 334.803 280.351 334.928C280.115 335.179 279.762 335.549 279.304 336.015C278.387 336.947 277.055 338.257 275.408 339.754C272.099 342.761 267.588 346.459 262.673 349.366C257.701 352.307 252.643 354.241 248.16 354.162C243.95 354.087 239.904 352.241 236.584 346.718L236.581 346.713L236.577 346.708C234.834 343.834 233.507 341.668 232.447 339.939L232.445 339.936C230.709 337.103 229.718 335.485 228.783 333.842C227.441 331.482 226.209 329.055 223.1 322.932L223.091 322.914C222.305 321.365 221.4 319.583 220.346 317.511L220.343 317.504C218.664 314.223 218.044 311.685 218.093 309.685C218.14 307.769 218.803 306.127 220.158 304.56C223.082 301.179 229.053 298.303 238.366 295.204C256.89 289.04 311.07 273.982 351.321 311.335L351.321 311.336C370.889 329.484 383.448 338.488 392.402 341.832C396.982 343.543 400.829 343.856 404.264 342.981C407.656 342.117 410.275 340.184 412.535 338.132L412.541 338.127L412.547 338.122C417.232 333.827 418.122 328.204 417.723 323.373C417.333 318.646 415.684 314.259 414.758 311.794L414.728 311.713L414.707 311.657L414.702 311.643L414.696 311.629C411.022 302.144 404.117 297.466 399.503 294.425L397.675 293.219L397.57 293.304C396.915 292.847 396.334 292.416 395.84 291.996L395.755 291.92H395.754C395.542 291.732 395.405 291.609 395.291 291.496C395.301 291.465 395.317 291.422 395.341 291.368C395.43 291.165 395.606 290.846 395.94 290.395L396.342 290.193L396.728 289.749C397.717 288.609 399.21 287.288 400.538 286.12L398.574 283.895L400.538 286.12C400.592 286.072 400.649 286.022 400.706 285.972C401.395 285.367 402.219 284.644 402.646 284.132L400.361 282.232Z"/><path fill="#1C282C" d="M287.147 334.45L283.826 331.917C282.123 330.618 279.688 330.943 278.386 332.643C277.085 334.343 277.41 336.775 279.114 338.074L282.434 340.607C284.137 341.906 286.573 341.581 287.874 339.881C289.176 338.181 288.85 335.749 287.147 334.45Z"/><path fill="#1C282C" fill-rule="evenodd" d="M350.054 341.47C350.289 342.1 350.45 342.768 350.524 343.466C351.018 348.114 347.508 352.297 342.682 352.808C337.857 353.321 333.544 349.968 333.049 345.319C332.69 341.951 334.436 338.827 337.26 337.167L342.14 338.808C341.831 338.795 341.515 338.804 341.195 338.839C337.856 339.193 335.6 342.044 335.916 345.015C336.232 347.988 339.038 350.301 342.378 349.947C345.718 349.593 347.974 346.742 347.657 343.77C347.488 342.182 346.608 340.782 345.316 339.877L350.054 341.47Z" clip-rule="evenodd"/><path fill="#1C282C" d="M350.054 341.47L351.448 340.952L351.2 340.289L350.529 340.063L350.054 341.47ZM350.524 343.466L349.045 343.623L350.524 343.466ZM333.049 345.319L334.528 345.163L333.049 345.319ZM337.26 337.167L337.734 335.761L337.091 335.545L336.505 335.888L337.26 337.167ZM342.14 338.808L342.076 340.292L342.615 337.402L342.14 338.808ZM341.195 338.839L341.038 337.363L341.195 338.839ZM335.916 345.015L334.437 345.172L335.916 345.015ZM342.378 349.947L342.221 348.471L342.378 349.947ZM347.657 343.77L346.179 343.927L347.657 343.77ZM345.316 339.877L345.791 338.47L344.462 341.091L345.316 339.877ZM348.661 341.987C348.853 342.503 348.984 343.05 349.045 343.623L352.002 343.309C351.915 342.487 351.726 341.698 351.448 340.952L348.661 341.987ZM349.045 343.623C349.448 347.406 346.584 350.902 342.525 351.332L342.839 354.284C348.432 353.691 352.589 348.821 352.002 343.309L349.045 343.623ZM342.525 351.332C338.466 351.763 334.93 348.946 334.528 345.163L331.57 345.476C332.158 350.989 337.248 354.878 342.839 354.284L342.525 351.332ZM334.528 345.163C334.236 342.417 335.654 339.834 338.014 338.447L336.505 335.888C333.217 337.821 331.146 341.486 331.57 345.476L334.528 345.163ZM342.615 337.402L337.734 335.761L336.785 338.574L341.665 340.215L342.615 337.402ZM342.204 337.325C341.821 337.309 341.432 337.32 341.038 337.363L341.352 340.315C341.599 340.289 341.841 340.281 342.076 340.292L342.204 337.325ZM341.038 337.363C336.924 337.799 334.029 341.343 334.437 345.172L337.395 344.859C337.169 342.744 338.786 340.587 341.352 340.315L341.038 337.363ZM334.437 345.172C334.845 349.001 338.421 351.86 342.535 351.423L342.221 348.471C339.655 348.743 337.62 346.974 337.395 344.859L334.437 345.172ZM342.535 351.423C346.648 350.987 349.543 347.442 349.136 343.613L346.179 343.927C346.403 346.042 344.786 348.199 342.221 348.471L342.535 351.423ZM349.136 343.613C348.918 341.571 347.789 339.796 346.171 338.662L344.462 341.091C345.427 341.768 346.058 342.794 346.179 343.927L349.136 343.613ZM350.529 340.063L345.791 338.47L344.841 341.283L349.58 342.876L350.529 340.063Z"/><path fill="#1C282C" fill-rule="evenodd" stroke="#1C282C" stroke-width="8" d="M458.164 193L430.741 240.956L479.146 268.538L468.838 230.873L506.569 220.583L458.164 193ZM505.027 220.387L482 207.267L444.026 218.921L431.553 240.735L478.194 267.312L468.264 231.03L433.254 240.578L433.097 240.005L505.027 220.387ZM444.457 218.168L481.292 206.863L458.385 193.81L444.457 218.168Z" clip-rule="evenodd"/><path fill="#1C282C" d="M434.798 239.849L430.149 237.2L387.099 312.485L391.748 315.135L434.798 239.849Z"/><path fill="#1C282C" d="M658.849 326.662C659.406 326.634 660.027 326.613 660.71 326.599C661.407 326.585 662.494 326.578 663.972 326.578C665.547 326.578 666.753 326.585 667.589 326.599C668.44 326.613 669.234 326.64 669.973 326.682C668.9 323.857 667.882 321.324 666.92 319.084C665.958 316.843 665.178 315.153 664.578 314.012H664.286C663.756 315 663.045 316.523 662.153 318.583C661.274 320.628 660.173 323.322 658.849 326.662ZM664.286 329.02H662.048C660.445 329.02 659.379 329.062 658.849 329.145C658.333 329.229 658.005 329.375 657.866 329.583C657.768 329.709 657.649 329.911 657.51 330.189C657.385 330.468 657.169 331.003 656.862 331.796C656.806 331.95 656.723 332.165 656.611 332.443C655.984 333.988 655.67 334.983 655.67 335.428C655.67 335.804 655.768 336.111 655.963 336.347C656.158 336.584 656.472 336.778 656.904 336.931C657.057 336.987 657.259 337.056 657.51 337.14C658.43 337.46 658.89 337.822 658.89 338.225C658.89 338.74 658.5 339.116 657.72 339.353C656.953 339.589 655.684 339.707 653.914 339.707C652.157 339.707 650.896 339.596 650.129 339.374C649.376 339.137 649 338.754 649 338.225C649 337.808 649.46 337.46 650.38 337.182C650.812 337.056 651.132 336.945 651.342 336.848C652.025 336.416 652.875 334.969 653.893 332.506L653.997 332.235C654.946 329.938 656.221 326.877 657.824 323.05C661.253 314.826 663.066 310.275 663.261 309.398C663.275 309.315 663.302 309.183 663.345 309.002C663.484 308.334 663.937 308 664.704 308C665.163 308 665.526 308.105 665.791 308.313C666.056 308.508 666.383 309.03 666.774 309.879C668.363 313.385 670.608 318.834 673.507 326.223C674.873 329.702 675.905 332.311 676.602 334.051C676.658 334.176 676.72 334.329 676.79 334.51C677.32 335.818 677.863 336.625 678.421 336.931C678.574 337.015 678.846 337.119 679.236 337.245C680.059 337.509 680.47 337.85 680.47 338.267C680.47 338.754 680.031 339.116 679.153 339.353C678.274 339.589 676.902 339.707 675.033 339.707C673.151 339.707 671.772 339.589 670.893 339.353C670.029 339.116 669.596 338.754 669.596 338.267C669.596 337.85 670.091 337.467 671.081 337.119C671.29 337.05 671.465 336.987 671.604 336.931C672.008 336.862 672.308 336.708 672.503 336.472C672.698 336.236 672.796 335.916 672.796 335.512C672.796 335.067 672.622 334.294 672.273 333.195C671.924 332.082 671.472 330.975 670.914 329.876C670.733 329.556 670.37 329.333 669.827 329.208C669.283 329.083 668.217 329.02 666.627 329.02H664.286ZM700.963 324.658C700.14 324.658 699.638 324.762 699.457 324.971C699.29 325.179 699.206 325.833 699.206 326.933V327.267C699.206 329.688 699.234 331.65 699.29 333.153C699.359 334.656 699.45 335.623 699.561 336.055C699.659 336.416 700.203 336.751 701.194 337.056C702.199 337.349 703.377 337.495 704.727 337.495C707.053 337.495 708.897 336.959 710.247 335.888C711.597 334.802 712.275 333.341 712.275 331.504C712.275 329.111 711.383 327.371 709.599 326.286C707.814 325.2 704.935 324.658 700.963 324.658ZM699.206 318.166V320.608C699.206 321.415 699.297 321.916 699.478 322.111C699.659 322.306 700.154 322.403 700.963 322.403C704.353 322.403 706.803 321.93 708.326 320.984C709.842 320.023 710.604 318.499 710.604 316.412C710.604 314.45 709.973 312.961 708.718 311.945C707.481 310.929 705.637 310.421 703.199 310.421C702.015 310.421 701.147 310.463 700.586 310.547C700.028 310.63 699.701 310.756 699.604 310.922C699.464 311.201 699.359 311.938 699.29 313.135C699.234 314.332 699.206 316.009 699.206 318.166ZM714.934 315.765C714.934 317.17 714.577 318.423 713.863 319.522C713.155 320.622 712.109 321.526 710.729 322.236C710.253 322.473 709.723 322.681 709.141 322.862C708.57 323.029 708.284 323.176 708.284 323.3C708.284 323.481 708.665 323.642 709.432 323.781C709.765 323.837 710.039 323.885 710.247 323.927C712.352 324.4 713.946 325.263 715.035 326.515C716.135 327.753 716.688 329.333 716.688 331.254C716.688 333.926 715.695 335.992 713.72 337.453C711.752 338.901 708.956 339.624 705.334 339.624C704.424 339.624 703.246 339.589 701.801 339.52C700.363 339.45 699.387 339.415 698.871 339.415C698.174 339.415 697.415 339.436 696.592 339.478C695.77 339.52 695.303 339.541 695.192 339.541C694.243 339.541 693.539 339.436 693.079 339.228C692.619 339.005 692.389 338.671 692.389 338.225C692.389 337.822 692.787 337.488 693.581 337.224C694.39 336.959 694.85 336.751 694.961 336.597C695.184 336.319 695.338 335.303 695.421 333.55C695.519 331.796 695.567 328.589 695.567 323.927C695.567 319.307 695.519 316.127 695.421 314.388C695.338 312.648 695.184 311.639 694.961 311.361C694.85 311.207 694.39 310.999 693.581 310.734C692.787 310.47 692.389 310.143 692.389 309.753C692.389 309.42 692.521 309.148 692.787 308.939C693.065 308.717 693.456 308.571 693.957 308.501C693.957 308.501 694.02 308.501 694.146 308.501C697.101 308.334 700.614 308.251 704.686 308.251C707.85 308.251 710.342 308.926 712.168 310.275C714.012 311.625 714.934 313.455 714.934 315.765ZM723.921 326.16H734.502C734.824 326.16 735.038 326.105 735.151 325.994C735.264 325.868 735.317 325.639 735.317 325.304C735.317 323.676 734.77 322.327 733.67 321.255C732.563 320.17 731.172 319.627 729.482 319.627C728.59 319.627 727.74 319.822 726.931 320.211C726.14 320.601 725.438 321.157 724.819 321.881C724.332 322.466 723.939 323.099 723.63 323.781C723.338 324.462 723.19 325.054 723.19 325.555C723.19 325.777 723.237 325.938 723.338 326.035C723.451 326.119 723.642 326.16 723.921 326.16ZM737.036 327.955H723.838C723.558 327.955 723.362 328.011 723.255 328.123C723.154 328.234 723.106 328.449 723.106 328.769C723.106 331.372 723.796 333.508 725.176 335.178C726.556 336.834 728.323 337.662 730.47 337.662C731.303 337.662 732.111 337.523 732.891 337.245C733.688 336.966 734.407 336.562 735.05 336.034C735.383 335.769 735.841 335.303 736.43 334.635C737.024 333.967 737.53 333.633 737.934 333.633C738.172 333.633 738.363 333.71 738.517 333.863C738.672 334.002 738.749 334.183 738.749 334.406C738.749 334.712 738.648 335.052 738.458 335.428C738.273 335.79 738.012 336.166 737.661 336.556C736.614 337.711 735.401 338.594 734.021 339.207C732.659 339.805 731.184 340.104 729.607 340.104C726.627 340.104 724.153 339.075 722.184 337.015C720.233 334.941 719.258 332.332 719.258 329.187C719.258 325.848 720.287 323.085 722.333 320.9C724.385 318.701 726.955 317.602 730.047 317.602C732.724 317.602 734.853 318.353 736.43 319.857C738 321.359 738.791 323.391 738.791 325.951C738.791 326.787 738.702 327.33 738.517 327.58C738.339 327.83 737.839 327.955 737.036 327.955ZM743.853 320.733H742.05C741.842 320.733 741.682 320.699 741.569 320.628C741.462 320.545 741.402 320.434 741.402 320.295V319.711C741.402 319.293 741.926 318.506 742.972 317.352C743.282 317.032 743.508 316.781 743.662 316.6C743.829 316.419 744.055 316.169 744.328 315.849C745.375 314.652 746.089 314.053 746.464 314.053C746.69 314.053 746.856 314.109 746.963 314.22C747.094 314.332 747.154 314.491 747.154 314.7V318.499H751.46C751.74 318.499 751.936 318.569 752.049 318.708C752.174 318.834 752.233 319.049 752.233 319.355V319.919C752.233 320.197 752.174 320.406 752.049 320.545C751.924 320.671 751.728 320.733 751.46 320.733H747.612C747.475 320.733 747.362 320.796 747.279 320.921C747.195 321.032 747.154 321.199 747.154 321.422V333.007C747.154 334.76 747.32 335.95 747.653 336.577C748.004 337.189 748.605 337.495 749.456 337.495C749.86 337.495 750.33 337.384 750.877 337.161C751.418 336.925 751.763 336.806 751.9 336.806C752.126 336.806 752.299 336.869 752.424 336.994C752.56 337.119 752.632 337.286 752.632 337.495C752.632 338.107 752.168 338.706 751.234 339.29C750.3 339.861 749.253 340.146 748.093 340.146C746.577 340.146 745.488 339.68 744.834 338.747C744.18 337.815 743.853 336.242 743.853 334.03V320.733ZM756.647 320.733H754.85C754.642 320.733 754.482 320.699 754.368 320.628C754.255 320.545 754.202 320.434 754.202 320.295V319.711C754.202 319.293 754.725 318.506 755.772 317.352C756.076 317.032 756.308 316.781 756.462 316.6C756.629 316.419 756.849 316.169 757.128 315.849C758.175 314.652 758.883 314.053 759.264 314.053C759.484 314.053 759.65 314.109 759.763 314.22C759.888 314.332 759.954 314.491 759.954 314.7V318.499H764.26C764.539 318.499 764.736 318.569 764.843 318.708C764.968 318.834 765.033 319.049 765.033 319.355V319.919C765.033 320.197 764.968 320.406 764.843 320.545C764.718 320.671 764.522 320.733 764.26 320.733H760.412C760.275 320.733 760.162 320.796 760.078 320.921C759.995 321.032 759.954 321.199 759.954 321.422V333.007C759.954 334.76 760.12 335.95 760.453 336.577C760.804 337.189 761.399 337.495 762.249 337.495C762.654 337.495 763.13 337.384 763.671 337.161C764.218 336.925 764.557 336.806 764.7 336.806C764.92 336.806 765.093 336.869 765.223 336.994C765.36 337.119 765.432 337.286 765.432 337.495C765.432 338.107 764.962 338.706 764.028 339.29C763.094 339.861 762.047 340.146 760.893 340.146C759.371 340.146 758.288 339.68 757.628 338.747C756.974 337.815 756.647 336.242 756.647 334.03V320.733ZM772.224 326.16H782.806C783.127 326.16 783.341 326.105 783.454 325.994C783.567 325.868 783.62 325.639 783.62 325.304C783.62 323.676 783.073 322.327 781.973 321.255C780.866 320.17 779.475 319.627 777.785 319.627C776.893 319.627 776.049 319.822 775.24 320.211C774.443 320.601 773.741 321.157 773.122 321.881C772.635 322.466 772.242 323.099 771.933 323.781C771.641 324.462 771.493 325.054 771.493 325.555C771.493 325.777 771.54 325.938 771.641 326.035C771.754 326.119 771.945 326.16 772.224 326.16ZM785.339 327.955H772.141C771.861 327.955 771.671 328.011 771.558 328.123C771.457 328.234 771.409 328.449 771.409 328.769C771.409 331.372 772.099 333.508 773.479 335.178C774.859 336.834 776.626 337.662 778.773 337.662C779.606 337.662 780.414 337.523 781.2 337.245C781.991 336.966 782.71 336.562 783.353 336.034C783.686 335.769 784.144 335.303 784.733 334.635C785.327 333.967 785.833 333.633 786.237 333.633C786.475 333.633 786.666 333.71 786.82 333.863C786.975 334.002 787.052 334.183 787.052 334.406C787.052 334.712 786.957 335.052 786.761 335.428C786.577 335.79 786.315 336.166 785.964 336.556C784.917 337.711 783.704 338.594 782.324 339.207C780.962 339.805 779.487 340.104 777.916 340.104C774.93 340.104 772.456 339.075 770.493 337.015C768.536 334.941 767.561 332.332 767.561 329.187C767.561 325.848 768.59 323.085 770.636 320.9C772.688 318.701 775.258 317.602 778.351 317.602C781.027 317.602 783.156 318.353 784.733 319.857C786.309 321.359 787.094 323.391 787.094 325.951C787.094 326.787 787.005 327.33 786.82 327.58C786.642 327.83 786.148 327.955 785.339 327.955ZM796.254 321.756C797.146 320.392 798.086 319.348 799.073 318.625C800.078 317.887 801.054 317.518 802.005 317.518C802.785 317.518 803.409 317.762 803.885 318.249C804.373 318.736 804.616 319.376 804.616 320.17C804.616 320.865 804.396 321.443 803.95 321.902C803.516 322.347 802.963 322.57 802.297 322.57C801.696 322.57 801.202 322.382 800.81 322.007C800.423 321.631 800.179 321.109 800.078 320.441C798.603 320.914 797.568 321.666 796.985 322.695C796.414 323.711 796.129 325.924 796.129 329.333C796.129 331.894 796.164 333.744 796.23 334.886C796.301 336.013 796.414 336.681 796.569 336.89C796.777 337.21 797.265 337.426 798.032 337.537C798.282 337.565 798.484 337.592 798.639 337.62C798.942 337.676 799.186 337.773 799.37 337.913C799.549 338.051 799.638 338.225 799.638 338.434C799.638 338.88 799.246 339.207 798.448 339.415C797.651 339.61 796.414 339.707 794.725 339.707C793.22 339.707 792.132 339.61 791.466 339.415C790.811 339.207 790.478 338.88 790.478 338.434C790.478 338.072 790.776 337.801 791.359 337.62C791.947 337.439 792.31 337.279 792.447 337.14C792.667 336.945 792.822 336.493 792.905 335.783C793.006 335.074 793.054 333.835 793.054 332.068C793.054 329.674 793.018 327.691 792.947 326.119C792.893 324.532 792.798 323.356 792.655 322.591C792.572 322.007 792.435 321.61 792.239 321.401C792.043 321.178 791.614 321.067 790.96 321.067H790.567C790.341 321.067 790.139 320.984 789.961 320.817C789.788 320.65 789.705 320.448 789.705 320.211C789.705 319.947 789.812 319.711 790.02 319.502C790.229 319.279 790.615 319.035 791.168 318.771C791.882 318.395 792.566 318.096 793.22 317.873C793.875 317.637 794.338 317.518 794.6 317.518C794.975 317.518 795.272 317.825 795.48 318.437C795.689 319.035 795.861 320.1 796.004 321.631L796.254 321.756ZM838.555 323.426C837.562 325.903 836.384 329.013 835.022 332.756C833.166 337.822 831.917 340.355 831.275 340.355C830.942 340.355 830.645 340.181 830.377 339.833C830.127 339.499 829.735 338.664 829.205 337.328C827.647 333.376 825.916 328.756 824.025 323.468C822.139 318.179 820.991 314.993 820.569 313.907C820.557 313.866 820.527 313.796 820.486 313.699C819.915 312.182 819.332 311.263 818.731 310.943C818.564 310.86 818.291 310.756 817.916 310.63C817.077 310.365 816.661 310.025 816.661 309.607C816.661 309.12 817.089 308.765 817.934 308.543C818.802 308.32 820.176 308.208 822.056 308.208C823.995 308.208 825.375 308.32 826.196 308.543C827.034 308.765 827.451 309.12 827.451 309.607C827.451 310.053 826.796 310.477 825.488 310.88L825.404 310.902C825.012 311.013 824.726 311.187 824.542 311.424C824.375 311.66 824.292 311.987 824.292 312.404C824.292 313.49 825.161 316.412 826.886 321.171C827.302 322.327 827.623 323.217 827.849 323.843C828.938 326.877 829.83 329.25 830.526 330.961C831.233 332.659 831.668 333.508 831.822 333.508C832.042 333.508 832.572 332.485 833.41 330.44C834.261 328.394 835.575 324.943 837.36 320.086C836.176 316.551 835.349 314.248 834.874 313.177C834.416 312.092 834.011 311.416 833.66 311.152C833.464 310.999 833.018 310.804 832.322 310.567C831.626 310.317 831.275 309.997 831.275 309.607C831.275 309.12 831.703 308.765 832.554 308.543C833.404 308.32 834.778 308.208 836.67 308.208C838.597 308.208 839.971 308.32 840.792 308.543C841.613 308.752 842.023 309.106 842.023 309.607C842.023 310.053 841.363 310.477 840.036 310.88L839.953 310.902C839.549 311.027 839.245 311.256 839.037 311.59C838.829 311.91 838.722 312.321 838.722 312.822C838.722 313.281 838.96 314.255 839.436 315.744C839.923 317.233 840.881 319.933 842.32 323.843C843.629 327.406 844.575 329.911 845.163 331.358C845.764 332.791 846.145 333.508 846.311 333.508C846.436 333.508 846.674 333.139 847.025 332.402C847.388 331.65 848.102 329.925 849.178 327.225C850.725 323.315 851.956 319.996 852.878 317.268C853.812 314.541 854.282 312.884 854.282 312.3C854.282 311.924 854.18 311.618 853.984 311.381C853.806 311.145 853.508 310.957 853.086 310.818C852.931 310.762 852.717 310.693 852.438 310.609C851.522 310.331 851.058 309.983 851.058 309.566C851.058 309.092 851.444 308.752 852.212 308.543C852.979 308.32 854.246 308.208 856.012 308.208C857.797 308.208 859.076 308.32 859.843 308.543C860.61 308.752 860.991 309.092 860.991 309.566C860.991 309.816 860.89 310.025 860.676 310.192C860.485 310.359 860.146 310.512 859.676 310.651C858.909 310.887 858.338 311.187 857.957 311.548C857.583 311.91 857.178 312.537 856.744 313.427C856.512 313.9 855.436 316.753 853.526 321.986C851.629 327.204 849.737 332.193 847.84 336.952C847.739 337.189 847.608 337.53 847.441 337.975C846.817 339.561 846.276 340.355 845.83 340.355C845.134 340.355 843.671 337.3 841.44 331.191C840.268 327.99 839.305 325.402 838.555 323.426ZM871.09 326.849C871.108 326.682 871.114 326.508 871.114 326.327C871.126 326.146 871.132 325.875 871.132 325.513C871.132 323.384 870.799 321.86 870.127 320.942C869.461 320.009 868.372 319.543 866.867 319.543C866.1 319.543 865.41 319.689 864.798 319.982C864.185 320.274 863.614 320.726 863.085 321.339C862.971 321.478 862.805 321.693 862.579 321.986C861.883 322.974 861.181 323.468 860.467 323.468C860.039 323.468 859.688 323.335 859.421 323.071C859.159 322.806 859.028 322.452 859.028 322.007C859.028 320.976 859.819 320.009 861.407 319.105C863.013 318.201 864.845 317.748 866.909 317.748C869.49 317.748 871.394 318.388 872.619 319.668C873.856 320.949 874.481 322.939 874.481 325.639C874.481 326.418 874.463 327.455 874.439 328.749C874.409 330.043 874.397 330.947 874.397 331.463C874.397 333.995 874.457 335.609 874.582 336.305C874.725 336.987 874.963 337.328 875.296 337.328C875.432 337.328 875.611 337.307 875.819 337.265C876.039 337.21 876.182 337.182 876.235 337.182C876.432 337.182 876.574 337.245 876.675 337.37C876.788 337.481 876.842 337.634 876.842 337.829C876.842 338.316 876.521 338.81 875.878 339.311C875.236 339.812 874.57 340.062 873.874 340.062C873.047 340.062 872.149 339.172 871.174 337.391C871.09 337.237 871.019 337.112 870.965 337.015H870.674C869.71 337.975 868.693 338.685 867.623 339.144C866.546 339.603 865.363 339.833 864.066 339.833C862.002 339.833 860.348 339.276 859.111 338.163C857.88 337.05 857.267 335.554 857.267 333.675C857.267 331.448 858.082 329.709 859.718 328.456C861.36 327.204 863.656 326.578 866.594 326.578C867.337 326.578 868.075 326.606 868.812 326.662C869.568 326.703 870.323 326.765 871.09 326.849ZM871.09 328.686C870.353 328.561 869.669 328.47 869.044 328.415C868.432 328.359 867.855 328.331 867.325 328.331C865.208 328.331 863.596 328.763 862.496 329.626C861.407 330.488 860.866 331.74 860.866 333.383C860.866 334.747 861.253 335.818 862.014 336.597C862.799 337.363 863.87 337.746 865.238 337.746C866.98 337.746 868.39 337.21 869.461 336.138C870.549 335.052 871.09 333.619 871.09 331.838V328.686ZM889.618 335.261C889.814 335.261 890.338 334.092 891.188 331.755L891.331 331.379L892.003 329.542C893.758 324.866 894.638 322.083 894.638 321.193C894.638 320.802 894.21 320.448 893.359 320.128C892.527 319.808 892.104 319.481 892.104 319.146C892.104 318.715 892.402 318.409 892.985 318.228C893.585 318.047 894.591 317.957 895.994 317.957C897.404 317.957 898.403 318.047 898.986 318.228C899.587 318.409 899.884 318.715 899.884 319.146C899.884 319.453 899.587 319.711 898.986 319.919C898.695 320.016 898.469 320.1 898.32 320.17C897.66 320.448 897.053 321.311 896.5 322.758C896.345 323.161 896.22 323.489 896.119 323.739C894.953 326.675 893.633 330.217 892.17 334.364C890.719 338.497 889.755 341.106 889.285 342.192C888.292 344.432 887.263 346.026 886.186 346.972C885.127 347.918 883.861 348.391 882.385 348.391C881.422 348.391 880.643 348.155 880.042 347.682C879.453 347.208 879.162 346.589 879.162 345.824C879.162 345.267 879.328 344.808 879.667 344.446C880.012 344.084 880.447 343.903 880.964 343.903C881.351 343.903 881.672 343.987 881.922 344.154C882.189 344.335 882.439 344.648 882.677 345.093C882.689 345.121 882.719 345.169 882.76 345.239C883.093 345.824 883.51 346.116 884.015 346.116C884.806 346.116 885.562 345.573 886.275 344.488C886.983 343.416 887.34 342.192 887.34 340.814C887.34 339.256 885.455 333.939 881.696 324.866C881.249 323.794 880.904 322.974 880.667 322.403C880.435 321.805 880.209 321.339 880 321.004C879.804 320.671 879.608 320.434 879.412 320.295C879.358 320.253 879.078 320.156 878.579 320.003C878.091 319.849 877.847 319.592 877.847 319.23C877.847 318.785 878.174 318.465 878.829 318.27C879.483 318.061 880.548 317.957 882.029 317.957C883.617 317.957 884.741 318.054 885.395 318.249C886.061 318.444 886.4 318.771 886.4 319.23C886.4 319.439 886.335 319.606 886.21 319.731C886.097 319.857 885.895 319.961 885.603 320.044C885.52 320.072 885.413 320.107 885.288 320.149C884.58 320.385 884.223 320.705 884.223 321.109C884.223 321.498 884.426 322.347 884.83 323.655C885.235 324.963 885.77 326.466 886.442 328.164C887.697 331.309 888.506 333.278 888.863 334.072C889.226 334.865 889.481 335.261 889.618 335.261ZM913.559 320.733H911.762C911.554 320.733 911.393 320.699 911.28 320.628C911.167 320.545 911.114 320.434 911.114 320.295V319.711C911.114 319.293 911.637 318.506 912.684 317.352C912.988 317.032 913.22 316.781 913.374 316.6C913.541 316.419 913.761 316.169 914.04 315.849C915.087 314.652 915.801 314.053 916.176 314.053C916.396 314.053 916.568 314.109 916.675 314.22C916.8 314.332 916.866 314.491 916.866 314.7V318.499H921.172C921.451 318.499 921.648 318.569 921.761 318.708C921.886 318.834 921.945 319.049 921.945 319.355V319.919C921.945 320.197 921.886 320.406 921.761 320.545C921.63 320.671 921.44 320.733 921.172 320.733H917.324C917.187 320.733 917.074 320.796 916.99 320.921C916.907 321.032 916.866 321.199 916.866 321.422V333.007C916.866 334.76 917.032 335.95 917.365 336.577C917.716 337.189 918.317 337.495 919.167 337.495C919.572 337.495 920.042 337.384 920.589 337.161C921.13 336.925 921.475 336.806 921.612 336.806C921.832 336.806 922.011 336.869 922.135 336.994C922.272 337.119 922.344 337.286 922.344 337.495C922.344 338.107 921.874 338.706 920.94 339.29C920.006 339.861 918.965 340.146 917.805 340.146C916.289 340.146 915.2 339.68 914.546 338.747C913.892 337.815 913.559 336.242 913.559 334.03V320.733ZM928.113 327.955C928.113 330.906 928.821 333.348 930.225 335.282C931.634 337.202 933.383 338.163 935.477 338.163C937.606 338.163 939.283 337.398 940.497 335.866C941.722 334.336 942.335 332.214 942.335 329.5C942.335 326.675 941.603 324.323 940.14 322.445C938.677 320.566 936.851 319.627 934.662 319.627C932.735 319.627 931.158 320.392 929.933 321.923C928.72 323.454 928.113 325.465 928.113 327.955ZM924.354 329.187C924.354 325.875 925.425 323.12 927.572 320.921C929.731 318.708 932.425 317.602 935.643 317.602C938.712 317.602 941.234 318.618 943.215 320.65C945.19 322.667 946.183 325.242 946.183 328.373C946.183 331.727 945.118 334.524 942.983 336.764C940.848 338.991 938.207 340.104 935.06 340.104C932.021 340.104 929.475 339.06 927.423 336.973C925.377 334.872 924.354 332.277 924.354 329.187ZM966.174 313.594L965.924 324.031C965.924 324.115 965.912 324.372 965.9 324.804C965.87 327.183 965.859 329.577 965.859 331.984V332.882C965.859 334.343 965.906 335.317 966.007 335.804C966.102 336.291 966.269 336.611 966.507 336.764C966.727 336.89 967.09 337.036 967.595 337.202C968.47 337.481 968.91 337.822 968.91 338.225C968.91 338.727 968.565 339.095 967.869 339.332C967.185 339.554 966.073 339.666 964.544 339.666C962.855 339.666 961.665 339.554 960.963 339.332C960.268 339.109 959.923 338.74 959.923 338.225C959.923 337.808 960.517 337.404 961.719 337.015L961.844 336.973C962.177 336.862 962.415 336.702 962.557 336.493C962.706 336.284 962.825 335.874 962.908 335.261C963.456 330.391 963.723 323.725 963.723 315.264V314.408C963.723 313.198 963.682 312.384 963.598 311.966C963.515 311.535 963.372 311.25 963.158 311.11C962.98 310.985 962.546 310.804 961.867 310.567C961.195 310.331 960.862 310.011 960.862 309.607C960.862 309.134 961.195 308.793 961.867 308.584C962.534 308.362 963.658 308.251 965.234 308.251C966.055 308.251 966.667 308.285 967.072 308.355C967.488 308.41 967.768 308.501 967.911 308.626C968.256 308.919 968.773 310.088 969.457 312.133C969.695 312.829 969.879 313.372 970.022 313.761C971.914 319.119 973.591 323.544 975.036 327.037C976.487 330.53 977.362 332.277 977.653 332.277C977.933 332.277 978.76 330.704 980.14 327.559C981.519 324.4 983.173 320.288 985.094 315.222C985.35 314.541 985.677 313.636 986.081 312.509C986.694 310.797 987.116 309.74 987.354 309.336C987.592 308.946 987.949 308.668 988.419 308.501C988.895 308.334 989.543 308.251 990.364 308.251C992.166 308.251 993.403 308.355 994.087 308.563C994.771 308.758 995.11 309.106 995.11 309.607C995.11 310.011 994.771 310.331 994.087 310.567C993.403 310.804 992.963 310.985 992.773 311.11C992.517 311.263 992.345 311.646 992.249 312.258C992.166 312.857 992.125 314.102 992.125 315.995V318.249C992.125 323.008 992.184 327.037 992.309 330.335C992.434 333.619 992.588 335.561 992.773 336.159C992.88 336.507 993.302 336.785 994.028 336.994C994.218 337.05 994.379 337.099 994.504 337.14C994.896 337.279 995.176 337.432 995.342 337.599C995.509 337.752 995.592 337.94 995.592 338.163C995.592 338.678 995.14 339.067 994.236 339.332C993.344 339.582 992.012 339.707 990.239 339.707C988.681 339.707 987.527 339.596 986.789 339.374C986.064 339.137 985.701 338.782 985.701 338.309C985.701 337.877 986.123 337.516 986.956 337.224C987.235 337.126 987.461 337.043 987.628 336.973C988.032 336.82 988.312 336.486 988.461 335.971C988.615 335.443 988.693 334.378 988.693 332.777V329.667C988.693 328.067 988.687 326.884 988.675 326.119C988.675 325.339 988.663 324.623 988.651 323.968L988.484 312.906C985.457 320.601 983.381 325.861 982.251 328.686C981.121 331.497 980.217 333.716 979.533 335.345C979.438 335.581 979.295 335.916 979.116 336.347C978.379 338.156 977.701 339.06 977.088 339.06C976.238 339.06 973.864 333.898 969.98 323.572C968.404 319.411 967.131 316.085 966.174 313.594ZM1011.73 326.849C1011.75 326.682 1011.76 326.508 1011.76 326.327C1011.77 326.146 1011.78 325.875 1011.78 325.513C1011.78 323.384 1011.44 321.86 1010.78 320.942C1010.11 320.009 1009.02 319.543 1007.51 319.543C1006.74 319.543 1006.05 319.689 1005.44 319.982C1004.83 320.274 1004.26 320.726 1003.73 321.339C1003.62 321.478 1003.45 321.693 1003.22 321.986C1002.53 322.974 1001.83 323.468 1001.11 323.468C1000.68 323.468 1000.33 323.335 1000.07 323.071C999.803 322.806 999.672 322.452 999.672 322.007C999.672 320.976 1000.46 320.009 1002.06 319.105C1003.66 318.201 1005.49 317.748 1007.55 317.748C1010.13 317.748 1012.04 318.388 1013.26 319.668C1014.51 320.949 1015.13 322.939 1015.13 325.639C1015.13 326.418 1015.11 327.455 1015.08 328.749C1015.05 330.043 1015.04 330.947 1015.04 331.463C1015.04 333.995 1015.1 335.609 1015.23 336.305C1015.37 336.987 1015.61 337.328 1015.94 337.328C1016.08 337.328 1016.26 337.307 1016.46 337.265C1016.68 337.21 1016.83 337.182 1016.88 337.182C1017.08 337.182 1017.22 337.245 1017.32 337.37C1017.43 337.481 1017.49 337.634 1017.49 337.829C1017.49 338.316 1017.17 338.81 1016.52 339.311C1015.89 339.812 1015.21 340.062 1014.52 340.062C1013.7 340.062 1012.79 339.172 1011.82 337.391C1011.73 337.237 1011.67 337.112 1011.61 337.015H1011.32C1010.35 337.975 1009.34 338.685 1008.27 339.144C1007.19 339.603 1006.01 339.833 1004.71 339.833C1002.65 339.833 1000.99 339.276 999.756 338.163C998.53 337.05 997.912 335.554 997.912 333.675C997.912 331.448 998.733 329.709 1000.36 328.456C1002 327.204 1004.3 326.578 1007.24 326.578C1007.98 326.578 1008.72 326.606 1009.46 326.662C1010.21 326.703 1010.97 326.765 1011.73 326.849ZM1011.73 328.686C1011 328.561 1010.31 328.47 1009.69 328.415C1009.08 328.359 1008.51 328.331 1007.97 328.331C1005.85 328.331 1004.25 328.763 1003.14 329.626C1002.06 330.488 1001.51 331.74 1001.51 333.383C1001.51 334.747 1001.9 335.818 1002.66 336.597C1003.44 337.363 1004.51 337.746 1005.88 337.746C1007.62 337.746 1009.03 337.21 1010.11 336.138C1011.19 335.052 1011.73 333.619 1011.73 331.838V328.686ZM1025.64 320.942C1025.64 321.193 1025.66 321.359 1025.71 321.443C1025.75 321.513 1025.81 321.547 1025.89 321.547C1026.09 321.547 1026.37 321.29 1026.75 320.775C1027.06 320.343 1027.31 320.016 1027.53 319.794C1028.18 319.043 1028.94 318.486 1029.8 318.124C1030.67 317.748 1031.65 317.56 1032.75 317.56C1034.75 317.56 1036.34 318.075 1037.52 319.105C1038.72 320.121 1039.55 321.687 1040.03 323.801C1040.11 324.177 1040.18 324.651 1040.22 325.221C1040.26 325.777 1040.28 326.529 1040.28 327.476C1040.28 327.781 1040.27 328.275 1040.26 328.958C1040.24 329.639 1040.24 330.175 1040.24 330.565C1040.24 331.289 1040.24 332.054 1040.26 332.861C1040.28 333.668 1040.32 334.51 1040.36 335.387C1040.39 336.027 1040.46 336.479 1040.57 336.743C1040.68 336.994 1040.88 337.202 1041.16 337.37C1041.27 337.439 1041.49 337.516 1041.81 337.599C1042.47 337.78 1042.81 338.059 1042.81 338.434C1042.81 338.88 1042.48 339.207 1041.83 339.415C1041.17 339.61 1040.1 339.707 1038.61 339.707C1037.13 339.707 1036.06 339.61 1035.41 339.415C1034.75 339.207 1034.43 338.88 1034.43 338.434C1034.43 338.072 1034.75 337.794 1035.38 337.599C1036.03 337.391 1036.43 337.154 1036.6 336.89C1036.74 336.667 1036.83 336.048 1036.89 335.032C1036.95 334.016 1036.98 331.602 1036.98 327.789C1036.98 325.145 1036.6 323.259 1035.85 322.132C1035.11 321.004 1033.89 320.441 1032.19 320.441C1031.08 320.441 1030.06 320.684 1029.11 321.171C1028.16 321.659 1027.32 322.382 1026.58 323.342C1026.25 323.746 1026.01 324.198 1025.87 324.699C1025.75 325.2 1025.68 325.945 1025.68 326.933V328.477C1025.68 331.609 1025.71 333.738 1025.77 334.865C1025.83 335.978 1025.92 336.653 1026.06 336.89C1026.23 337.154 1026.63 337.391 1027.27 337.599C1027.93 337.794 1028.26 338.072 1028.26 338.434C1028.26 338.88 1027.92 339.207 1027.25 339.415C1026.6 339.61 1025.53 339.707 1024.05 339.707C1022.56 339.707 1021.48 339.61 1020.81 339.415C1020.15 339.207 1019.81 338.88 1019.81 338.434C1019.81 338.072 1020.13 337.794 1020.77 337.599C1021.42 337.391 1021.83 337.154 1022 336.89C1022.16 336.611 1022.26 335.853 1022.32 334.614C1022.39 333.362 1022.42 331.316 1022.42 328.477C1022.42 326.32 1022.38 324.651 1022.27 323.468C1022.19 322.285 1022.06 321.561 1021.88 321.296C1021.75 321.102 1021.32 320.956 1020.58 320.858C1019.84 320.747 1019.47 320.448 1019.47 319.961C1019.47 319.46 1020.06 318.938 1021.23 318.395C1022.42 317.838 1023.54 317.56 1024.62 317.56C1024.99 317.56 1025.26 317.672 1025.42 317.894C1025.56 318.117 1025.64 318.534 1025.64 319.146V320.942ZM1058.96 326.849C1058.97 326.682 1058.97 326.508 1058.97 326.327C1058.99 326.146 1059 325.875 1059 325.513C1059 323.384 1058.66 321.86 1057.99 320.942C1057.32 320.009 1056.24 319.543 1054.73 319.543C1053.96 319.543 1053.27 319.689 1052.66 319.982C1052.04 320.274 1051.47 320.726 1050.94 321.339C1050.83 321.478 1050.66 321.693 1050.44 321.986C1049.75 322.974 1049.04 323.468 1048.33 323.468C1047.9 323.468 1047.55 323.335 1047.29 323.071C1047.02 322.806 1046.89 322.452 1046.89 322.007C1046.89 320.976 1047.68 320.009 1049.27 319.105C1050.87 318.201 1052.71 317.748 1054.77 317.748C1057.35 317.748 1059.25 318.388 1060.48 319.668C1061.72 320.949 1062.34 322.939 1062.34 325.639C1062.34 326.418 1062.33 327.455 1062.3 328.749C1062.27 330.043 1062.26 330.947 1062.26 331.463C1062.26 333.995 1062.32 335.609 1062.45 336.305C1062.58 336.987 1062.82 337.328 1063.15 337.328C1063.3 337.328 1063.47 337.307 1063.68 337.265C1063.9 337.21 1064.04 337.182 1064.09 337.182C1064.29 337.182 1064.44 337.245 1064.53 337.37C1064.65 337.481 1064.7 337.634 1064.7 337.829C1064.7 338.316 1064.38 338.81 1063.74 339.311C1063.1 339.812 1062.43 340.062 1061.73 340.062C1060.91 340.062 1060.01 339.172 1059.04 337.391C1058.96 337.237 1058.88 337.112 1058.82 337.015H1058.53C1057.58 337.975 1056.55 338.685 1055.48 339.144C1054.41 339.603 1053.22 339.833 1051.92 339.833C1049.86 339.833 1048.21 339.276 1046.97 338.163C1045.75 337.05 1045.13 335.554 1045.13 333.675C1045.13 331.448 1045.95 329.709 1047.58 328.456C1049.22 327.204 1051.51 326.578 1054.46 326.578C1055.2 326.578 1055.93 326.606 1056.67 326.662C1057.43 326.703 1058.19 326.765 1058.96 326.849ZM1058.96 328.686C1058.21 328.561 1057.53 328.47 1056.9 328.415C1056.29 328.359 1055.72 328.331 1055.19 328.331C1053.07 328.331 1051.46 328.763 1050.36 329.626C1049.27 330.488 1048.72 331.74 1048.72 333.383C1048.72 334.747 1049.11 335.818 1049.88 336.597C1050.66 337.363 1051.73 337.746 1053.1 337.746C1054.84 337.746 1056.25 337.21 1057.32 336.138C1058.41 335.052 1058.96 333.619 1058.96 331.838V328.686ZM1072.06 339.039C1071.65 339.457 1071.32 339.93 1071.08 340.459C1070.86 340.988 1070.74 341.537 1070.74 342.108C1070.74 343.444 1071.34 344.509 1072.52 345.302C1073.72 346.109 1075.33 346.512 1077.35 346.512C1079.67 346.512 1081.57 346.026 1083.06 345.051C1084.57 344.091 1085.32 342.894 1085.32 341.461C1085.32 340.584 1085.04 339.916 1084.48 339.457C1083.92 338.998 1083.12 338.768 1082.06 338.768C1081.69 338.768 1080.74 338.866 1079.2 339.06C1077.65 339.241 1076.28 339.332 1075.07 339.332C1074.49 339.332 1073.95 339.311 1073.46 339.269C1072.97 339.213 1072.51 339.137 1072.06 339.039ZM1071.69 330.941C1070.7 330.314 1069.95 329.535 1069.45 328.603C1068.95 327.67 1068.7 326.599 1068.7 325.388C1068.7 323.12 1069.53 321.248 1071.21 319.773C1072.88 318.298 1075 317.56 1077.56 317.56C1078.39 317.56 1079.4 317.685 1080.62 317.936C1081.83 318.173 1082.64 318.291 1083.04 318.291C1083.67 318.291 1084.29 318.152 1084.9 317.873C1085.52 317.581 1086.08 317.163 1086.6 316.621C1086.87 316.718 1087.08 316.878 1087.23 317.101C1087.37 317.31 1087.45 317.581 1087.45 317.915C1087.45 318.472 1087.23 319 1086.79 319.502C1086.34 320.003 1085.69 320.441 1084.84 320.817C1085.2 321.415 1085.47 322.02 1085.64 322.632C1085.82 323.231 1085.91 323.85 1085.91 324.49C1085.91 326.759 1085.04 328.644 1083.29 330.147C1081.56 331.65 1079.38 332.402 1076.75 332.402C1076.12 332.402 1075.5 332.339 1074.88 332.214C1074.27 332.088 1073.68 331.908 1073.11 331.671C1072.5 331.908 1072.01 332.262 1071.65 332.736C1071.29 333.209 1071.1 333.724 1071.1 334.281C1071.1 334.893 1071.37 335.4 1071.92 335.804C1072.47 336.208 1073.17 336.41 1074.01 336.41C1074.93 336.41 1076.41 336.284 1078.46 336.034C1080.51 335.783 1082.09 335.658 1083.21 335.658C1084.89 335.658 1086.21 336.083 1087.16 336.931C1088.12 337.766 1088.61 338.921 1088.61 340.396C1088.61 342.651 1087.48 344.536 1085.22 346.053C1082.96 347.584 1080.09 348.349 1076.62 348.349C1073.93 348.349 1071.76 347.8 1070.12 346.701C1068.49 345.615 1067.67 344.196 1067.67 342.442C1067.67 341.593 1067.89 340.849 1068.32 340.209C1068.75 339.569 1069.45 338.963 1070.41 338.392C1069.62 338.044 1069.03 337.62 1068.63 337.119C1068.25 336.618 1068.05 336.013 1068.05 335.303C1068.05 334.399 1068.35 333.578 1068.97 332.84C1069.58 332.103 1070.49 331.469 1071.69 330.941ZM1072.04 324.971C1072.04 326.696 1072.51 328.095 1073.44 329.166C1074.38 330.238 1075.59 330.773 1077.08 330.773C1078.64 330.773 1079.93 330.238 1080.93 329.166C1081.93 328.095 1082.44 326.724 1082.44 325.054C1082.44 323.315 1081.95 321.909 1080.97 320.837C1079.99 319.766 1078.72 319.23 1077.14 319.23C1075.69 319.23 1074.49 319.773 1073.5 320.858C1072.53 321.944 1072.04 323.315 1072.04 324.971ZM1094.71 326.16H1105.29C1105.61 326.16 1105.82 326.105 1105.94 325.994C1106.05 325.868 1106.1 325.639 1106.1 325.304C1106.1 323.676 1105.56 322.327 1104.46 321.255C1103.35 320.17 1101.96 319.627 1100.27 319.627C1099.38 319.627 1098.53 319.822 1097.72 320.211C1096.93 320.601 1096.22 321.157 1095.61 321.881C1095.12 322.466 1094.73 323.099 1094.42 323.781C1094.13 324.462 1093.98 325.054 1093.98 325.555C1093.98 325.777 1094.02 325.938 1094.13 326.035C1094.24 326.119 1094.43 326.16 1094.71 326.16ZM1107.82 327.955H1094.62C1094.35 327.955 1094.16 328.011 1094.04 328.123C1093.94 328.234 1093.89 328.449 1093.89 328.769C1093.89 331.372 1094.58 333.508 1095.96 335.178C1097.34 336.834 1099.11 337.662 1101.26 337.662C1102.09 337.662 1102.9 337.523 1103.68 337.245C1104.47 336.966 1105.19 336.562 1105.84 336.034C1106.17 335.769 1106.63 335.303 1107.22 334.635C1107.81 333.967 1108.32 333.633 1108.72 333.633C1108.96 333.633 1109.15 333.71 1109.3 333.863C1109.46 334.002 1109.54 334.183 1109.54 334.406C1109.54 334.712 1109.44 335.052 1109.24 335.428C1109.06 335.79 1108.8 336.166 1108.45 336.556C1107.4 337.711 1106.19 338.594 1104.81 339.207C1103.45 339.805 1101.97 340.104 1100.4 340.104C1097.41 340.104 1094.94 339.075 1092.98 337.015C1091.02 334.941 1090.05 332.332 1090.05 329.187C1090.05 325.848 1091.07 323.085 1093.12 320.9C1095.17 318.701 1097.74 317.602 1100.83 317.602C1103.51 317.602 1105.64 318.353 1107.22 319.857C1108.79 321.359 1109.58 323.391 1109.58 325.951C1109.58 326.787 1109.49 327.33 1109.3 327.58C1109.13 327.83 1108.63 327.955 1107.82 327.955ZM666.46 391.927C661.93 391.927 658.235 390.383 655.377 387.294C652.519 384.19 651.091 380.161 651.091 375.207C651.091 370.615 652.519 366.851 655.377 363.915C658.249 360.978 661.93 359.51 666.418 359.51C668.008 359.51 669.596 359.719 671.186 360.137C672.775 360.554 673.584 360.762 673.611 360.762C673.89 360.762 674.253 360.707 674.699 360.596C675.145 360.47 675.452 360.408 675.619 360.408C676.26 360.408 676.783 360.951 677.187 362.036C677.605 363.107 677.815 364.478 677.815 366.148C677.815 366.76 677.71 367.234 677.501 367.567C677.306 367.902 677.027 368.068 676.664 368.068C676.107 368.068 675.619 367.539 675.201 366.482C674.922 365.786 674.664 365.257 674.427 364.896C673.702 363.838 672.685 363.052 671.374 362.537C670.064 362.008 668.44 361.744 666.502 361.744C662.947 361.744 660.187 362.808 658.221 364.937C656.27 367.066 655.294 370.065 655.294 373.934C655.294 375.841 655.517 377.691 655.963 379.486C656.423 381.268 657.071 382.848 657.908 384.225C658.953 385.978 660.256 387.321 661.818 388.254C663.393 389.186 665.115 389.652 666.983 389.652C669.06 389.652 670.719 389.054 671.96 387.857C673.2 386.646 673.821 385.039 673.821 383.035C673.821 382.117 673.737 381.469 673.57 381.094C673.416 380.718 673.138 380.481 672.733 380.384C672.385 380.3 671.918 380.224 671.332 380.154C670.036 380.002 669.381 379.563 669.367 378.84C669.367 378.296 669.827 377.907 670.747 377.671C671.681 377.42 673.235 377.295 675.41 377.295C677.64 377.295 679.209 377.42 680.115 377.671C681.035 377.907 681.495 378.296 681.495 378.84C681.495 379.563 680.7 380.05 679.111 380.3C678.888 380.343 678.721 380.37 678.609 380.384C678.428 380.426 678.274 380.544 678.149 380.739C678.023 380.92 677.898 381.226 677.772 381.658C677.745 381.741 677.612 382.423 677.376 383.703C677.138 384.97 676.783 386.069 676.309 387.001C675.472 388.615 674.218 389.84 672.545 390.675C670.886 391.51 668.858 391.927 666.46 391.927ZM688.144 373.412C689.037 372.048 689.978 371.005 690.967 370.281C691.971 369.543 692.947 369.175 693.895 369.175C694.675 369.175 695.303 369.418 695.777 369.906C696.265 370.392 696.508 371.033 696.508 371.826C696.508 372.522 696.286 373.099 695.84 373.558C695.407 374.004 694.857 374.226 694.187 374.226C693.588 374.226 693.093 374.039 692.703 373.663C692.313 373.287 692.069 372.765 691.971 372.097C690.493 372.57 689.462 373.322 688.876 374.352C688.305 375.367 688.019 377.58 688.019 380.99C688.019 383.55 688.054 385.401 688.124 386.542C688.193 387.669 688.305 388.337 688.458 388.546C688.667 388.866 689.155 389.082 689.922 389.193C690.173 389.221 690.375 389.249 690.528 389.277C690.835 389.332 691.079 389.429 691.26 389.569C691.441 389.708 691.532 389.882 691.532 390.091C691.532 390.536 691.134 390.863 690.34 391.072C689.545 391.266 688.305 391.364 686.618 391.364C685.112 391.364 684.025 391.266 683.356 391.072C682.701 390.863 682.373 390.536 682.373 390.091C682.373 389.729 682.666 389.457 683.251 389.277C683.837 389.096 684.199 388.935 684.339 388.796C684.562 388.602 684.715 388.149 684.799 387.44C684.896 386.73 684.945 385.492 684.945 383.724C684.945 381.331 684.91 379.347 684.84 377.775C684.785 376.189 684.688 375.012 684.548 374.247C684.464 373.663 684.325 373.266 684.13 373.057C683.934 372.835 683.509 372.724 682.854 372.724H682.457C682.233 372.724 682.032 372.64 681.85 372.473C681.683 372.306 681.599 372.104 681.599 371.867C681.599 371.603 681.704 371.367 681.913 371.158C682.122 370.935 682.506 370.692 683.063 370.427C683.774 370.052 684.457 369.752 685.112 369.53C685.768 369.293 686.227 369.175 686.493 369.175C686.869 369.175 687.162 369.481 687.371 370.093C687.58 370.692 687.754 371.756 687.893 373.287L688.144 373.412ZM712.126 378.505C712.144 378.339 712.15 378.165 712.15 377.984C712.162 377.802 712.168 377.531 712.168 377.17C712.168 375.04 711.835 373.517 711.169 372.598C710.497 371.665 709.408 371.199 707.903 371.199C707.136 371.199 706.446 371.345 705.834 371.638C705.221 371.93 704.65 372.382 704.121 372.995C704.008 373.134 703.841 373.349 703.621 373.642C702.919 374.63 702.217 375.124 701.503 375.124C701.074 375.124 700.725 374.992 700.461 374.727C700.196 374.463 700.063 374.108 700.063 373.663C700.063 372.633 700.858 371.665 702.449 370.761C704.049 369.857 705.881 369.404 707.945 369.404C710.526 369.404 712.43 370.045 713.655 371.325C714.898 372.605 715.517 374.595 715.517 377.295C715.517 378.074 715.505 379.111 715.475 380.405C715.445 381.699 715.433 382.604 715.433 383.119C715.433 385.651 715.493 387.266 715.624 387.962C715.761 388.643 715.999 388.984 716.332 388.984C716.474 388.984 716.647 388.963 716.855 388.922C717.075 388.866 717.218 388.838 717.271 388.838C717.468 388.838 717.616 388.901 717.711 389.026C717.825 389.137 717.878 389.29 717.878 389.485C717.878 389.973 717.557 390.467 716.914 390.967C716.278 391.468 715.606 391.719 714.91 391.719C714.089 391.719 713.191 390.828 712.21 389.047C712.126 388.894 712.061 388.768 712.002 388.671H711.71C710.747 389.631 709.729 390.341 708.659 390.8C707.582 391.259 706.399 391.489 705.102 391.489C703.038 391.489 701.39 390.933 700.147 389.819C698.92 388.706 698.307 387.21 698.307 385.331C698.307 383.105 699.122 381.365 700.753 380.113C702.396 378.86 704.692 378.234 707.636 378.234C708.373 378.234 709.111 378.262 709.848 378.318C710.604 378.359 711.365 378.422 712.126 378.505ZM712.126 380.342C711.389 380.217 710.705 380.126 710.08 380.071C709.468 380.015 708.897 379.987 708.367 379.987C706.244 379.987 704.638 380.419 703.532 381.282C702.449 382.145 701.902 383.397 701.902 385.039C701.902 386.403 702.289 387.474 703.056 388.254C703.835 389.019 704.906 389.402 706.274 389.402C708.016 389.402 709.426 388.866 710.497 387.795C711.585 386.709 712.126 385.275 712.126 383.494V380.342ZM737.244 366.231C737.244 365.049 737.173 364.214 737.036 363.726C736.905 363.24 736.691 362.947 736.388 362.85C736.245 362.808 736.001 362.766 735.65 362.725C734.83 362.641 734.419 362.342 734.419 361.827C734.419 361.535 734.544 361.277 734.794 361.055C735.062 360.832 735.496 360.616 736.091 360.408C736.888 360.115 737.625 359.886 738.309 359.719C739.005 359.552 739.534 359.468 739.897 359.468C740.29 359.468 740.551 359.58 740.694 359.802C740.849 360.011 740.92 360.414 740.92 361.013C740.92 361.584 740.855 363.615 740.712 367.108C740.575 370.587 740.504 373.788 740.504 376.711C740.504 380.801 740.546 383.654 740.629 385.269C740.712 386.883 740.861 387.85 741.069 388.17C741.182 388.351 741.604 388.497 742.348 388.609C743.085 388.706 743.454 388.998 743.454 389.485C743.454 389.973 742.859 390.487 741.676 391.03C740.504 391.573 739.392 391.844 738.327 391.844C737.94 391.844 737.667 391.732 737.512 391.51C737.363 391.301 737.286 390.898 737.286 390.299V389.61C737.286 389.388 737.268 389.234 737.244 389.151C737.215 389.068 737.161 389.026 737.078 389.026C736.882 389.026 736.56 389.193 736.114 389.527C735.93 389.666 735.799 389.764 735.716 389.819C734.812 390.459 733.926 390.912 733.063 391.176C732.195 391.44 731.207 391.573 730.089 391.573C727.306 391.573 725.022 390.591 723.255 388.629C721.483 386.667 720.596 384.1 720.596 380.927C720.596 377.615 721.595 374.859 723.588 372.661C725.592 370.448 728.079 369.341 731.035 369.341C732.902 369.341 734.675 369.801 736.364 370.72C736.614 370.859 736.769 370.928 736.822 370.928C736.947 370.928 737.048 370.824 737.12 370.615C737.203 370.392 737.244 370.086 737.244 369.697V366.231ZM737.244 377.044C737.244 375.221 736.763 373.837 735.799 372.89C734.836 371.93 733.438 371.45 731.594 371.45C729.477 371.45 727.764 372.299 726.455 373.997C725.14 375.68 724.486 377.907 724.486 380.676C724.486 383.223 725.093 385.275 726.306 386.834C727.52 388.379 729.108 389.151 731.077 389.151C731.981 389.151 732.902 388.97 733.836 388.609C734.77 388.246 735.579 387.753 736.257 387.127C736.62 386.82 736.876 386.486 737.013 386.124C737.167 385.749 737.244 385.157 737.244 384.35V383.765V377.044ZM751.002 374.602C751.002 380.057 751.038 383.682 751.109 385.477C751.174 387.259 751.293 388.282 751.46 388.546C751.626 388.81 752.031 389.047 752.673 389.255C753.328 389.451 753.655 389.729 753.655 390.091C753.655 390.536 753.322 390.863 752.655 391.072C752.001 391.266 750.931 391.364 749.456 391.364C747.963 391.364 746.88 391.266 746.214 391.072C745.542 390.863 745.209 390.536 745.209 390.091C745.209 389.729 745.53 389.451 746.172 389.255C746.827 389.047 747.237 388.81 747.404 388.546C747.546 388.295 747.641 387.565 747.701 386.354C747.754 385.129 747.784 382.813 747.784 379.403V375.813C747.784 370.274 747.725 366.802 747.612 365.397C747.505 363.977 747.302 363.156 747.005 362.933C746.922 362.878 746.535 362.801 745.839 362.704C745.137 362.607 744.792 362.314 744.792 361.827C744.792 361.563 744.917 361.319 745.167 361.097C745.417 360.874 745.815 360.644 746.357 360.408C747.1 360.129 747.826 359.907 748.534 359.74C749.259 359.559 749.783 359.468 750.104 359.468C750.52 359.468 750.806 359.58 750.96 359.802C751.127 360.011 751.21 360.414 751.21 361.013C751.21 361.152 751.198 361.584 751.169 362.307C751.056 366.371 751.002 370.469 751.002 374.602ZM760.852 377.817H771.433C771.754 377.817 771.968 377.761 772.081 377.65C772.188 377.525 772.248 377.295 772.248 376.961C772.248 375.332 771.695 373.983 770.594 372.911C769.494 371.826 768.102 371.283 766.413 371.283C765.521 371.283 764.67 371.478 763.861 371.867C763.064 372.257 762.363 372.814 761.75 373.538C761.262 374.122 760.864 374.755 760.56 375.437C760.263 376.119 760.12 376.711 760.12 377.211C760.12 377.434 760.168 377.594 760.263 377.691C760.376 377.775 760.572 377.817 760.852 377.817ZM773.961 379.612H760.768C760.489 379.612 760.293 379.667 760.18 379.779C760.084 379.89 760.037 380.106 760.037 380.426C760.037 383.028 760.727 385.164 762.107 386.834C763.487 388.49 765.247 389.318 767.394 389.318C768.233 389.318 769.042 389.179 769.821 388.901C770.618 388.622 771.332 388.219 771.974 387.69C772.307 387.425 772.771 386.959 773.354 386.291C773.955 385.623 774.455 385.29 774.859 385.29C775.097 385.29 775.293 385.366 775.448 385.519C775.603 385.658 775.674 385.839 775.674 386.062C775.674 386.368 775.579 386.709 775.383 387.085C775.204 387.447 774.936 387.822 774.591 388.212C773.545 389.367 772.331 390.25 770.951 390.863C769.583 391.461 768.114 391.76 766.538 391.76C763.558 391.76 761.084 390.731 759.115 388.671C757.164 386.598 756.189 383.988 756.189 380.843C756.189 377.504 757.212 374.741 759.264 372.556C761.31 370.357 763.885 369.258 766.978 369.258C769.655 369.258 771.778 370.009 773.354 371.513C774.93 373.016 775.716 375.047 775.716 377.608C775.716 378.443 775.626 378.986 775.448 379.236C775.264 379.486 774.77 379.612 773.961 379.612ZM798.698 376.314C797.878 376.314 797.372 376.418 797.193 376.627C797.027 376.835 796.944 377.49 796.944 378.589V378.923C796.944 381.344 796.968 383.307 797.027 384.809C797.098 386.312 797.188 387.279 797.301 387.711C797.396 388.073 797.937 388.407 798.93 388.713C799.936 389.005 801.113 389.151 802.463 389.151C804.789 389.151 806.633 388.615 807.983 387.544C809.333 386.459 810.011 384.998 810.011 383.16C810.011 380.767 809.119 379.027 807.335 377.942C805.55 376.857 802.672 376.314 798.698 376.314ZM796.944 369.822V372.264C796.944 373.071 797.033 373.572 797.211 373.767C797.396 373.962 797.889 374.059 798.698 374.059C802.089 374.059 804.539 373.586 806.062 372.64C807.579 371.68 808.34 370.156 808.34 368.068C808.34 366.106 807.709 364.617 806.454 363.601C805.217 362.585 803.373 362.078 800.935 362.078C799.751 362.078 798.883 362.119 798.324 362.203C797.765 362.287 797.437 362.412 797.342 362.579C797.199 362.857 797.098 363.595 797.027 364.791C796.968 365.988 796.944 367.665 796.944 369.822ZM812.67 367.421C812.67 368.827 812.313 370.08 811.599 371.179C810.892 372.278 809.845 373.182 808.465 373.892C807.989 374.129 807.46 374.337 806.877 374.518C806.306 374.685 806.02 374.832 806.02 374.957C806.02 375.138 806.401 375.298 807.168 375.437C807.501 375.493 807.775 375.541 807.983 375.583C810.089 376.056 811.683 376.919 812.771 378.171C813.871 379.41 814.425 380.99 814.425 382.91C814.425 385.582 813.431 387.648 811.457 389.109C809.488 390.557 806.692 391.281 803.07 391.281C802.166 391.281 800.982 391.246 799.537 391.176C798.098 391.107 797.122 391.072 796.611 391.072C795.909 391.072 795.153 391.092 794.327 391.135C793.506 391.176 793.042 391.197 792.929 391.197C791.977 391.197 791.275 391.092 790.817 390.884C790.353 390.661 790.127 390.327 790.127 389.882C790.127 389.478 790.526 389.144 791.317 388.88C792.126 388.615 792.584 388.407 792.697 388.254C792.923 387.975 793.072 386.959 793.155 385.206C793.256 383.453 793.304 380.245 793.304 375.583C793.304 370.963 793.256 367.783 793.155 366.044C793.072 364.304 792.923 363.295 792.697 363.017C792.584 362.864 792.126 362.655 791.317 362.39C790.526 362.126 790.127 361.799 790.127 361.41C790.127 361.076 790.258 360.804 790.526 360.596C790.8 360.373 791.192 360.227 791.692 360.157C791.692 360.157 791.757 360.157 791.882 360.157C794.838 359.99 798.353 359.907 802.422 359.907C805.586 359.907 808.078 360.582 809.904 361.932C811.748 363.281 812.67 365.111 812.67 367.421ZM833.303 390.216V388.42C833.303 388.184 833.285 388.024 833.244 387.941C833.202 387.857 833.137 387.815 833.053 387.815C832.857 387.815 832.572 388.073 832.197 388.587C831.894 389.019 831.632 389.346 831.424 389.569C830.769 390.306 830.002 390.856 829.122 391.218C828.259 391.58 827.272 391.76 826.154 391.76C823.561 391.76 821.663 390.946 820.468 389.318C819.266 387.69 818.671 385.109 818.671 381.574V377.984C818.671 375.952 818.618 374.602 818.523 373.934C818.428 373.266 818.255 372.849 818.023 372.681C817.934 372.626 817.547 372.556 816.851 372.473C816.15 372.376 815.799 372.076 815.781 371.575C815.781 371.311 815.906 371.068 816.161 370.845C816.423 370.622 816.828 370.392 817.375 370.156C818.094 369.878 818.82 369.655 819.546 369.488C820.271 369.307 820.789 369.216 821.092 369.216C821.526 369.216 821.818 369.328 821.973 369.551C822.139 369.76 822.222 370.163 822.222 370.761C822.222 371.485 822.169 372.716 822.056 374.456C821.961 376.195 821.907 377.573 821.907 378.589V379.779C821.907 381.797 821.949 383.265 822.038 384.183C822.133 385.101 822.294 385.86 822.514 386.459C822.823 387.307 823.352 387.975 824.108 388.463C824.869 388.95 825.773 389.193 826.802 389.193C827.849 389.193 828.854 388.942 829.812 388.441C830.775 387.926 831.614 387.203 832.322 386.271C832.673 385.825 832.917 385.29 833.053 384.663C833.196 384.037 833.262 383.049 833.262 381.699V379.236V377.984C833.262 375.966 833.214 374.623 833.119 373.955C833.018 373.287 832.851 372.862 832.613 372.681C832.53 372.626 832.149 372.55 831.465 372.452C830.781 372.355 830.442 372.062 830.442 371.575C830.442 371.311 830.561 371.068 830.799 370.845C831.049 370.608 831.448 370.379 831.989 370.156C832.703 369.878 833.422 369.655 834.166 369.488C834.903 369.307 835.433 369.216 835.754 369.216C836.158 369.216 836.438 369.321 836.587 369.53C836.741 369.738 836.818 370.149 836.818 370.761C836.818 371.652 836.771 373.023 836.67 374.873C836.575 376.724 836.527 378.13 836.527 379.09C836.527 382.221 836.563 384.433 836.628 385.728C836.717 387.008 836.848 387.788 837.027 388.066C837.152 388.261 837.592 388.413 838.347 388.525C839.097 388.622 839.477 388.914 839.477 389.402C839.477 389.889 838.882 390.404 837.699 390.946C836.527 391.489 835.403 391.76 834.332 391.76C833.952 391.76 833.69 391.649 833.535 391.427C833.381 391.218 833.303 390.814 833.303 390.216ZM843.153 362.307C843.153 361.639 843.379 361.082 843.825 360.637C844.271 360.178 844.818 359.948 845.479 359.948C846.133 359.948 846.662 360.143 847.067 360.533C847.483 360.923 847.691 361.423 847.691 362.036C847.691 362.662 847.471 363.198 847.025 363.643C846.579 364.089 846.032 364.311 845.389 364.311C844.765 364.311 844.236 364.123 843.801 363.748C843.373 363.358 843.153 362.878 843.153 362.307ZM843.968 383.077C843.968 379.723 843.926 377.274 843.843 375.729C843.76 374.17 843.623 373.245 843.427 372.953C843.302 372.758 842.868 372.612 842.13 372.514C841.392 372.403 841.024 372.104 841.024 371.617C841.024 371.339 841.131 371.095 841.357 370.886C841.595 370.664 841.999 370.434 842.57 370.198C843.266 369.919 843.956 369.697 844.64 369.53C845.336 369.349 845.889 369.258 846.294 369.258C846.668 369.258 846.93 369.369 847.085 369.592C847.239 369.801 847.317 370.205 847.317 370.803C847.317 370.942 847.311 371.345 847.293 372.013C847.198 375.869 847.15 379.772 847.15 383.724C847.15 385.617 847.192 386.89 847.275 387.544C847.358 388.198 847.495 388.615 847.691 388.796C847.846 388.935 848.215 389.096 848.804 389.277C849.386 389.457 849.678 389.729 849.678 390.091C849.678 390.522 849.351 390.842 848.697 391.051C848.042 391.259 847.007 391.364 845.604 391.364C844.123 391.364 843.052 391.266 842.38 391.072C841.726 390.863 841.398 390.536 841.398 390.091C841.398 389.729 841.69 389.457 842.279 389.277C842.862 389.096 843.23 388.935 843.385 388.796C843.593 388.602 843.742 388.108 843.825 387.314C843.92 386.507 843.968 385.095 843.968 383.077ZM857.69 374.602C857.69 380.057 857.725 383.682 857.791 385.477C857.862 387.259 857.981 388.282 858.148 388.546C858.314 388.81 858.719 389.047 859.361 389.255C860.015 389.451 860.343 389.729 860.343 390.091C860.343 390.536 860.009 390.863 859.337 391.072C858.683 391.266 857.618 391.364 856.143 391.364C854.65 391.364 853.568 391.266 852.902 391.072C852.23 390.863 851.897 390.536 851.897 390.091C851.897 389.729 852.218 389.451 852.86 389.255C853.514 389.047 853.925 388.81 854.091 388.546C854.228 388.295 854.329 387.565 854.383 386.354C854.442 385.129 854.466 382.813 854.466 379.403V375.813C854.466 370.274 854.412 366.802 854.299 365.397C854.186 363.977 853.984 363.156 853.693 362.933C853.609 362.878 853.223 362.801 852.521 362.704C851.825 362.607 851.48 362.314 851.48 361.827C851.48 361.563 851.605 361.319 851.855 361.097C852.105 360.874 852.503 360.644 853.044 360.408C853.782 360.129 854.508 359.907 855.221 359.74C855.947 359.559 856.47 359.468 856.792 359.468C857.208 359.468 857.493 359.58 857.648 359.802C857.815 360.011 857.898 360.414 857.898 361.013C857.898 361.152 857.88 361.584 857.856 362.307C857.743 366.371 857.69 370.469 857.69 374.602ZM879.394 366.231C879.394 365.049 879.322 364.214 879.185 363.726C879.061 363.24 878.841 362.947 878.537 362.85C878.394 362.808 878.151 362.766 877.806 362.725C876.979 362.641 876.568 362.342 876.568 361.827C876.568 361.535 876.693 361.277 876.949 361.055C877.211 360.832 877.645 360.616 878.246 360.408C879.037 360.115 879.774 359.886 880.458 359.719C881.154 359.552 881.684 359.468 882.046 359.468C882.439 359.468 882.707 359.58 882.843 359.802C882.998 360.011 883.075 360.414 883.075 361.013C883.075 361.584 883.004 363.615 882.861 367.108C882.725 370.587 882.653 373.788 882.653 376.711C882.653 380.801 882.695 383.654 882.778 385.269C882.861 386.883 883.01 387.85 883.218 388.17C883.331 388.351 883.754 388.497 884.497 388.609C885.235 388.706 885.603 388.998 885.603 389.485C885.603 389.973 885.009 390.487 883.825 391.03C882.653 391.573 881.541 391.844 880.482 391.844C880.09 391.844 879.816 391.732 879.667 391.51C879.513 391.301 879.435 390.898 879.435 390.299V389.61C879.435 389.388 879.423 389.234 879.394 389.151C879.364 389.068 879.31 389.026 879.227 389.026C879.031 389.026 878.71 389.193 878.264 389.527C878.085 389.666 877.948 389.764 877.865 389.819C876.961 390.459 876.075 390.912 875.212 391.176C874.344 391.44 873.357 391.573 872.244 391.573C869.455 391.573 867.177 390.591 865.404 388.629C863.632 386.667 862.746 384.1 862.746 380.927C862.746 377.615 863.745 374.859 865.737 372.661C867.748 370.448 870.228 369.341 873.184 369.341C875.052 369.341 876.83 369.801 878.513 370.72C878.763 370.859 878.918 370.928 878.977 370.928C879.102 370.928 879.197 370.824 879.269 370.615C879.352 370.392 879.394 370.086 879.394 369.697V366.231ZM879.394 377.044C879.394 375.221 878.912 373.837 877.948 372.89C876.991 371.93 875.587 371.45 873.749 371.45C871.626 371.45 869.913 372.299 868.604 373.997C867.296 375.68 866.635 377.907 866.635 380.676C866.635 383.223 867.242 385.275 868.455 386.834C869.669 388.379 871.257 389.151 873.226 389.151C874.13 389.151 875.052 388.97 875.986 388.609C876.919 388.246 877.728 387.753 878.412 387.127C878.775 386.82 879.025 386.486 879.162 386.124C879.316 385.749 879.394 385.157 879.394 384.35V383.765V377.044ZM915.735 360.408C916.069 360.102 916.342 359.886 916.55 359.761C916.776 359.621 916.979 359.552 917.157 359.552C917.686 359.552 918.281 360.178 918.935 361.43C919.602 362.683 919.941 363.97 919.941 365.292C919.941 365.793 919.839 366.183 919.643 366.461C919.453 366.74 919.191 366.879 918.87 366.879C918.412 366.879 917.859 366.426 917.222 365.522C916.943 365.118 916.717 364.812 916.55 364.603C915.759 363.615 914.843 362.884 913.814 362.412C912.797 361.939 911.625 361.702 910.299 361.702C908.568 361.702 907.182 362.168 906.136 363.101C905.095 364.019 904.571 365.236 904.571 366.753C904.571 368.228 904.97 369.412 905.761 370.302C906.558 371.193 908.324 372.187 911.072 373.287C911.364 373.412 911.804 373.586 912.393 373.809C915.164 374.894 917.163 376 918.394 377.128C919.173 377.837 919.756 378.672 920.149 379.632C920.553 380.579 920.755 381.63 920.755 382.785C920.755 385.443 919.732 387.634 917.68 389.36C915.628 391.072 912.999 391.927 909.776 391.927C907.837 391.927 906.034 391.656 904.363 391.113C902.704 390.57 901.55 389.917 900.907 389.151C900.604 388.748 900.33 388.017 900.092 386.959C899.872 385.888 899.759 384.733 899.759 383.494C899.759 382.868 899.849 382.388 900.033 382.054C900.229 381.706 900.491 381.532 900.824 381.532C901.443 381.532 901.978 382.283 902.436 383.787C902.674 384.566 902.882 385.171 903.066 385.603C903.608 386.883 904.47 387.871 905.66 388.567C906.843 389.262 908.241 389.61 909.859 389.61C911.953 389.61 913.648 389.047 914.938 387.919C916.235 386.792 916.883 385.345 916.883 383.578C916.883 383.077 916.818 382.611 916.675 382.179C916.55 381.734 916.348 381.303 916.069 380.885C915.176 379.605 913.309 378.422 910.466 377.336C909.907 377.114 909.484 376.947 909.193 376.835C908.937 376.738 908.568 376.599 908.081 376.418C905.446 375.416 903.584 374.303 902.501 373.078C901.93 372.438 901.496 371.721 901.205 370.928C900.925 370.135 900.782 369.251 900.782 368.277C900.782 365.675 901.669 363.574 903.441 361.973C905.214 360.359 907.539 359.552 910.424 359.552C911.15 359.552 911.947 359.628 912.809 359.782C913.689 359.92 914.665 360.129 915.735 360.408ZM941.312 376.585C940.836 376.585 940.425 376.432 940.074 376.126C939.729 375.82 939.343 375.228 938.926 374.352C938.409 373.28 937.832 372.501 937.19 372.013C936.547 371.526 935.768 371.283 934.846 371.283C932.645 371.283 930.915 372.056 929.66 373.6C928.41 375.131 927.78 377.26 927.78 379.987C927.78 382.674 928.5 384.879 929.933 386.605C931.373 388.33 933.199 389.193 935.411 389.193C936.125 389.193 936.827 389.075 937.523 388.838C938.236 388.602 938.926 388.247 939.593 387.773C939.943 387.537 940.425 387.112 941.038 386.5C941.651 385.874 942.144 385.561 942.525 385.561C942.757 385.561 942.953 385.638 943.108 385.791C943.262 385.943 943.34 386.152 943.34 386.417C943.34 386.723 943.227 387.071 943.001 387.46C942.793 387.85 942.489 388.254 942.085 388.671C941.121 389.687 939.991 390.459 938.694 390.988C937.416 391.503 936.018 391.76 934.513 391.76C931.39 391.76 928.857 390.744 926.9 388.713C924.949 386.681 923.973 384.044 923.973 380.801C923.973 377.504 925.008 374.762 927.072 372.577C929.148 370.392 931.741 369.3 934.846 369.3C937.106 369.3 939.057 369.85 940.705 370.949C942.364 372.048 943.191 373.252 943.191 374.56C943.191 375.145 943.013 375.632 942.65 376.021C942.299 376.397 941.853 376.585 941.312 376.585ZM951.411 373.412C952.303 372.048 953.243 371.005 954.23 370.281C955.236 369.543 956.211 369.175 957.163 369.175C957.942 369.175 958.566 369.418 959.042 369.906C959.53 370.392 959.774 371.033 959.774 371.826C959.774 372.522 959.548 373.099 959.102 373.558C958.673 374.004 958.12 374.226 957.454 374.226C956.853 374.226 956.36 374.039 955.967 373.663C955.581 373.287 955.331 372.765 955.236 372.097C953.761 372.57 952.726 373.322 952.143 374.352C951.572 375.367 951.286 377.58 951.286 380.99C951.286 383.55 951.316 385.401 951.387 386.542C951.459 387.669 951.572 388.337 951.72 388.546C951.934 388.866 952.422 389.082 953.189 389.193C953.439 389.221 953.642 389.249 953.796 389.277C954.1 389.332 954.343 389.429 954.528 389.569C954.706 389.708 954.795 389.882 954.795 390.091C954.795 390.536 954.397 390.863 953.606 391.072C952.809 391.266 951.572 391.364 949.882 391.364C948.378 391.364 947.289 391.266 946.623 391.072C945.963 390.863 945.636 390.536 945.636 390.091C945.636 389.729 945.933 389.457 946.516 389.277C947.099 389.096 947.462 388.935 947.604 388.796C947.824 388.602 947.979 388.149 948.062 387.44C948.163 386.73 948.211 385.492 948.211 383.724C948.211 381.331 948.175 379.347 948.104 377.775C948.051 376.189 947.949 375.012 947.813 374.247C947.729 373.663 947.592 373.266 947.396 373.057C947.2 372.835 946.772 372.724 946.117 372.724H945.719C945.499 372.724 945.297 372.64 945.118 372.473C944.946 372.306 944.862 372.104 944.862 371.867C944.862 371.603 944.969 371.367 945.178 371.158C945.386 370.935 945.772 370.692 946.326 370.427C947.039 370.052 947.723 369.752 948.378 369.53C949.032 369.293 949.49 369.175 949.758 369.175C950.132 369.175 950.424 369.481 950.638 370.093C950.846 370.692 951.018 371.756 951.161 373.287L951.411 373.412ZM962.932 362.307C962.932 361.639 963.152 361.082 963.598 360.637C964.044 360.178 964.598 359.948 965.252 359.948C965.906 359.948 966.436 360.143 966.84 360.533C967.262 360.923 967.47 361.423 967.47 362.036C967.47 362.662 967.244 363.198 966.798 363.643C966.352 364.089 965.811 364.311 965.169 364.311C964.544 364.311 964.009 364.123 963.58 363.748C963.146 363.358 962.932 362.878 962.932 362.307ZM963.747 383.077C963.747 379.723 963.705 377.274 963.622 375.729C963.539 374.17 963.396 373.245 963.206 372.953C963.075 372.758 962.647 372.612 961.909 372.514C961.166 372.403 960.797 372.104 960.797 371.617C960.797 371.339 960.91 371.095 961.13 370.886C961.368 370.664 961.772 370.434 962.343 370.198C963.045 369.919 963.735 369.697 964.413 369.53C965.115 369.349 965.662 369.258 966.067 369.258C966.441 369.258 966.709 369.369 966.864 369.592C967.018 369.801 967.09 370.205 967.09 370.803C967.09 370.942 967.084 371.345 967.072 372.013C966.977 375.869 966.923 379.772 966.923 383.724C966.923 385.617 966.965 386.89 967.048 387.544C967.131 388.198 967.274 388.615 967.47 388.796C967.619 388.935 967.994 389.096 968.577 389.277C969.16 389.457 969.457 389.729 969.457 390.091C969.457 390.522 969.13 390.842 968.47 391.051C967.815 391.259 966.786 391.364 965.377 391.364C963.902 391.364 962.825 391.266 962.159 391.072C961.505 390.863 961.178 390.536 961.178 390.091C961.178 389.729 961.469 389.457 962.052 389.277C962.641 389.096 963.009 388.935 963.158 388.796C963.372 388.602 963.515 388.108 963.598 387.314C963.699 386.507 963.747 385.095 963.747 383.077ZM977.421 371.826C977.421 372.062 977.433 372.222 977.463 372.306C977.493 372.376 977.546 372.417 977.629 372.431C977.855 372.431 978.218 372.215 978.718 371.784C978.801 371.715 978.867 371.659 978.908 371.617C979.896 370.824 980.806 370.267 981.626 369.947C982.459 369.613 983.351 369.446 984.303 369.446C987.176 369.446 989.484 370.4 991.22 372.306C992.981 374.198 993.855 376.703 993.855 379.821C993.855 383.244 992.838 386.083 990.804 388.337C988.782 390.591 986.248 391.719 983.191 391.719C982.257 391.719 981.347 391.593 980.455 391.343C979.574 391.107 978.664 390.731 977.713 390.216L977.421 390.383C977.421 392.512 977.451 394.078 977.505 395.079C977.564 396.082 977.659 396.694 977.796 396.916C977.992 397.236 978.468 397.473 979.218 397.626C979.985 397.779 980.371 398.043 980.371 398.419C980.371 398.892 980.026 399.233 979.348 399.442C978.676 399.651 977.564 399.755 976 399.755C974.424 399.755 973.293 399.651 972.615 399.442C971.931 399.233 971.586 398.892 971.586 398.419C971.586 398.071 971.908 397.8 972.55 397.605C973.192 397.41 973.603 397.181 973.781 396.916C973.924 396.707 974.019 396.054 974.079 394.954C974.132 393.855 974.162 391.775 974.162 388.713V382.43C974.162 378.311 974.102 375.723 973.995 374.664C973.894 373.593 973.716 372.953 973.448 372.744C973.353 372.675 972.954 372.591 972.259 372.494C971.563 372.396 971.212 372.104 971.212 371.617C971.212 371.13 971.795 370.615 972.966 370.072C974.156 369.53 975.274 369.258 976.333 369.258C976.737 369.258 977.017 369.369 977.172 369.592C977.338 369.815 977.421 370.218 977.421 370.803V371.826ZM977.421 377.691V384.476C977.421 385.436 977.463 386.104 977.546 386.479C977.63 386.841 977.772 387.147 977.969 387.398C978.522 388.108 979.313 388.692 980.33 389.151C981.359 389.597 982.4 389.819 983.447 389.819C985.594 389.819 987.259 389.088 988.443 387.627C989.626 386.152 990.221 384.079 990.221 381.407C990.221 378.526 989.573 376.237 988.276 374.539C986.991 372.842 985.273 371.993 983.108 371.993C981.299 371.993 979.896 372.487 978.908 373.475C977.915 374.463 977.421 375.869 977.421 377.691ZM998.75 372.389H996.954C996.746 372.389 996.585 372.355 996.472 372.285C996.359 372.202 996.306 372.09 996.306 371.951V371.367C996.306 370.949 996.829 370.163 997.87 369.008C998.18 368.688 998.411 368.437 998.56 368.256C998.733 368.076 998.953 367.825 999.232 367.505C1000.28 366.308 1000.99 365.71 1001.37 365.71C1001.59 365.71 1001.75 365.765 1001.87 365.876C1001.99 365.988 1002.06 366.148 1002.06 366.357V370.156H1006.36C1006.64 370.156 1006.83 370.226 1006.95 370.365C1007.07 370.49 1007.14 370.705 1007.14 371.012V371.575C1007.14 371.854 1007.07 372.062 1006.95 372.202C1006.82 372.327 1006.63 372.389 1006.36 372.389H1002.52C1002.37 372.389 1002.27 372.452 1002.18 372.577C1002.1 372.688 1002.06 372.855 1002.06 373.078V384.663C1002.06 386.417 1002.22 387.606 1002.56 388.233C1002.91 388.845 1003.5 389.151 1004.35 389.151C1004.76 389.151 1005.23 389.04 1005.78 388.817C1006.32 388.581 1006.66 388.463 1006.8 388.463C1007.02 388.463 1007.2 388.525 1007.33 388.65C1007.46 388.776 1007.54 388.942 1007.54 389.151C1007.54 389.764 1007.07 390.362 1006.13 390.946C1005.2 391.517 1004.15 391.802 1003 391.802C1001.47 391.802 1000.39 391.336 999.732 390.404C999.078 389.471 998.75 387.899 998.75 385.686V372.389ZM1019.31 369.697C1019.59 369.53 1019.82 369.412 1020 369.341C1020.19 369.258 1020.36 369.216 1020.5 369.216C1021.01 369.216 1021.53 369.697 1022.04 370.657C1022.56 371.603 1022.82 372.633 1022.82 373.746C1022.82 374.219 1022.72 374.588 1022.52 374.853C1022.33 375.117 1022.07 375.249 1021.73 375.249C1021.25 375.249 1020.81 374.832 1020.44 373.997C1020.35 373.816 1020.29 373.684 1020.25 373.6C1019.76 372.57 1019.24 371.874 1018.68 371.513C1018.12 371.151 1017.37 370.97 1016.42 370.97C1015.43 370.97 1014.59 371.283 1013.89 371.909C1013.21 372.522 1012.86 373.28 1012.86 374.185C1012.86 375.799 1014.63 377.357 1018.16 378.861C1018.85 379.166 1019.39 379.403 1019.76 379.57C1020.98 380.113 1021.92 380.892 1022.59 381.908C1023.27 382.91 1023.61 384.037 1023.61 385.29C1023.61 387.21 1022.92 388.776 1021.54 389.986C1020.16 391.197 1018.37 391.802 1016.17 391.802C1015.47 391.802 1014.68 391.684 1013.79 391.447C1012.91 391.225 1012.38 391.113 1012.2 391.113C1012 391.113 1011.73 391.19 1011.4 391.343C1011.08 391.496 1010.86 391.573 1010.74 391.573C1010.34 391.573 1009.93 391.064 1009.5 390.049C1009.06 389.033 1008.85 387.975 1008.85 386.876C1008.85 386.459 1008.96 386.124 1009.18 385.874C1009.42 385.61 1009.72 385.477 1010.09 385.477C1010.49 385.477 1010.94 385.909 1011.43 386.772C1011.6 387.105 1011.74 387.356 1011.84 387.523C1012.29 388.289 1012.88 388.88 1013.62 389.297C1014.37 389.715 1015.21 389.923 1016.13 389.923C1017.4 389.923 1018.43 389.582 1019.22 388.901C1020.01 388.219 1020.41 387.342 1020.41 386.271C1020.41 385.421 1020.19 384.705 1019.72 384.121C1019.26 383.522 1018.51 382.972 1017.47 382.472C1017.09 382.291 1016.5 382.047 1015.69 381.741C1013.55 380.906 1012.01 380.036 1011.07 379.132C1010.52 378.616 1010.11 378.025 1009.81 377.357C1009.53 376.689 1009.4 375.973 1009.4 375.207C1009.4 373.468 1010.05 372.035 1011.34 370.907C1012.63 369.78 1014.29 369.216 1016.3 369.216C1016.71 369.216 1017.17 369.258 1017.68 369.341C1018.18 369.425 1018.72 369.543 1019.31 369.697Z"/><path fill="#1C282C" d="M649 279.054C649 277.799 649.214 276.629 649.642 275.543C650.07 274.457 650.669 273.51 651.44 272.703C652.21 271.897 653.132 271.264 654.205 270.805C655.278 270.346 656.453 270.116 657.732 270.116C658.702 270.116 659.584 270.256 660.377 270.536C661.17 270.816 661.938 271.275 662.68 271.914V270.452H667.028V287.656H662.68V286.194C661.938 286.833 661.17 287.292 660.377 287.572C659.584 287.852 658.702 287.992 657.732 287.992C656.453 287.992 655.277 287.762 654.205 287.303C653.132 286.844 652.21 286.211 651.44 285.405C650.669 284.598 650.07 283.651 649.642 282.565C649.214 281.479 649 280.309 649 279.054ZM658.297 283.976C658.639 283.976 658.998 283.94 659.376 283.868C659.752 283.794 660.132 283.671 660.514 283.498C660.896 283.324 661.27 283.091 661.635 282.801C662 282.509 662.348 282.151 662.68 281.725V276.383C662.348 275.957 662 275.601 661.635 275.316C661.27 275.03 660.896 274.798 660.514 274.619C660.132 274.439 659.752 274.313 659.375 274.24C658.998 274.168 658.639 274.132 658.297 274.131C657.623 274.131 656.992 274.255 656.405 274.501C655.817 274.747 655.306 275.092 654.872 275.534C654.439 275.977 654.099 276.497 653.853 277.097C653.608 277.696 653.485 278.349 653.485 279.054C653.485 279.759 653.608 280.412 653.853 281.011C654.099 281.61 654.439 282.131 654.872 282.574C655.306 283.016 655.817 283.36 656.405 283.607C656.993 283.853 657.623 283.976 658.297 283.976ZM677.899 274.363C675.839 274.378 674.048 275.787 674.048 277.878V287.656H669.7V277.995C669.724 273.967 673.279 270.17 677.837 270.116H677.959C682.516 270.17 686.071 273.967 686.095 277.995V287.656H681.747V277.878C681.747 275.787 679.956 274.378 677.896 274.363H677.899ZM688.154 279.054C688.154 277.799 688.368 276.629 688.796 275.543C689.224 274.457 689.824 273.51 690.594 272.703C691.364 271.897 692.286 271.264 693.359 270.805C694.432 270.346 695.607 270.116 696.885 270.116C697.856 270.116 698.741 270.256 699.539 270.536C700.338 270.816 701.103 271.27 701.834 271.897V265.294H706.183V287.656H701.834V286.211C701.103 286.849 700.338 287.306 699.539 287.58C698.741 287.855 697.856 287.992 696.885 287.992C695.607 287.992 694.432 287.762 693.359 287.303C692.286 286.844 691.364 286.211 690.594 285.405C689.824 284.598 689.224 283.651 688.796 282.565C688.368 281.479 688.154 280.309 688.154 279.054ZM697.451 283.976C697.793 283.976 698.152 283.94 698.529 283.868C698.906 283.794 699.285 283.671 699.668 283.498C700.05 283.324 700.424 283.091 700.789 282.801C701.154 282.509 701.502 282.151 701.834 281.725V276.383C701.502 275.957 701.154 275.601 700.789 275.316C700.424 275.03 700.05 274.798 699.668 274.619C699.285 274.439 698.906 274.313 698.529 274.24C698.152 274.168 697.793 274.132 697.451 274.131C696.777 274.131 696.147 274.255 695.558 274.501C694.971 274.747 694.46 275.092 694.027 275.534C693.593 275.977 693.253 276.497 693.007 277.097C692.762 277.696 692.639 278.349 692.64 279.054C692.64 279.759 692.762 280.412 693.007 281.011C693.253 281.61 693.593 282.131 694.026 282.574C694.46 283.016 694.971 283.36 695.558 283.607C696.147 283.853 696.777 283.976 697.451 283.976ZM726.547 283.976C727.198 283.976 727.811 283.856 728.387 283.615C728.955 283.381 729.469 283.034 729.892 282.599C730.32 282.162 730.659 281.644 730.903 281.045C731.153 280.446 731.272 279.782 731.272 279.054C731.272 278.337 731.147 277.679 730.897 277.08C730.647 276.481 730.302 275.962 729.868 275.526C729.44 275.092 728.927 274.743 728.362 274.501C727.791 274.255 727.187 274.132 726.547 274.131C725.896 274.131 725.283 274.255 724.707 274.501C724.14 274.741 723.628 275.09 723.2 275.526C722.772 275.962 722.432 276.481 722.181 277.08C721.93 277.679 721.805 278.337 721.805 279.054C721.805 279.782 721.927 280.446 722.172 281.045C722.418 281.644 722.755 282.162 723.183 282.599C723.609 283.034 724.122 283.381 724.69 283.615C725.266 283.856 725.885 283.976 726.547 283.976ZM726.547 287.992C725.28 287.992 724.088 287.768 722.969 287.32C721.85 286.872 720.872 286.247 720.033 285.446C719.194 284.646 718.532 283.699 718.046 282.607C717.562 281.515 717.319 280.331 717.319 279.054C717.319 277.811 717.562 276.646 718.046 275.56C718.532 274.473 719.191 273.527 720.024 272.72C720.857 271.914 721.836 271.278 722.96 270.813C724.085 270.348 725.28 270.116 726.547 270.116C727.814 270.116 729.007 270.348 730.124 270.813C731.242 271.278 732.217 271.914 733.056 272.72C733.889 273.527 734.543 274.473 735.031 275.56C735.518 276.646 735.756 277.811 735.756 279.054C735.756 280.331 735.518 281.515 735.031 282.607C734.543 283.699 733.883 284.646 733.044 285.446C732.205 286.247 731.23 286.872 730.118 287.32C729.004 287.768 727.814 287.992 726.547 287.992ZM739.878 269.105C739.527 269.105 739.194 269.037 738.879 268.903C738.576 268.771 738.296 268.584 738.058 268.352C737.82 268.118 737.63 267.843 737.493 267.541C737.356 267.232 737.285 266.898 737.291 266.56C737.291 266.215 737.356 265.885 737.493 265.572C737.624 265.267 737.82 264.989 738.058 264.753C738.296 264.521 738.576 264.334 738.885 264.203C739.194 264.067 739.539 263.998 739.884 264C740.235 264 740.568 264.068 740.889 264.203C741.199 264.333 741.484 264.52 741.722 264.753C741.96 264.989 742.15 265.267 742.281 265.572C742.424 265.885 742.489 266.215 742.489 266.561C742.489 266.906 742.424 267.233 742.281 267.541C742.15 267.843 741.96 268.118 741.722 268.352C741.484 268.586 741.199 268.773 740.889 268.903C740.568 269.037 740.229 269.106 739.878 269.105ZM737.707 270.452H742.055V287.656H737.707V270.452ZM744.054 279.054C744.054 277.799 744.268 276.629 744.696 275.543C745.124 274.457 745.725 273.51 746.492 272.703C747.265 271.897 748.187 271.264 749.258 270.805C750.335 270.346 751.506 270.116 752.785 270.116C753.755 270.116 754.641 270.256 755.438 270.536C756.241 270.816 757.002 271.27 757.734 271.897V265.294H762.082V287.656H757.734V286.211C757.002 286.849 756.241 287.306 755.438 287.58C754.641 287.855 753.755 287.992 752.785 287.992C751.506 287.992 750.335 287.762 749.258 287.303C748.187 286.844 747.265 286.211 746.492 285.405C745.725 284.598 745.124 283.651 744.696 282.565C744.268 281.479 744.054 280.309 744.054 279.054ZM753.35 283.976C753.695 283.976 754.052 283.94 754.433 283.868C754.807 283.794 755.188 283.671 755.569 283.498C755.949 283.324 756.324 283.091 756.687 282.801C757.056 282.509 757.401 282.151 757.734 281.725V276.383C757.401 275.957 757.056 275.601 756.687 275.316C756.324 275.03 755.949 274.798 755.569 274.619C755.188 274.439 754.807 274.313 754.433 274.24C754.052 274.168 753.695 274.132 753.35 274.131C752.678 274.131 752.048 274.255 751.459 274.501C750.87 274.747 750.358 275.092 749.924 275.534C749.496 275.977 749.151 276.497 748.907 277.097C748.663 277.696 748.538 278.349 748.538 279.054C748.538 279.759 748.663 280.412 748.907 281.011C749.151 281.61 749.496 282.131 749.924 282.574C750.358 283.016 750.87 283.36 751.459 283.607C752.048 283.853 752.678 283.976 753.35 283.976ZM716.904 274.311C713.99 274.311 712.705 275.787 712.705 277.878V287.656H708.357V277.995C708.38 273.967 710.752 270.007 716.904 270.007"/></svg>