<svg xmlns="http://www.w3.org/2000/svg" xmlns:xlink="http://www.w3.org/1999/xlink" width="1920" height="1080" viewBox="0 0 1920 1080">
  <defs>
    <clipPath id="clip-path">
      <rect id="Rectangle_6" data-name="Rectangle 6" width="665.975" height="886.693" fill="#fff" stroke="#707070" stroke-width="1"/>
    </clipPath>
    <clipPath id="clip-path-2">
      <rect width="44.657" height="53.476" fill="none"/>
    </clipPath>
    <clipPath id="clip-Web_1920_1">
      <rect width="1920" height="1080"/>
    </clipPath>
  </defs>
  <g id="Web_1920_1" data-name="Web 1920 – 1" clip-path="url(#clip-Web_1920_1)">
    <rect width="1920" height="1080" fill="#2eeaff"/>
    <g id="Group_4" data-name="Group 4" transform="translate(-267 -1256)">
      <g id="Mask_Group_1" data-name="Mask Group 1" transform="translate(1399.667 1449.307)" clip-path="url(#clip-path)">
        <g id="Group_1" data-name="Group 1">
          <rect id="Rectangle_2" data-name="Rectangle 2" width="617.975" height="243.26" fill="#231f20"/>
          <path id="Exclusion_1" data-name="Exclusion 1" d="M74.871,105.227A40.287,40.287,0,0,1,34.588,66.609H77.126l-21.5-37.136a40.328,40.328,0,1,1,19.244,75.755ZM34.588,66.609H0L38.563,0,55.627,29.473A40.325,40.325,0,0,0,34.553,64.91c0,.565.012,1.136.035,1.7Z" transform="translate(56.246 66.884)" fill="#fff"/>
          <rect id="Rectangle_3" data-name="Rectangle 3" width="346.256" height="5.421" rx="2.71" transform="translate(230.385 72.504)" fill="#fff"/>
          <rect id="Rectangle_4" data-name="Rectangle 4" width="346.256" height="5.421" rx="2.71" transform="translate(230.385 117.903)" fill="#fff"/>
          <rect id="Rectangle_5" data-name="Rectangle 5" width="346.256" height="5.421" rx="2.71" transform="translate(230.385 163.303)" fill="#fff"/>
        </g>
        <g id="Group_2" data-name="Group 2" transform="translate(0 243.26)">
          <g id="Rectangle_2-2" data-name="Rectangle 2" fill="none" stroke="#fff" stroke-width="7">
            <rect width="618.691" height="243.26" stroke="none"/>
            <rect x="3.5" y="3.5" width="611.691" height="236.26" fill="none"/>
          </g>
          <path id="Exclusion_1-2" data-name="Exclusion 1" d="M74.871,105.227A40.287,40.287,0,0,1,34.588,66.609H77.126l-21.5-37.136a40.328,40.328,0,1,1,19.244,75.755ZM34.588,66.609H0L38.563,0,55.627,29.473A40.325,40.325,0,0,0,34.553,64.91c0,.565.012,1.136.035,1.7Z" transform="translate(56.246 66.884)" fill="#fff"/>
          <rect id="Rectangle_3-2" data-name="Rectangle 3" width="346.256" height="5.421" rx="2.71" transform="translate(230.385 72.504)" fill="#fff"/>
          <rect id="Rectangle_4-2" data-name="Rectangle 4" width="346.256" height="5.421" rx="2.71" transform="translate(230.385 117.903)" fill="#fff"/>
          <rect id="Rectangle_5-2" data-name="Rectangle 5" width="346.256" height="5.421" rx="2.71" transform="translate(230.385 163.303)" fill="#fff"/>
        </g>
        <g id="Group_2-2" data-name="Group 2" transform="translate(0 481.099)">
          <g id="Rectangle_2-3" data-name="Rectangle 2" fill="none" stroke="#fff" stroke-width="7">
            <rect width="618.691" height="243.26" stroke="none"/>
            <rect x="3.5" y="3.5" width="611.691" height="236.26" fill="none"/>
          </g>
          <path id="Exclusion_1-3" data-name="Exclusion 1" d="M74.871,105.227A40.287,40.287,0,0,1,34.588,66.609H77.126l-21.5-37.136a40.328,40.328,0,1,1,19.244,75.755ZM34.588,66.609H0L38.563,0,55.627,29.473A40.325,40.325,0,0,0,34.553,64.91c0,.565.012,1.136.035,1.7Z" transform="translate(56.246 66.884)" fill="#fff"/>
          <rect id="Rectangle_3-3" data-name="Rectangle 3" width="346.256" height="5.421" rx="2.71" transform="translate(230.385 72.504)" fill="#fff"/>
          <rect id="Rectangle_4-3" data-name="Rectangle 4" width="346.256" height="5.421" rx="2.71" transform="translate(230.385 117.903)" fill="#fff"/>
          <rect id="Rectangle_5-3" data-name="Rectangle 5" width="346.256" height="5.421" rx="2.71" transform="translate(230.385 163.303)" fill="#fff"/>
        </g>
        <g id="Group_2-3" data-name="Group 2" transform="translate(0 718.938)">
          <g id="Rectangle_2-4" data-name="Rectangle 2" fill="none" stroke="#fff" stroke-width="7">
            <rect width="618.691" height="243.26" stroke="none"/>
            <rect x="3.5" y="3.5" width="611.691" height="236.26" fill="none"/>
          </g>
          <path id="Exclusion_1-4" data-name="Exclusion 1" d="M74.871,105.227A40.287,40.287,0,0,1,34.588,66.609H77.126l-21.5-37.136a40.328,40.328,0,1,1,19.244,75.755ZM34.588,66.609H0L38.563,0,55.627,29.473A40.325,40.325,0,0,0,34.553,64.91c0,.565.012,1.136.035,1.7Z" transform="translate(56.246 66.884)" fill="#fff"/>
          <rect id="Rectangle_3-4" data-name="Rectangle 3" width="346.256" height="5.421" rx="2.71" transform="translate(230.385 72.504)" fill="#fff"/>
          <rect id="Rectangle_4-4" data-name="Rectangle 4" width="346.256" height="5.421" rx="2.71" transform="translate(230.385 117.903)" fill="#fff"/>
          <rect id="Rectangle_5-4" data-name="Rectangle 5" width="346.256" height="5.421" rx="2.71" transform="translate(230.385 163.303)" fill="#fff"/>
        </g>
      </g>
    </g>
    <g id="Group_6" data-name="Group 6" transform="translate(0 24)">
      <text id="ListAdapter" transform="translate(156 428)" fill="#231f20" font-size="88" font-family="Montserrat-Bold, Montserrat" font-weight="700"><tspan x="0" y="85">ListAdapter</tspan></text>
      <text id="A_RecyclerView_Adapter_Extension" data-name="A RecyclerView Adapter
Extension" transform="translate(156 537)" fill="#231f20" font-size="48" font-family="Montserrat-Regular, Montserrat"><tspan x="0" y="46">A RecyclerView Adapter</tspan><tspan x="0" y="104">Extension</tspan></text>
      <g id="Group_5" data-name="Group 5" transform="translate(-4 2)">
        <g id="android-svgrepo-com" transform="translate(160.456 370)" clip-path="url(#clip-path-2)">
          <path id="Path_3" data-name="Path 3" d="M146.69,205.664a3.428,3.428,0,0,0,3.347-3.347V194.5h2.235a2.112,2.112,0,0,0,2.235-2.235V169.937h-26.8v22.327a2.112,2.112,0,0,0,2.235,2.235h2.235v7.817a3.347,3.347,0,1,0,6.694,0V194.5h4.47v7.817A3.428,3.428,0,0,0,146.69,205.664Z" transform="translate(-118.779 -152.188)" fill="#231f20"/>
          <path id="Path_4" data-name="Path 4" d="M409.039,192.264a3.428,3.428,0,0,0,3.347-3.347V173.283a3.347,3.347,0,0,0-6.694,0v15.634A3.428,3.428,0,0,0,409.039,192.264Z" transform="translate(-367.729 -152.188)" fill="#231f20"/>
          <path id="Path_5" data-name="Path 5" d="M45.563,192.264a3.428,3.428,0,0,0,3.347-3.347V173.283a3.347,3.347,0,0,0-6.694,0v15.634A3.428,3.428,0,0,0,45.563,192.264Z" transform="translate(-42.216 -152.188)" fill="#231f20"/>
          <path id="Path_6" data-name="Path 6" d="M151.826.337a1.069,1.069,0,0,0-1.559,0l-3,2.988-.138.138a13.237,13.237,0,0,0-5.99-1.339h-.066a13.236,13.236,0,0,0-5.989,1.339l-.139-.138-3-2.988a1.069,1.069,0,0,0-1.559,0,1.072,1.072,0,0,0,0,1.558l2.9,2.9a12.081,12.081,0,0,0-2.518,2.26,13.123,13.123,0,0,0-3.044,7.76c0,.031,0,.061-.006.092q-.014.3-.014.605h26.8q0-.3-.014-.605c0-.031,0-.061-.006-.092a13.119,13.119,0,0,0-3.044-7.76,12.073,12.073,0,0,0-2.518-2.26l2.9-2.9A1.072,1.072,0,0,0,151.826.337Zm-16.3,11.273A1.674,1.674,0,1,1,137.2,9.936,1.674,1.674,0,0,1,135.522,11.61Zm11.172,0a1.674,1.674,0,1,1,1.674-1.674A1.674,1.674,0,0,1,146.695,11.61Z" transform="translate(-118.78 0)" fill="#231f20"/>
        </g>
        <line id="Line_1" data-name="Line 1" y2="43" transform="translate(227.5 375.5)" fill="none" stroke="#231f20" stroke-linecap="round" stroke-width="4"/>
        <path id="android-text" d="M115.259,2.206c1.067-.115,2.388-.582,3.285.23a24.334,24.334,0,0,1,.1,3.341c-.03,14.165.021,28.331-.026,42.5a5.578,5.578,0,0,1-3.353.068c.009-2.342.013-4.684,0-7.025a19.455,19.455,0,0,1-10.689,7.31,18.544,18.544,0,0,1-21.637-11.4A18.349,18.349,0,0,1,95.678,12.933a18.7,18.7,0,0,1,14.352,2.321,22.781,22.781,0,0,1,5.245,4.875c-.021-5.976.018-11.951-.017-17.923M96.75,16.227c-7.2,1.6-12.516,9.087-11.4,16.414a15.845,15.845,0,0,0,8.691,11.815c3.837,1.5,8.406,1.8,12.129-.2A14.686,14.686,0,0,0,114.856,28.3,14.942,14.942,0,0,0,96.75,16.227Zm129.993-13.8c.905-.88,2.231-.4,3.3-.149q-.039,23.04-.009,46.075a5.007,5.007,0,0,1-3.349-.136c-.021-2.278,0-4.56-.038-6.838-3.179,4.288-8.164,7.523-13.6,7.748a20.077,20.077,0,0,1-10.391-2.346,18.24,18.24,0,0,1-9.005-12.24A18.523,18.523,0,0,1,196,21.071a18.323,18.323,0,0,1,11.968-8.33,18.711,18.711,0,0,1,13.962,2.788,21.519,21.519,0,0,1,4.718,4.514c.1-5.873-.093-11.755.093-17.62M208.119,16.244a14.9,14.9,0,0,0-1.726,28.433,15.755,15.755,0,0,0,9.554.442,16.117,16.117,0,0,0,7.947-5.95,14.618,14.618,0,0,0,2.265-11.734,15.11,15.11,0,0,0-8.334-10.255,15.411,15.411,0,0,0-9.707-.935Zm-23.4-13.7c1.823-.565,3.659,1.794,2.542,3.4a2.3,2.3,0,0,1-3.753.383,2.33,2.33,0,0,1,1.211-3.783ZM16.772,12.674a19.188,19.188,0,0,1,11.645,1.683,20.725,20.725,0,0,1,6.846,5.738c.064-2.4-.026-4.794.1-7.187,1.029-.03,2.061-.026,3.094,0,.153,11.8.08,23.617.034,35.425a6.087,6.087,0,0,1-3.2.017c0-2.329.009-4.653-.021-6.983-2.933,3.511-6.766,6.6-11.377,7.416a19.023,19.023,0,0,1-12.045-1.6A18.262,18.262,0,0,1,3.2,23.333,18.361,18.361,0,0,1,16.772,12.674m.077,3.489A15.117,15.117,0,0,0,5.642,26.656a14.95,14.95,0,0,0,6.022,16.422,15.477,15.477,0,0,0,12.27,2.138,15.561,15.561,0,0,0,10.26-10.043A14.931,14.931,0,0,0,16.849,16.163ZM51.2,16.069A16.346,16.346,0,0,1,77.88,28.735c-.021,6.524,0,13.048-.013,19.572a5.784,5.784,0,0,1-3.4.008c-.025-6.817.055-13.643-.038-20.46a12.948,12.948,0,0,0-25.849.442c-.089,6.681-.017,13.362-.034,20.043a6.306,6.306,0,0,1-3.383-.013c-.009-6.392.012-12.784-.009-19.181A16.587,16.587,0,0,1,51.2,16.069Zm73.352,11.8c.081-8.348,7.756-15.925,16.189-15.394a10.943,10.943,0,0,1-.051,3c-.795.633-1.93.4-2.86.65a12.525,12.525,0,0,0-8.687,6.94c-1.658,3.183-1.258,6.886-1.313,10.349-.06,4.9.115,9.822-.081,14.722-.927.748-2.142.429-3.192.2q-.008-10.238-.005-20.473Zm30.414-15.1a19.012,19.012,0,0,1,12.869,2,18.5,18.5,0,0,1,9.01,12.665,19.3,19.3,0,0,1-1.109,10.353,18.3,18.3,0,0,1-27.443,8.071,18.349,18.349,0,0,1,6.673-33.087m.451,3.438c-7.289,1.547-12.657,9.184-11.454,16.567a15.007,15.007,0,0,0,5.614,9.678,14.643,14.643,0,0,0,12.907,2.763,16.731,16.731,0,0,0,7.293-4.488,14.911,14.911,0,0,0-14.361-24.519Zm27.991-2.3c.973-1.016,2.52-.493,3.706-.2-.056,11.11.025,22.224-.039,33.333-.111,1.471-2.07.706-3.038.927-.174-.14-.527-.425-.706-.565.051-11.161-.1-22.334.076-33.495Z" transform="translate(247.857 371.042)" fill="#231f20"/>
      </g>
    </g>
  </g>
</svg>
