<svg xmlns="http://www.w3.org/2000/svg" width="682.667" height="682.667" preserveAspectRatio="xMidYMid meet" version="1.0" viewBox="0 0 512 512"><metadata>Created by potrace 1.11, written by Peter Selinger 2001-2013</metadata><g fill="#000" stroke="none"><path d="M2379 5116 c-2 -2 -38 -6 -79 -10 -64 -6 -207 -29 -315 -51 -150 -31 -385 -115 -555 -199 -656 -326 -1133 -898 -1334 -1601 -70 -244 -94 -444 -90 -730 2 -121 6 -236 9 -255 3 -19 13 -78 21 -130 69 -426 254 -839 532 -1187 96 -120 269 -295 370 -373 39 -30 71 -61 72 -68 0 -13 69 -82 81 -82 4 0 36 -17 70 -39 90 -54 381 -198 439 -216 3 -1 12 -5 20 -8 17 -7 149 -52 195 -67 75 -23 235 -59 290 -66 33 -3 68 -8 78 -10 59 -11 232 -18 437 -19 230 0 289 4 400 25 30 6 67 13 82 15 354 63 978 348 978 446 0 10 18 30 41 46 123 84 260 214 418 398 41 47 144 192 194 273 163 262 294 602 343 882 4 25 8 47 9 50 1 3 5 34 9 70 5 36 10 74 13 85 11 50 9 438 -3 545 -16 136 -47 298 -75 394 -12 38 -22 76 -24 85 -4 18 -51 146 -85 231 -37 93 -153 310 -223 417 -354 537 -901 924 -1522 1077 -55 14 -116 27 -135 30 -19 3 -44 8 -56 10 -12 2 -45 7 -74 11 -29 4 -62 9 -74 12 -24 5 -452 14 -457 9z" transform="translate(0.000000,512.000000) scale(0.100000,-0.100000)"/></g></svg>